<?xml version="1.0" encoding="utf-8"?>
<!-- Generator: Adobe Illustrator 24.3.2, SVG Export Plug-In . SVG Version: 6.00 Build 0)  -->
<svg version="1.1" id="Calque_1" xmlns="http://www.w3.org/2000/svg" xmlns:xlink="http://www.w3.org/1999/xlink" x="0px" y="0px"
	 viewBox="0 0 269.51 386.8" style="enable-background:new 0 0 269.51 386.8;" xml:space="preserve">
<style type="text/css">
	.st0{fill:#949B82;}
	.st1{display:none;fill:#949B82;}
</style>
<g>
	<path class="st0" d="M268.34,322.63c-0.31,0.06-0.61,0.15-0.91,0.23c-3.88,1.1-7.81,2.23-11.23,4.36
		c-0.94,0.58-1.82,1.24-2.71,1.89c-0.67,0.49-1.34,0.99-1.93,1.57c-0.88,0.86-1.57,1.9-2.2,2.96c-1.09,1.86-2,3.82-2.71,5.86
		c-0.45,1.29-0.82,2.63-1.49,3.82c-1.05,1.86-2.93,2.78-4.8,3.64c-1.85,0.85-3.72,1.67-5.62,2.4c-2.32,0.89-4.65,1.79-7.04,2.46
		c-3.07,0.86-6.23,1.36-9.28,2.26c-2.62,0.77-5.29,0.81-7.94,1.14c-0.69,0.08-1.39,0.1-2.09,0.13c-0.19,0.01-0.39-0.07-0.58-0.11
		c0.3-0.36,0.6-0.54,0.92-0.62c0.85-0.21,1.74-0.29,2.56-0.57c2.75-0.95,5.6-1.61,8.35-2.58c2.86-1.01,5.3-2.54,7.78-4.25
		c0.08-0.05,0.16-0.11,0.24-0.17c1.39-1.01,2.48-2.4,3.28-3.93c0.65-1.23,1.11-2.55,1.47-3.9c0.26-0.96,0.36-2.14-0.99-1.75
		c-2.02,0.59-4.06,1.16-6.04,1.87c-3.23,1.16-6.44,2.69-9.46,4.32c-0.57,0.31-1.13,0.62-1.62,1.05c-0.36,0.31-0.66,0.67-0.97,1.03
		c-0.57,0.67-1.29,1.35-1.73,2.11c-0.41,0.71-0.58,1.58-0.68,2.38c-0.16,1.27-0.19,2.55-1.61,3.1c-3.08,1.21-6.25,2.13-9.57,2.26
		c-2.05,0.08-4.11-0.12-6.16-0.27c-2.14-0.16-4.27-0.43-6.4-0.64c-1.51-0.14-3.03-0.18-4.53-0.36c-0.41,0.08-0.83,0.15-1.25,0.2
		c0.05,0.08,0.1,0.15,0.15,0.23c1.06-0.03,2.1,0.12,3.13,0.34c1.61,0.03,3.22,0.21,4.64,0.83c0.27,0.07,0.53,0.16,0.78,0.27
		c1.86,0.87,3.56,2.03,5.19,3.27c0.83,0.63,1.64,1.28,2.46,1.93c0.72,0.57,1.54,1.01,1.94,1.87c0.23,0.49,0.34,1.03,0.46,1.56
		c0.42,1.8,0.97,3.57,1.63,5.29c0.63,1.63,1.29,3.32,2.07,4.88c0.34,0.79,0.76,1.65,1.38,2.22c0.86,0.79,1.74,1.55,2.66,2.25
		c0.55,0.66,1.27,1.11,2.07,1.47c0.78,0.35,1.48,0.86,2.22,1.28c0.77,0.43,1.61,0.75,2.44,1.05c1.81,0.66,3.67,1.19,5.53,1.72
		c1.21,0.34,2.42,0.69,3.63,1.03c0.5,0,1.25,0.33,1.7,0.52c0.37,0.16,0.95,0.52,1.24,0.01c0.37-0.65-0.17-1.26-0.5-1.76
		c-0.45-0.69-0.89-1.38-1.28-2.11c-1-1.88-1.63-3.93-2.43-5.9c-1.45-3.56-3.39-7.74-6.89-9.66c-1.32-0.73-2.67-1.38-4.03-2.03
		c-0.01-0.01-0.02-0.01-0.03-0.02c-0.02-0.02-0.04-0.03-0.06-0.05c-0.03-0.01-0.06-0.01-0.1-0.02c-1.49-0.71-3-1.26-4.57-1.81
		c-0.52-0.18-1.04-0.37-1.58-0.5c-1.45-0.36-2.98-0.37-4.41-0.79c-1.54-0.46-2.88-1.38-4.14-2.35c-1.33-1.03-2.75-1.94-4.13-2.91
		c-0.15-0.1-0.29-0.2-0.57-0.39c0.33-0.08,0.5-0.16,0.66-0.14c1.12,0.11,2.24,0.29,3.37,0.36c1.82,0.11,3.65,0.23,5.48,0.21
		c1.71-0.02,3.41-0.23,5.12-0.35c0.87-0.06,1.74-0.1,2.61-0.14c1.13-0.05,2.26-0.05,3.39-0.16c1.27-0.12,2.53-0.35,3.8-0.51
		c0.16-0.02,0.34,0.05,0.5,0.09c2.52,0.57,4.15,2.31,5.64,4.26c0.14,0.19,0.29,0.36,0.44,0.54c1.99,2.42,4.99,3.91,8.01,4.56
		c1.9,0.41,3.87,0.54,5.81,0.39c0.62-0.05,1.24-0.13,1.86-0.17c0.61-0.04,1.21-0.05,1.82-0.03c0.4,0.01,0.79,0.09,1.18,0.11
		c0.48,0.02,0.63,0.05,0.43-0.4c-0.29-0.67-0.99-1.28-1.49-1.8c-0.45-0.47-0.9-0.94-1.35-1.41c-0.22-0.23-0.44-0.46-0.66-0.69
		c-1.36-1.43-2.99-2.75-4.78-3.6c-1.84-0.87-3.95-1.21-5.94-1.62c-2.18-0.45-4.42-0.75-6.64-0.49c-0.77,0.09-1.55,0.25-2.33,0.18
		c0.12-0.23,0.18-0.34,0.41-0.46c2.02-0.59,4.02-1.32,6.08-1.72c3.1-0.6,6.07-1.48,8.94-2.8c0.42-0.19,1.08-0.11,1.55,0.06
		c1.5,0.55,2.95,1.26,4.45,1.8c1.23,0.44,2.34,0.99,3.29,1.93c1.33,1.31,2.74,2.53,4.49,3.31c1.21,0.54,2.42,0.9,3.65,0.96
		c1.59,0.16,3.25-0.38,4.69-0.98c1.39-0.58,2.74-1.29,4.16-1.79c0.58-0.2,3.86-1.32,2.12-2.07c-1.45-0.62-9.24-3.2-9.79-3.46
		c-2.03-0.98-4.44-1.27-6.57-0.54c-0.94,0.32-1.81,0.83-2.72,1.22c-0.91,0.39-1.91,0.68-2.89,0.51c-0.66-0.11-1.26-0.41-1.84-0.73
		c-0.59-0.33-1.27-0.61-1.82-0.98c0.43-0.46,1.22-0.79,1.77-1.1c0.65-0.37,1.3-0.73,1.97-1.07c0.97-0.5,1.96-0.96,2.97-1.39
		c0.86-0.37,1.9-0.72,2.58-1.4c0.19-0.18,0.54-0.23,0.82-0.27c0.87-0.11,1.78-0.11,2.65-0.26c0.84-0.14,1.67-0.4,2.51-0.57
		c1.69-0.34,3.41-0.67,4.97-1.43c2.72-1.33,4.14-3.69,5.39-6.33c1.66-3.51,3.16-7.13,5.26-10.4c0.59-0.92,1.24-1.85,1.49-2.92
		C269.12,322.5,268.73,322.55,268.34,322.63z"/>
	<path class="st0" d="M235.3,325.46c-1.25,0.34-1.71,1.02-1.42,2.08c0.27,0.99,0.95,1.33,2.04,1.02c1.12-0.32,1.44-0.94,1.12-2.14
		C236.8,325.55,236.2,325.21,235.3,325.46z M235.79,327.72c-0.5,0.22-0.98,0.08-1.04-0.53c-0.02-0.24,0.22-0.63,0.45-0.74
		c0.44-0.22,0.87-0.13,0.99,0.79C236.15,327.29,236.02,327.62,235.79,327.72z"/>
	<path class="st0" d="M200.89,348.47c-0.85,0.25-1.09,0.84-0.79,1.9c0.19,0.68,0.9,1.12,1.53,0.95c0.71-0.19,1.14-1.17,0.9-2.03
		C202.27,348.34,201.91,348.16,200.89,348.47z"/>
	<path class="st0" d="M193.04,367.64c-0.64,0.24-1.02,1.02-0.81,1.63c0.24,0.68,1.42,1.07,2.26,0.74c0.69-0.27,0.53-0.83,0.38-1.32
		C194.61,367.85,193.74,367.37,193.04,367.64z"/>
	<path class="st0" d="M222.44,364.97c-0.5,0.13-0.89,1-0.72,1.59c0.21,0.71,1.14,1.14,1.91,0.89c0.55-0.18,0.87-0.96,0.64-1.58
		C224.08,365.32,223.03,364.81,222.44,364.97z M223.15,366.89c-0.25-0.19-0.59-0.33-0.72-0.58c-0.08-0.15,0.14-0.47,0.22-0.72
		c0.27,0.12,0.55,0.24,0.99,0.43C223.41,366.42,223.28,366.66,223.15,366.89z"/>
	<path class="st0" d="M9.81,14.88c0.81-0.01,1.34-0.45,1.6-1.33c0.1-0.36,0.18-0.73,0.27-1.09c0.33-1.32-0.76-2.65-2.13-2.58
		c-0.9,0.05-1.64,0.55-1.65,1.25c0,0.83,0.07,1.67,0.25,2.47C8.32,14.38,9.11,14.89,9.81,14.88z M9.32,12.22
		c0.15-0.27,0.81-0.59,0.9-0.5c0.69,0.62,0.06,1.13-0.19,1.73C9.22,13.29,8.98,12.84,9.32,12.22z"/>
	<path class="st0" d="M11.17,83.43c-0.77-0.36-1.68-0.23-2.21,0.31c-0.55,0.57-0.73,1.66-0.24,2.32c0.48,0.66,0.98,1.42,1.95,1.36
		c0.65-0.04,1.4-1.13,1.45-1.99c0.01-0.12,0-0.25,0-0.32C12.07,84.19,11.8,83.73,11.17,83.43z"/>
	<path class="st0" d="M41.63,33.91c0.17,1.12,1.23,2.06,2.23,1.97c1.16-0.11,2.32-1.85,2.16-3.24c-0.12-1.02-1.33-1.72-2.63-1.53
		C42.36,31.26,41.45,32.71,41.63,33.91z M44.11,32.61c0.12,0.15,0.53,0.41,0.53,0.68c0,0.5-0.1,1.22-0.79,1.18
		c-0.39-0.02-0.9-0.4-1.1-0.76C42.54,33.34,43.31,32.65,44.11,32.61z"/>
	<path class="st1" d="M82.48,12.51c15.01-0.48,39.15-1.11,65.77-1.25c26.62-0.16,55.7,0.22,80.58,0.94
		c6.22,0.2,12.18,0.4,17.77,0.59c1.34,0.05,2.67,0.1,3.97,0.14l0,0l-0.06,0.45c-0.09,0.71-0.18,1.4-0.26,2.09
		c-0.35,2.77-0.68,5.42-1,7.95c-0.32,2.53-0.62,4.93-0.91,7.2c-0.27,2.27-0.4,4.41-0.59,6.39c-0.34,3.96-0.63,7.31-0.86,9.94
		c-0.12,1.39-0.24,2.87-0.37,4.44c-0.08,1.57-0.17,3.23-0.26,4.97c-0.18,3.47-0.38,7.26-0.59,11.29c-0.05,1.01-0.11,2.03-0.16,3.07
		c-0.02,1.04-0.05,2.09-0.07,3.16c-0.05,2.13-0.1,4.32-0.15,6.55c-0.05,2.23-0.1,4.5-0.16,6.82c-0.02,1.16-0.05,2.32-0.07,3.49
		c0,1.17,0,2.35,0.01,3.54c0,0.13,0,0.27,0,0.4c-0.08,10.55,0.13,32.72,1.34,59.32c1.15,26.61,3.08,57.64,4.17,86.07
		c0.32,7.1,0.48,14.05,0.65,20.72c0.23,6.67,0.24,13.06,0.29,19.06c0.02,3,0.07,5.91,0.06,8.7c-0.04,2.79-0.08,5.48-0.11,8.03
		c-0.04,2.56-0.07,4.99-0.1,7.29c-0.02,1.15-0.03,2.26-0.04,3.34c-0.04,1.08-0.08,2.11-0.12,3.11c-0.14,3.43-0.26,6.41-0.35,8.87
		c0.07-0.02,0.13-0.04,0.2-0.05c0.1-1.96,0.2-3.93,0.31-5.89c0.14-2.89,0.33-5.77,0.37-8.66c0.13-5.77,0.26-11.52,0.4-17.24
		c0-5.72,0-11.42,0-17.07c-0.02-5.65-0.19-11.26-0.28-16.82c-0.52-22.23-1.52-43.6-2.47-63.39c-0.45-9.89-0.94-19.39-1.3-28.4
		c-0.19-4.51-0.37-8.89-0.55-13.14c-0.14-4.25-0.27-8.37-0.4-12.34c-0.07-1.99-0.13-3.94-0.19-5.85c-0.04-1.91-0.08-3.79-0.11-5.63
		c-0.07-3.67-0.13-7.19-0.2-10.54c-0.09-3.35-0.08-6.53-0.07-9.53c0-3,0-5.82,0-8.46c0-1.65,0-3.39,0-5.19
		c0.02-1.8,0.08-3.68,0.12-5.62c0.09-3.88,0.19-8.01,0.29-12.34c0.02-2.17,0.17-4.38,0.28-6.63c0.12-2.25,0.23-4.55,0.35-6.88
		c0.12-2.33,0.24-4.7,0.36-7.09c0.12-2.39,0.38-4.8,0.57-7.23c0.23-2.67,0.47-5.53,0.73-8.57c0.13-1.52,0.26-3.09,0.4-4.69
		c0.2-1.6,0.4-3.25,0.6-4.93c0.42-3.37,0.85-6.91,1.31-10.6c0.11-0.92,0.23-1.85,0.35-2.8l0.12-0.93l0.08-0.65l0.04-0.32
		c0.01-0.1,0.06-0.25-0.09-0.21c-0.66-0.02-1.33-0.04-1.99-0.07c-1.81-0.06-3.66-0.12-5.54-0.18c-15.04-0.48-32.21-0.87-50.78-1.03
		c-37.14-0.32-79.88,0.36-122.24,2.5C61.59,13.2,67.47,13.01,82.48,12.51z"/>
	<path class="st0" d="M100.64,352.25c-23.63-0.64-45.44-1.23-63.73-1.73c0.07-7.06,0.14-13.65,0.21-19.77
		c0.03-6.36,0.05-12.24,0.08-17.67c-0.02-10.85-0.01-19.86-0.1-27.18c-0.06-5.83-0.1-12.78-0.24-20.42
		c-0.07-3.82-0.13-7.81-0.21-11.93c-0.1-4.12-0.2-8.35-0.31-12.66c-0.46-18.92-1.37-48.66-3.19-83.63
		c-0.49-9.48-1.04-18.96-1.63-28.44c-0.63-10.05-1.31-20.1-2.03-30.14c-0.34-4.73-0.48-9.48-1-14.2c-0.11-0.97-0.1-2.1-0.36-3.03
		c-0.3-1.06-1.04-2.13-1.48-3.15c-0.9-2.09-2.07-3.98-2.1-6.33c-0.02-2.26,0.8-4.56,2.43-6.16c1.35,0.95,3.18,0.28,4.78-0.13
		c3.53-0.92,7.4-0.43,10.76-1.87c3.38-1.45,5.67-4.59,7.78-7.59c1.03-1.47,2.07-2.93,3.1-4.4c0.35-0.49,0.69-1.19,0.28-1.64
		c-0.2-0.21-0.5-0.27-0.79-0.32c-4.13-0.7-8.38-1.1-12.48-0.28c-4.1,0.82-8.08,2.99-10.34,6.52c-2.53,3.95-2.83,9.35-6.44,12.34
		c-0.43-6.44-0.71-12.9-0.85-19.35c-0.02-1.11-0.04-2.24,0.26-3.31c0.61-2.16,2.42-3.75,4.15-5.18c4.69-3.9,9.63-7.91,12.11-13.48
		c3.51-7.89,1.35-17.08,2.79-25.59c0.1-0.6,0.05-1.45-0.55-1.52c-0.26-0.03-0.51,0.12-0.73,0.27c-6.46,4.37-12.78,9.18-17.4,15.46
		s-7.42,14.26-6.07,21.94c0.71,4.06,2.53,7.85,3.48,11.86c2,8.48,0.07,17.69,3.12,25.85c-1.94-0.33-3.17-2.34-3.53-4.28
		c-0.36-1.94-0.12-3.95-0.47-5.89c-0.5-2.78-2.18-5.25-4.25-7.17c-2.07-1.92-4.54-3.37-6.99-4.78c-2.48-1.43-4.97-2.85-7.48-4.24
		c-0.18-0.1-0.38-0.21-0.59-0.19c-0.57,0.05-0.67,0.83-0.61,1.4c0.6,5.21,1.25,10.58,3.78,15.18c2.52,4.6,7.41,8.32,12.64,7.85
		c0.69-0.06,1.38-0.19,2.06-0.1c1.24,0.16,2.22,1,3.01,1.91c0.72,0.84,1.39,2.06,2.71,1.4c0.77,1.26,1.52,2.44,2.23,3.64
		c0.37,0.62,0.72,1.26,1.09,1.88c0.68,9.94,1.4,20.97,2.07,32.53c1.48,25.05,2.77,52.44,3.61,75.89
		c0.83,23.45,1.34,42.95,1.52,52.21c0.1,4.9,0.23,11.13,0.37,18.22c0.13,7.09,0.25,15.06,0.33,23.42c0,0.11,0,0.24,0,0.35
		c0.03,5.56,0.09,14.8,0.16,26.36c0,5.78,0,12.14,0,18.92c-0.04,6.96-0.08,14.34-0.13,21.97c36.6,0.75,78.78,1.61,108.34,2.21
		c29.4,0.56,46.24,0.83,32.44,0.4C150.34,353.71,124.56,352.95,100.64,352.25z M49.59,50.84C49.59,50.84,49.59,50.84,49.59,50.84
		C49.59,50.84,49.59,50.84,49.59,50.84C49.59,50.84,49.59,50.84,49.59,50.84z M38.24,59.62C38.23,59.63,38.23,59.63,38.24,59.62
		L38.24,59.62C38.23,59.62,38.23,59.62,38.24,59.62z M24.35,18.84c0.01,0.01,0.01,0.02,0.02,0.04c-0.01,0-0.02-0.01-0.04-0.01
		C24.34,18.86,24.34,18.85,24.35,18.84z M14.35,60.92c0-0.01,0-0.02-0.01-0.02c0.01,0,0.01,0.01,0.02,0.01
		C14.36,60.91,14.35,60.92,14.35,60.92z"/>
</g>
</svg>
