<?xml version="1.0" encoding="utf-8"?>
<!-- Generator: Adobe Illustrator 24.3.2, SVG Export Plug-In . SVG Version: 6.00 Build 0)  -->
<svg version="1.1" id="Calque_1" xmlns="http://www.w3.org/2000/svg" xmlns:xlink="http://www.w3.org/1999/xlink" x="0px" y="0px"
	 viewBox="0 0 185.55 309.05" style="enable-background:new 0 0 185.55 309.05;" xml:space="preserve">
<style type="text/css">
	.st0{fill:#949B82;}
</style>
<g>
	<path class="st0" d="M15.87,2.39C30.88,1.9,55.03,1.28,81.64,1.14c26.62-0.16,55.7,0.22,80.58,0.94c6.22,0.2,12.18,0.4,17.77,0.59
		c1.34,0.05,2.67,0.1,3.97,0.14l0,0l-0.06,0.45c-0.09,0.71-0.18,1.4-0.26,2.09c-0.35,2.77-0.68,5.42-1,7.95
		c-0.32,2.53-0.62,4.93-0.91,7.2c-0.27,2.27-0.4,4.41-0.59,6.39c-0.34,3.96-0.63,7.31-0.86,9.94c-0.12,1.39-0.24,2.87-0.37,4.44
		c-0.08,1.57-0.17,3.23-0.26,4.97c-0.18,3.47-0.38,7.26-0.59,11.29c-0.05,1.01-0.11,2.03-0.16,3.07c-0.02,1.04-0.05,2.09-0.07,3.16
		c-0.05,2.13-0.1,4.32-0.15,6.55c-0.05,2.23-0.1,4.5-0.16,6.82c-0.02,1.16-0.05,2.32-0.07,3.49c0,1.17,0,2.35,0.01,3.54
		c0,0.13,0,0.27,0,0.4c-0.08,10.55,0.13,32.72,1.34,59.32c1.15,26.61,3.08,57.64,4.17,86.07c0.32,7.1,0.48,14.05,0.65,20.72
		c0.23,6.67,0.24,13.06,0.29,19.06c0.02,3,0.07,5.91,0.06,8.7c-0.04,2.79-0.08,5.48-0.11,8.03c-0.04,2.56-0.07,4.99-0.1,7.29
		c-0.02,1.15-0.03,2.26-0.04,3.34c-0.04,1.08-0.08,2.11-0.12,3.11c-0.14,3.43-0.26,6.41-0.35,8.87c0.07-0.02,0.13-0.04,0.2-0.05
		c0.1-1.96,0.2-3.93,0.31-5.89c0.14-2.89,0.33-5.77,0.37-8.66c0.13-5.77,0.26-11.52,0.4-17.24c0-5.72,0-11.42,0-17.07
		c-0.02-5.65-0.19-11.26-0.28-16.82c-0.52-22.23-1.52-43.6-2.47-63.39c-0.45-9.89-0.94-19.39-1.3-28.4
		c-0.19-4.51-0.37-8.89-0.55-13.14c-0.14-4.25-0.27-8.37-0.4-12.34c-0.07-1.99-0.13-3.94-0.19-5.85c-0.04-1.91-0.08-3.79-0.11-5.63
		c-0.07-3.67-0.13-7.19-0.2-10.54c-0.09-3.35-0.08-6.53-0.07-9.53c0-3,0-5.82,0-8.46c0-1.65,0-3.39,0-5.19
		c0.02-1.8,0.08-3.68,0.12-5.62c0.09-3.88,0.19-8.01,0.29-12.34c0.02-2.17,0.17-4.38,0.28-6.63c0.12-2.25,0.23-4.55,0.35-6.88
		c0.12-2.33,0.24-4.7,0.36-7.09c0.12-2.39,0.38-4.8,0.57-7.23c0.23-2.67,0.47-5.53,0.73-8.57c0.13-1.52,0.26-3.09,0.4-4.69
		c0.2-1.6,0.4-3.25,0.6-4.93c0.42-3.37,0.85-6.91,1.31-10.6c0.11-0.92,0.23-1.85,0.35-2.8l0.12-0.93l0.08-0.64l0.04-0.32
		c0.01-0.1,0.06-0.25-0.09-0.21c-0.66-0.02-1.33-0.04-1.99-0.07c-1.81-0.06-3.66-0.12-5.54-0.18c-15.04-0.48-32.21-0.87-50.78-1.03
		C89.99-0.24,47.25,0.44,4.89,2.57C-5.01,3.07,0.87,2.88,15.87,2.39z"/>
</g>
</svg>
