<?xml version="1.0" encoding="utf-8"?>
<!-- Generator: Adobe Illustrator 24.3.2, SVG Export Plug-In . SVG Version: 6.00 Build 0)  -->
<svg version="1.1" id="Calque_1" xmlns="http://www.w3.org/2000/svg" xmlns:xlink="http://www.w3.org/1999/xlink" x="0px" y="0px"
	 viewBox="0 0 264.47 153.1" style="enable-background:new 0 0 264.47 153.1;" xml:space="preserve">
<style type="text/css">
	.st0{fill:#BFD8D7;}
</style>
<g>
	<g>
		<path class="st0" d="M89.4,150.86c-0.57-0.86-0.92-1.91-1.63-2.62c-2.04-2.04-4.24-3.92-6.3-5.94c-0.62-0.61-1.12-1.42-1.43-2.24
			c-0.39-1.02-0.71-2.06-1.04-3.1c-0.09-0.49-0.26-0.95-0.46-1.39c-0.28-0.84-0.58-1.67-0.95-2.47c-1.57-3.41-4.15-5.46-8.19-5.23
			c-1.09,0.06-1.8,0.48-2.15,1.36c-0.7,1.75-1.02,3.57,0.46,5.13c0.79,0.83,1.7,1.55,2.54,2.35c0.32,0.3,0.59,0.67,0.88,1
			c-0.06,0.11-0.12,0.23-0.18,0.34c-0.44,0-0.87-0.01-1.31,0c-3.02,0.1-6.04-0.04-9.02,0.81c-1.77,0.51-3.68,0.61-5.54,0.72
			c-0.53,0.03-1.31-0.37-1.62-0.82c-0.49-0.72-0.91-1.49-1.33-2.26c-0.01-0.73-0.39-1.36-0.76-1.95c-1.67-2.67-3.97-4.32-7.26-4.16
			c-0.75,0.04-1.44,0.25-1.77,0.93c-0.23,0.22-0.42,0.47-0.52,0.8c-0.37,1.12-0.62,2.5,0.45,3.51c0.93,0.88,1.95,1.66,2.94,2.48
			c0.26,0.21,0.53,0.4,0.8,0.6c-0.04,0.11-0.08,0.22-0.12,0.34c-0.51,0-1.03,0.06-1.53-0.01c-4.3-0.64-8.34-1.96-11.97-4.45
			c-2.9-1.98-4.83-4.36-4.19-8.15c0.19-1.14-0.08-2.41,0.33-3.44c0.98-2.44,0.65-4.89,0.56-7.37c-0.04-1.02-0.84-1.5-1.63-1.64
			c-0.59-0.1-1.44,0.11-1.88,0.5c-1.18,1.05-1.81,2.47-1.77,4.08c0.07,2.66,0.19,5.32,0.3,8.03c-0.26-0.2-0.66-0.38-0.88-0.68
			c-2.11-2.96-4.16-5.92-5.38-9.43c-1.15-3.29-0.67-6.09,1.7-8.48c0.79-0.8,1.39-1.63,1.72-2.54c0.5-0.64,0.74-1.37,0.23-2.12
			c-0.02-0.13-0.02-0.26-0.05-0.4c-0.1-0.53-0.27-1.31-0.62-1.46c-0.45-0.19-1.14,0.1-1.69,0.28c-0.35,0.11-0.65,0.39-0.97,0.6
			c-0.12-0.09-0.25-0.19-0.37-0.28c0.2-0.41,0.39-0.84,0.62-1.24c0.16-0.27,0.55-0.51,0.54-0.76c-0.04-1.79,1.18-2.65,2.5-3.39
			c1.73-0.98,3.47-1.9,4.61-3.63c0.65-0.99,0.78-3.02,0.14-4.02c-0.92-1.44-2.83-1.69-4.52-0.62c-0.28,0.18-0.64,0.25-0.96,0.37
			c-0.1-0.34-0.25-0.68-0.29-1.02c-0.19-1.86-0.44-3.71-0.49-5.58c-0.02-0.94,0.08-2.06,0.58-2.8c1.07-1.61,2.34-3.1,3.68-4.5
			c1.38-1.44,1.88-3.06,1.59-4.99c-0.19-1.27-1.55-2.35-2.54-1.9c-2.18,0.99-3.63,2.69-4.5,4.91c-0.23,0.59-0.55,1.14-0.83,1.72
			c-0.5-0.44-1.01-0.88-1.5-1.33c-0.11-0.1-0.13-0.3-0.21-0.44c-0.62-1.07-1.1-2.26-1.9-3.18c-2.21-2.53-4.65-4.8-8.15-5.44
			c-0.24-0.04-0.41-0.44-0.62-0.67c-1.58,0-3.16,0-4.74,0c-0.25,0.64-0.63,1.26-0.73,1.92c-0.32,2.05,1.18,3.1,2.55,4.08
			c2.72,1.96,6.02,2.46,9.13,3.39c3.22,0.96,5.57,2.62,6.34,6.05c0.38,1.69,0.88,3.36,1.12,5.06c0.25,1.79,0.25,3.62,0.34,5.44
			c0.01,0.16-0.2,0.33-0.42,0.66c-0.35-0.4-0.7-0.68-0.9-1.04c-0.38-0.68-0.53-1.57-1.06-2.06c-0.57-0.53-1.46-0.91-2.24-0.96
			c-0.45-0.03-1.14,0.61-1.41,1.11c-0.78,1.5-0.91,3.15-0.13,4.67c0.79,1.53,1.65,3.06,2.72,4.41c1.24,1.55,1.03,3.16,0.68,4.84
			c-0.17,0.82-0.52,1.37-1.56,0.73c-0.94-0.57-2.14-0.26-2.42,0.42c-0.52,1.24-0.09,3.73,0.93,4.58c1.6,1.33,2.62,2.73,2.35,5.05
			c-0.5,4.38,1.64,8.02,3.93,11.48c1.51,2.27,3.29,4.37,4.97,6.52c0.52,0.67,1.05,1.37,1.7,1.9c1.13,0.9,2.43,1.6,3.53,2.53
			c3.95,3.32,8.48,5.23,13.6,5.77c1.57,0.17,3.32,0.04,4.64,0.71c0.45,0.23,0.88,0.38,1.3,0.48c-0.05,0.02-0.1,0.05-0.15,0.06
			c-0.34,0.09-0.66,0.2-0.99,0.32c-0.52,0.01-1.06-0.01-1.53,0.15c-1.28,0.44-2.57,0.92-3.75,1.56c-2.11,1.14-4.27,2.27-5.51,4.48
			c-0.58,1.04-0.57,2.05,0,3.17c1.28,2.49,5.92,2.59,7.6,0.87c1.48-1.5,2.84-3.12,4.26-4.67c1.83-2.01,3.65-4.03,5.52-6.01
			c0.24-0.26,0.75-0.3,1.14-0.38c0.49-0.1,1-0.08,1.48-0.2c3.93-0.92,7.87-1.66,11.94-1.51c1.53,0.06,3.06-0.11,4.33,1.07
			c0.3,0.28,0.85,0.28,1.28,0.42c0.63,0.19,1.34,0.27,1.89,0.61c1.99,1.25,4.07,2.41,5.83,3.94c2.08,1.8,4.2,3.66,5.25,6.35
			c0.34,0.87,1.02,1.28,1.94,1.28c0-0.42,0-0.83,0-1.25C89.99,151.35,89.61,151.17,89.4,150.86z M20.09,102.43
			c0.06,0.12,0.1,0.26,0.15,0.39c-0.26-0.05-0.54-0.08-0.83-0.1C19.62,102.61,19.85,102.51,20.09,102.43z M24.08,88.84
			c-0.01,0-0.02,0-0.03,0C24.06,88.84,24.07,88.84,24.08,88.84L24.08,88.84z M23.43,88.91c-0.37,0.08-0.73,0.18-1.07,0.31
			C22.69,89.06,23.06,88.97,23.43,88.91z M14.97,72.7c-0.07-0.02-0.14-0.04-0.21-0.06c0.05-0.04,0.11-0.07,0.15-0.12
			c0.08-0.09,0.13-0.17,0.17-0.26c0,0.02,0.01,0.05,0.02,0.07C15.1,72.37,15.07,72.41,14.97,72.7z M18.98,78.87
			c-0.06-0.18-0.15-0.34-0.2-0.48c0.11,0.11,0.23,0.21,0.38,0.28C19.1,78.74,19.04,78.8,18.98,78.87z M45.55,150.27
			c-0.68,0.83-1.48,1.3-2.35,1.52c0.24-0.13,0.48-0.29,0.71-0.44c0.62-0.32,1.17-0.71,1.68-1.13
			C45.58,150.23,45.56,150.25,45.55,150.27z M51.6,143.08c0.38-0.61,0.77-1.2,1.26-1.73c0.07-0.08,0.11-0.16,0.17-0.23
			c0.06,0.03,0.13,0.08,0.27,0.15C52.72,141.89,52.15,142.48,51.6,143.08z"/>
		<path class="st0" d="M128.01,20.9c-0.91,0.18-1.77,0.64-2.67,0.9c-2.78,0.8-5.53,1.78-8.36,2.26c-2.25,0.38-4.61,0.12-6.92,0.15
			c-0.53,0.01-1.07,0.04-1.6,0.02c-0.94-0.03-1.9,0.06-2.8-0.15c-1.48-0.35-2.9-0.92-4.37-1.34c-2.57-0.74-5.17-1.39-7.73-2.16
			c-1.93-0.59-3.83-1.31-5.73-2c-3.14-1.14-6.41-2.02-9.35-3.54c-2.69-1.38-5.21-3.28-6.62-6.17c-0.15-0.31-0.06-0.75-0.08-1.13
			c0.33,0.07,0.74,0.04,0.99,0.23c0.92,0.66,1.75,0.64,2.59-0.12c0.52-0.47,1.12-0.87,1.6-1.37c1.42-1.47,1.6-2.91,0.54-4.69
			C77.13,1.15,76.56,0.6,76.07,0c-1,0-1.99,0-2.99,0c-0.01,0.08,0.01,0.19-0.03,0.24c-1,1.31-2,2.62-3.13,4.1
			C68.57,2.98,67.08,1.49,65.6,0c-0.67,0-1.33,0-1.99,0c-0.16,0.77-0.65,1.69-0.41,2.3c0.98,2.46,2.75,4.25,5.17,5.45
			c1.03,0.51,1.97,1.29,2.8,2.1c0.94,0.9,1.63,2.06,2.57,2.95c1.07,1.02,2.3,1.88,3.75,3.03c-0.62,0-0.86,0.05-1.07-0.01
			c-2.86-0.76-5.72-1.55-8.58-2.32c-1.47-0.39-2.96-0.75-4.43-1.14c-1.71-0.45-3.39-1.15-5.12-1.32c-2.59-0.26-5.23-0.26-7.84-0.16
			c-1.85,0.07-3.67,0.56-5.52,0.71c-1,0.08-2.16,0.18-3.05-0.14c-0.08-0.13-0.19-0.25-0.39-0.32c-0.66-0.23-1.24-0.57-1.83-0.97
			c-1.04-0.71-2.15-1.24-3.3-1.68c-1.12-0.53-2.28-0.98-3.54-1.23c-1.49-0.3-3.01-0.53-4.53-0.54c-1.32-0.01-2.08,1.82-1.49,3.01
			c0.98,1.96,2.72,2.96,4.59,3.76c1.16,0.5,2.35,0.89,3.56,0.68c1.03,0.33,1.91,0.12,2.39-0.58c0.07,0.01,0.15,0.01,0.22,0.01
			c0.03,0.11,0.05,0.23,0.08,0.34c-0.56,0.4-1.09,0.88-1.7,1.17c-3.72,1.78-6.94,4.11-8.88,7.9c-0.18,0.35-0.7,0.72-1.08,0.74
			c-1.97,0.12-3.28,1.3-4.36,2.72c-0.77,1.01-1.36,2.18-1.81,3.37c-0.18,0.49,0.15,1.25,0.42,1.79c0.01,0.02,0.05,0.04,0.07,0.05
			c0.04,0.14,0.14,0.26,0.33,0.36c0.58,0.31,0.91-0.23,1.25-0.55c0.01-0.01,0.02-0.02,0.04-0.04c0.63-0.27,1.12,0,1.48,0.86
			c0.52-1.05,0.99-2.01,1.48-2.97c0.3-0.58,0.67-1.14,0.93-1.74c0.28-0.66,0.53-1.34,0.79-2.02c0.04-0.06,0.08-0.12,0.11-0.18
			c0.02-0.08,0.03-0.14,0.04-0.21c0.24-0.61,0.49-1.21,0.8-1.78c1.34-2.43,3.3-4.33,5.63-5.84c0.43-0.28,0.94-0.42,1.41-0.63
			c0.04,0.49,0.17,0.99,0.11,1.47c-0.16,1.27,0.46,2.09,1.47,2.64c1.06,0.59,2.12,0.32,2.99-0.67c1.44-1.66,2.18-3.63,2.72-5.74
			c0.17-0.69,0.82-1.59,1.44-1.78c1.64-0.51,3.38-0.87,5.09-0.96c2.69-0.15,5.39-0.06,8.09-0.03c0.86,0.01,1.75,0.1,2.58,0.3
			c2.85,0.7,5.68,1.46,8.52,2.2c1.55,0.4,3.11,0.78,4.65,1.21c1.43,0.4,2.83,0.91,4.27,1.28c2.59,0.68,5.2,1.3,7.8,1.95
			c1.15,0.28,2.4,0.37,3.44,0.87c3.15,1.53,6.78,1.79,9.76,3.76c0.26,0.17,0.62,0.21,0.95,0.27c1.86,0.36,3.73,0.68,5.58,1.06
			c5.02,1.03,10.04,1.11,15.04-0.05c2.25-0.52,4.45-1.27,6.67-1.93c1.28-0.39,2.54-0.82,3.81-1.23c0.02-0.12,0.04-0.24,0.06-0.36
			C129.08,21.12,128.5,20.8,128.01,20.9z M40.68,15.27c-0.02,0.05-0.04,0.09-0.06,0.14c0.05-0.44-0.09-0.83-0.33-1.11
			C40.74,14.34,40.9,14.72,40.68,15.27z"/>
		<path class="st0" d="M18.83,55.76c0.92,0.39,1.82,0.61,2.68-0.12c0.88-0.75,1.38-1.66,1-2.85c-0.33-1.02-0.92-2.01-1.01-3.05
			c-0.17-1.98-0.08-3.98-0.06-5.96c0-0.32,0.18-0.64,0.21-0.72c1.12,1.12,2.11,2.31,3.3,3.26c1.1,0.88,1.89,0.49,2.53-0.7
			c0.67-1.24,0.11-2.34-0.34-3.3c-0.43-0.92-0.92-1.81-1.43-2.7c-0.24-0.63-0.5-1.25-0.77-1.87c-0.14-0.32-0.47-0.62-0.82-0.83
			c-0.1-0.17-0.21-0.35-0.31-0.52c-0.73-1.23-1.77-1.14-2.45,0.14c-0.15,0.29-0.37,0.54-0.58,0.8c-1.69,2.08-3.46,4.09-5.05,6.24
			c-0.72,0.97-0.89,2.36-1.64,3.29c-0.88,1.11-0.79,2.37-0.37,3.26C14.82,52.48,16.25,54.68,18.83,55.76z"/>
		<path class="st0" d="M54.02,27.29c0.36,1.04,0.82,1.57,1.76,1.61c0.21,0.01,0.39,0,0.56-0.01c0.77,0.18,1.49-0.07,2.03-0.99
			c0.65-1.09,0.99-2.41,1.26-3.67c0.4-1.89,0.5-3.85,0.97-5.72c0.15-0.59,0.98-1.25,1.62-1.43c1.82-0.51,3.71-0.78,5.57-1.16
			c0.19-0.04,0.36-0.16,0.53-0.24c-0.02-0.17-0.04-0.34-0.06-0.52c-1.23,0.15-2.48,0.23-3.69,0.46c-1.89,0.36-3.74,1.06-5.64,1.17
			c-2.36,0.14-4.6,0.53-6.69,1.6c-0.82,0.42-1.61,1-2.25,1.66c-0.71,0.73-0.4,1.53,0.43,1.94c0.72,0.36,1.57,0.44,2.31,0.77
			c0.29,0.13,0.68,0.74,0.6,0.87C52.41,25.12,53.11,26.3,54.02,27.29z"/>
		<path class="st0" d="M98.93,11.88c0.81,1.29,1.54,2.55,1.71,4.15c0.14,1.27,0.42,2.81,1.23,3.66c1.44,1.52,3.32,2.63,5.05,3.85
			c0.23,0.16,0.71-0.03,1.41-0.09c-0.47-0.35-0.61-0.53-0.78-0.58c-2.15-0.54-3.69-1.96-5.06-3.56c-0.43-0.51-0.78-1.42-0.64-2.04
			c0.36-1.6,0.39-3.34,1.56-4.7c0.25-0.29,0.34-0.74,0.43-1.14c0.45-2-0.08-3.73-1.39-5.3c-0.3-0.36-0.58-0.73-0.86-1.11
			c-0.04-0.09-0.07-0.19-0.12-0.28h0c-0.52-0.6-0.89-1.36-1.59-1.76c-0.47-0.44-1-0.84-1.64-1.11c-0.98-0.43-1.67-0.22-2.13,0.74
			C95.29,4.3,95.73,6,96.35,7.53C96.98,9.07,98.03,10.45,98.93,11.88z"/>
		<path class="st0" d="M95.76,23.64c-1.61-0.1-3.13,0.26-4.7,0.65c-0.18-0.07-0.35,0.02-0.53,0.14c-0.59,0.16-1.14,0.36-1.66,0.6
			c-0.7-0.63-1.26-0.02-1.84,0.39h0c-0.98,0.64-1.52,1.46-1.56,2.49c-0.13,0.19-0.25,0.38-0.37,0.58c-0.48,0.87-0.64,1.92,0.17,2.79
			c0.98,1.06,2.9,1.26,4.37,0.46c0.61-0.33,1.05-0.64,1.37-0.98c0.04-0.03,0.08-0.07,0.11-0.11c0.32-0.37,0.47-0.79,0.5-1.29
			c0.04-0.06,0.08-0.12,0.11-0.19c-0.03-0.09-0.07-0.16-0.11-0.23c-0.02-0.28-0.06-0.58-0.14-0.93c-0.07-0.3,0.02-0.64,0.07-0.96
			c0.33-1.76,1.73-2.14,3.18-2.42c0.75-0.15,1.5-0.28,2.25-0.42c-0.02-0.15-0.03-0.3-0.05-0.46C96.55,23.72,96.15,23.67,95.76,23.64
			z"/>
	</g>
	<g>
		<path class="st0" d="M183.27,25.78c0.31,0.23,0.14,1.07,0.26,1.62c0.08,0.35,0.19,0.78,0.44,0.99c0.87,0.74,1.76,1.49,2.75,2.05
			c0.69,0.4,1.42,0.16,1.96-0.56c0.49-0.64,0.87-1.19,0.22-1.97c-2.1-2.55-4.94-3.7-8.07-4.31c-0.54-0.11-1.1-0.13-1.65-0.2
			c2.2-0.87,4.39-1.55,6.61-2.13c3.67-0.96,7.39-1.76,11.04-2.78c2.45-0.69,4.91-1.17,7.41-1.4c0,0-0.01,0.01-0.01,0.01
			c-0.5,0.64-0.33,1.51,0.43,2.28c0.03,0.13,0.07,0.26,0.15,0.36c1.44,2.09,3.25,3.71,5.7,4.55c0.93,0.32,1.86,0.72,2.62-0.19
			c0.69-0.82,0.49-1.64-0.06-2.32c-0.16-0.48-0.42-0.89-1.04-1.02c-1-0.93-2.03-1.83-3.07-2.71c-0.22-0.18-0.61-0.16-0.92-0.23
			c0,0.01-0.01,0.02-0.01,0.03c-0.24-0.24-0.47-0.49-0.67-0.79c-0.03-0.04-0.07-0.07-0.11-0.1c0.68,0,1.36,0.01,2.05,0.05
			c2.84,0.18,5.68,0.58,8.5,1c1.5,0.23,2.97,0.68,4.43,1.09c1.75,0.5,3.36,1.24,4.44,2.81c0.22-0.76,0.62-0.77,1.28-0.38
			c0.87,0.53,1.81,0.95,2.73,1.41c1.98,1.01,4.06,1.86,5.91,3.06c2.15,1.39,4.11,3.08,6.15,4.64c0.13,0.1,0.24,0.23,0.34,0.36
			c0.11,0.14,0.22,0.29,0.32,0.43c0.05,0.2,0.13,0.39,0.27,0.57c0.18,0.22,0.38,0.41,0.6,0.6c1.24,1.63,2.49,3.26,3.59,4.98
			c0.74,1.17,1.52,2.53,0.9,4.09c-0.04,0.11-0.04,0.26,0,0.37c0.04,0.1,0.07,0.2,0.1,0.3c-0.16-0.3-0.43-0.51-0.73-0.55
			c-0.24-0.03-0.39,0.08-0.5,0.24c0,0-0.01,0-0.01,0c-0.01,0.02-0.02,0.04-0.03,0.06c-0.05,0.08-0.09,0.16-0.12,0.25
			c-0.23,0.46-0.45,0.91-0.69,1.36c-1.21,2.25-2.5,4.46-3.6,6.76c-0.49,1.01-0.94,2.24-0.82,3.3c0.24,2.15,1.38,3.96,3.1,5.34
			c0.02,0.01,0.03,0.03,0.05,0.04c0.34,0.71,0.48,0.88,0.96,0.63c0.85,0.41,1.49,0.24,2.16-0.62c1.11-1.43,2.02-3.03,2.03-4.95
			c0-0.87-0.06-1.75,0.06-2.61c0.04-0.28,0.57-0.74,0.83-0.72c1.03,0.1,1.9,0.01,2.45-1.01c0.69-1.26,1.51-2.56,0.41-3.91
			c-1.11-1.36-2.4-2.56-3.61-3.84c-0.34-0.36-0.81-0.66-0.98-1.09c-0.39-0.99-0.62-2.03-0.92-3.05c-0.2-0.68-0.39-1.36-0.58-2.04
			c0.77-0.08,1.53-0.16,2.29-0.24c1.63-0.17,2.48-1.73,1.6-3.08c-0.31-0.47-0.77-0.92-1.27-1.16c-2.7-1.3-5.34-2.83-8.5-2.79
			c-0.41,0.01-0.85-0.28-1.22-0.52c-2.05-1.38-4.08-2.78-6.11-4.19c-0.41-0.28-0.77-0.63-1.15-0.95c0.44-0.31,0.89-0.63,1.33-0.94
			c1.38-0.94,3-1.6,3.64-3.38c0.13-0.36,0.69-0.81,1.05-0.81c0.93,0,1.87,0.2,2.8,0.37c1.66,0.32,3.35,0.96,4.8-0.51
			c0.6-0.6,0.53-1.14-0.2-1.64c-0.26-0.18-0.53-0.33-0.8-0.47c-0.42-0.95-1.32-0.75-2.02-0.62c-0.01,0-0.02,0-0.03,0
			c-0.33-0.03-0.66-0.04-1.01-0.02c-0.24,0.02-0.49-0.04-0.77-0.06c1.14-0.49,2.18-0.97,3.24-1.38c1.46-0.57,2.99-3.05,3.05-4.39
			c0.06-1.42-1.46-1.96-3.12-2.49c-0.43-0.14-1.06-0.07-1.44,0.16c-2.18,1.3-4.53,2.45-5.46,5.12c-0.59,1.7-1.53,3.3-1.02,5.25
			c0.14,0.55,0.08,1.38-0.25,1.78c-1.43,1.72-3.23,3.18-5.54,2.87c-1.83-0.24-3.6-1.13-5.35-1.85c-1.35-0.55-2.64-1.26-4.14-2
			c0.48-0.31,0.81-0.6,1.21-0.75c0.5-0.18,1.15-0.1,1.55-0.39c0.2-0.14,0.41-0.29,0.62-0.44c0.03,0,0.06,0,0.09-0.01
			c0.45,0.23,0.9,0.49,1.34-0.01c0.12-0.14,0.14-0.33-0.01-0.45c-0.37-0.3-0.5,0.37-0.84,0.23h0c0-0.08,0.01-0.16,0.01-0.24
			c0.35-0.31,0.66-0.66,0.83-1.05c0.03-0.07,0.03-0.16,0.02-0.26c0-0.03,0.01-0.06,0.01-0.09c-0.01-0.07-0.04-0.14-0.09-0.22
			c-0.19-0.5-0.64-1.1-1.04-1.38c-0.85-0.6-1.92-0.97-2.95-1.2c-2.34-0.53-4.15,0.77-5.88,2.06c-0.67,0.5-1.17,1.21-1.75,1.83
			c0.07,0.07,0.14,0.14,0.21,0.21c-0.11,0.11-0.23,0.22-0.34,0.32c-0.18,0.16-0.28,0.28-0.33,0.39c-0.46-0.09-0.92-0.16-1.37-0.12
			c-2.14,0.19-4.34-0.5-6.53-0.66c-3.73-0.27-7.3,0.75-10.88,1.6c-2.37,0.57-4.7,1.32-7.06,1.93c-0.41,0.11-0.9-0.06-1.36-0.11
			c0.55-0.67,1.12-0.94,1.56-1.36c1.37-1.3,2.74-2.62,4.02-4.01c0.76-0.83,1.52-1.28,2.7-1.18c1.02,0.09,2.09,0.06,3.1-0.13
			c1.63-0.3,3.24-0.7,3.97-2.54c0.51-1.29,0.1-2.51-1.26-2.59c-1.18-0.06-2.4,0.29-3.56,0.6c-0.71,0.19-1.35,0.65-2.37,1.17
			c0.31-1.91-0.16-3.24-1.31-4.18c-1.2-0.97-2.48-1.86-3.84-2.59c-1.05-0.57-2.23-0.42-3.09,0.53c-0.87,0.97-1.02,2.22-0.27,3.22
			c0.89,1.19,2.06,2.19,3.17,3.21c0.66,0.61,1.47,1.04,2.14,1.64c0.77,0.7,0.79,1.46,0.05,2.28c-2.61,2.89-5.33,5.67-9.05,7.13
			c-1.29,0.51-2.68,0.81-4.05,1.08c-2.27,0.46-4.56,0.9-6.86,1.19c-1.89,0.23-3.91-0.13-5.7,0.39c-3.52,1.03-6.62-0.1-9.78-1.23
			c-1.22-0.43-1.4-1.08-0.82-2.31c0.08-0.17,0.01-0.4,0.01-0.85c-0.39,0.49-0.61,0.77-0.84,1.05c-1.02,1.21-0.94,2.01,0.49,2.75
			c2.91,1.52,5.99,2.55,9.31,2.11c5.01-0.67,9.99-0.78,14.96,0.14C181.67,24.88,182.57,25.26,183.27,25.78z M184.79,27.87
			c-0.01-0.01-0.03-0.02-0.04-0.04c-0.14-0.14-0.16-0.44-0.14-0.73C184.62,27.32,184.69,27.57,184.79,27.87z M209.23,22.42
			c0.13,0.15,0.28,0.27,0.42,0.38c-0.36-0.16-0.71-0.35-1-0.59c-0.09-0.07-0.17-0.15-0.25-0.23
			C208.67,22.13,208.95,22.28,209.23,22.42z M207.97,19.2C207.97,19.2,207.97,19.2,207.97,19.2C207.97,19.2,207.97,19.2,207.97,19.2
			L207.97,19.2L207.97,19.2C207.97,19.2,207.97,19.2,207.97,19.2C207.97,19.2,207.97,19.2,207.97,19.2L207.97,19.2
			c0.01,0.01,0.01,0.02,0.01,0.02c-0.01-0.01-0.02-0.01-0.04-0.02C207.95,19.2,207.96,19.2,207.97,19.2z M253.76,47
			c0.17,0.29,0.07,0.8-0.14,1.31c-0.04-0.21-0.11-0.42-0.16-0.64c0.04-0.14,0-0.29-0.11-0.46l0,0v0c-0.35-0.82-0.6-1.7-1.29-2.34
			c-0.03-0.21-0.09-0.39-0.16-0.55C252.55,45.2,253.2,46.07,253.76,47z M251.2,43.36c0.11,0.15,0.22,0.3,0.33,0.45
			c-0.17-0.14-0.36-0.24-0.58-0.31C251.03,43.45,251.11,43.41,251.2,43.36z M249.01,42.93L249.01,42.93L249.01,42.93
			c0-0.1-0.02-0.18-0.04-0.27c0.04,0.12,0.09,0.23,0.12,0.35C249.06,42.99,249.03,42.96,249.01,42.93z M250.34,32.28
			c0.49,0.35,0.96,1.07,0.98,1.63c0.02,0.49-0.23,0.67-0.56,0.74c0.04-0.09,0.08-0.18,0.11-0.29c0.2-0.71,0.25-1.34-0.21-1.67
			c-0.38-0.27-0.74-0.59-1.1-0.89C249.82,31.97,250.09,32.11,250.34,32.28z M243.7,29.75c1.03,0.28,2.08,0.52,3.09,0.84
			c-0.74-0.09-1.46-0.08-2.19-0.21c-0.32-0.06-0.72-0.32-0.98-0.17c-0.01-0.01-0.01-0.01-0.02-0.02
			C243.65,30.04,243.67,29.9,243.7,29.75z M244.42,7.86c0.04-0.02,0.1-0.03,0.14-0.05c-0.24,0.16-0.5,0.27-0.74,0.41
			c-0.24,0.14-0.49,0.27-0.74,0.4C243.5,8.35,243.94,8.09,244.42,7.86z M224.56,13.18c-0.29,0.01-0.57,0.01-0.86,0.02
			c-0.92-0.34-1.84-0.56-2.72-0.36C222.02,12.47,223.39,12.63,224.56,13.18z M202.66,9.1c-0.02,0.04-0.04,0.08-0.06,0.12
			c-0.04-0.1-0.08-0.2-0.1-0.3c0-0.02-0.01-0.04-0.01-0.06C202.6,8.97,202.68,9.06,202.66,9.1z M202.13,10.22
			c-0.14,0.22-0.29,0.4-0.48,0.46c-0.25,0.08-0.51,0.14-0.76,0.21C201.29,10.63,201.58,10.17,202.13,10.22z M196.72,11.33
			c0.15,0.09,0.4,0.18,0.73,0.29c-0.31,0.06-0.61,0.12-0.93,0.18C196.57,11.64,196.65,11.49,196.72,11.33z M195.13,6.67
			c0.29,0.52,0.33,1.18,0.46,1.67c-0.04,0.25-0.06,0.49-0.09,0.7c0.02-0.9-0.13-1.72-0.43-2.45C195.09,6.62,195.11,6.64,195.13,6.67
			z"/>
		<path class="st0" d="M226.7,21.97c-0.01-0.01-0.01-0.03-0.02-0.04c0-0.01-0.01-0.01-0.01-0.01c0,0.01-0.01,0.02-0.01,0.04
			C226.67,21.95,226.68,21.96,226.7,21.97z"/>
		<path class="st0" d="M228.96,31.97c-0.99,1.14-1.96,2.32-2.76,3.59c-1.21,1.93-0.31,4.31,1.81,5.01c0.85,0.28,1.75,0.19,2.17-0.7
			c0.63-1.33,1.17-2.71,1.62-4.11c0.2-0.62,0.43-1.09,1.07-0.77c0.74,0.38,1.41,0.5,1.79-0.3c0.33-0.69,0.79-1.68,0.53-2.23
			c-0.49-1.03-1.3-2.11-2.27-2.65c-1.07-0.59-1.75-1.33-2.27-2.34c-0.43-0.83-0.73-1.76-1.27-2.51c-0.78-1.09-1.16-2.57-2.67-3
			c0.94,1.8,1.86,3.62,2.83,5.41C230.15,28.51,229.8,30.99,228.96,31.97z M226.89,37.76c0.05-0.21,0.1-0.43,0.15-0.65
			c0.05,0.09,0.1,0.19,0.17,0.28c-0.08,0.53-0.46,1.1,0.2,1.53c0.13,0.13,0.26,0.26,0.4,0.39
			C227.21,39.06,226.72,38.54,226.89,37.76z M229.37,32.82L229.37,32.82c-0.09,0.56-0.79,0.59-0.96,1.09
			c-0.06,0.04-0.11,0.09-0.16,0.13c0.3-0.46,0.7-0.89,1.15-1.33C229.39,32.75,229.38,32.78,229.37,32.82z"/>
		<path class="st0" d="M264.1,65.05c-0.2-0.5-0.53-0.98-0.78-1.47c-1.41,0-2.83,0-4.24,0c-0.25,0.25-0.48,0.7-0.74,0.71
			c-2.24,0.14-3.82,1.63-5.58,2.7c-0.84,0.51-1.41,1.46-2.1,2.21c0.1,0.09,0.2,0.18,0.3,0.28c0.14-0.12,0.27-0.25,0.41-0.37
			c-0.74,0.82-1.5,1.62-2.32,2.36c-0.27,0.24-0.31,0.59-0.17,0.92c0.05,0.11,0.12,0.2,0.21,0.27c-0.28,0.06-0.57,0.11-0.87,0.18
			c-0.12,0.16-0.43,0.65-0.81,1.08c-0.28,0.31-0.66,0.54-1,0.81c-0.27-0.43-0.66-0.83-0.79-1.3c-0.62-2.3-2.03-3.96-4.06-5.1
			c-1.33-0.74-2.79,0.09-2.99,1.63c-0.25,1.87,0.07,3.53,1.59,4.84c0.36,0.31,0.69,0.66,1.01,1.01c0.32,0.4,0.64,0.8,0.96,1.2v0
			c0.45,0.83,0.69,1.82,1.48,2.4c0.14,0.1,0.3,0.22,0.46,0.32c0.47,1.15,0.63,2.42,0.3,3.89c-0.3,1.32-0.18,2.73-0.3,4.09
			c-0.03,0.39-0.22,0.76-0.33,1.14c-0.39-0.13-0.78-0.34-1.18-0.38c-1.21-0.12-2.5-0.48-3.6-0.17c-1,0.28-1.21,1.52-1.17,2.65
			c0.07,1.83,1.98,4.24,3.86,5.03c0.65,0.28,1.3,0.58,1.87,0.95c0.38,0.34,0.74,0.69,1.07,1.08c0.06,0.07,0.12,0.09,0.18,0.12
			c0.36,0.52,0.6,1.14,0.66,1.94c0.01,0.18,0.18,0.36,0.27,0.54c0.26,0.51,0.51,1.03,0.77,1.54c-0.52-0.16-1.07-0.25-1.56-0.48
			c-0.99-0.46-1.57-0.37-1.84,0.32c-0.35,0.22-0.51,0.64-0.4,1.28c0.05,0.28,0.13,0.54,0.2,0.81c0.03,1.34,0.34,2.56,1.64,3.47
			c0.36,0.25,0.62,0.67,0.9,1.03c1.7,2.11,2.15,4.52,1.43,7.08c-0.97,3.43-2.87,6.39-4.92,9.26c-0.52,0.73-1.21,1.33-1.88,2.06
			c0.14-2.61,0.38-4.95,0.34-7.28c-0.02-1.36-0.38-2.76-0.82-4.06c-0.32-0.94-1.1-1.86-2.23-1.62c-0.74,0.16-1.87,0.86-1.92,1.4
			c-0.18,2.17-0.08,4.38,0.05,6.56c0.08,1.3,0.51,2.57,0.63,3.86c0.03,0.35,0.03,0.71,0.03,1.07c-0.48,1.08-0.21,2.27-0.52,3.37
			c-0.05,0.18-0.02,0.36,0.06,0.52c0,0-0.01,0.01-0.01,0.01c-1.28,1.38-2.55,2.8-4.03,3.94c-2.97,2.3-6.5,3.37-10.12,4.12
			c-0.95,0.2-1.94,0.2-2.92,0.27c1.03-0.57,1.95-1.32,2.79-2.15c0.74-0.74,1.13-1.49,1.23-2.25c0.32-0.83,0.13-1.77-0.15-2.55
			c-0.35-0.99-1.33-1.54-2.56-1.63c-2.18-0.15-3.96,0.61-5.23,2.27c-0.56,0.73-1.07,1.49-1.56,2.27c-1,0.94-1.39,2.24-1.96,3.43
			c-0.61,1.05-0.99,1.21-2.54,1.14c-0.58-0.03-1.16-0.11-1.73-0.22c-4.2-0.79-8.4-1.62-12.71-1.36c-0.34,0.02-0.68-0.06-1.29-0.11
			c0.4-0.54,0.59-0.9,0.88-1.16c0.72-0.63,1.5-1.18,2.22-1.8c1.78-1.55,2.05-4.66,0.56-6.42c-0.2-0.24-0.5-0.57-0.76-0.57
			c-1.32-0.01-2.78-0.27-3.94,0.19c-3.92,1.56-5.69,4.91-6.64,8.8c-0.55,2.26-0.93,4.44-3.17,5.98c-3.29,2.26-5.84,5.33-7.78,8.85
			c-0.1,0.18-0.07,0.48,0.02,0.67c0.05,0.1,0.44,0.15,0.55,0.07c0.4-0.33,0.82-0.68,1.09-1.11c0.43-0.66,0.62-1.49,1.13-2.06
			c3.5-3.96,7.14-7.76,12.61-8.97c0.39-0.09,0.72-0.42,1.1-0.56c0.75-0.27,1.52-0.65,2.3-0.71c4-0.27,7.96,0.2,11.87,1.01
			c1.37,0.28,2.88,0.35,4.07,0.99c0.68,0.37,1.29,0.91,1.86,1.49c0.14,0.35,0.44,0.68,0.78,1.01c0.3,0.29,0.59,0.58,0.89,0.87
			c1.37,1.59,2.69,3.22,4,4.86c-0.03,0.81,0.52,1.24,1.09,1.64c0.27,0.19,0.54,0.35,0.82,0.48c1.54,1.3,3.4,1.66,5.54,1.31
			c2.32-0.39,3.7-3.12,2.31-4.98c-0.88-1.19-2.02-2.31-3.28-3.08c-1.92-1.17-4.02-2.04-6.08-2.96c-0.27-0.12-0.6-0.1-0.94-0.07
			c-0.29-0.18-0.57-0.39-0.83-0.61c0.24-0.12,0.48-0.26,0.72-0.46c0.11-0.09,0.32-0.05,0.49-0.07c1.81-0.22,3.65-0.32,5.43-0.7
			c2.14-0.46,4.4-0.82,6.29-1.83c2.85-1.53,5.42-3.61,8.12-5.42c1.19-0.8,2.35-1.52,3.2-2.82c2.1-3.21,4.54-6.21,6.59-9.46
			c1.26-2,2.24-4.25,2.2-6.74c-0.02-1,0.04-2-0.03-2.99c-0.09-1.19,0.3-2.04,1.3-2.75c1.42-1.02,2.43-2.23,2.19-4.25
			c-0.24-2.01-1-2.52-2.82-1.58c-0.27,0.14-1,0-1.07-0.19c-0.58-1.53-0.98-3.14-0.17-4.68c0.51-0.98,1.3-1.82,1.94-2.73
			c1.57-2.24,2.5-4.57,1.24-7.31c-0.4-0.88-1.02-1.1-1.9-1.03c-1.63,0.14-2.05,1.45-2.61,2.64c-0.26,0.55-0.56,1.08-0.83,1.62
			c-0.14-0.03-0.29-0.05-0.43-0.08c-0.15-0.44-0.42-0.87-0.44-1.31c-0.04-0.95-0.01-1.91,0.12-2.84c0.13-0.93,0.4-1.84,0.62-2.75
			c0.11-0.44,0.27-0.87,0.36-1.31c0.15-0.8,0.23-1.62,0.37-2.43c0.16-0.22,0.19-0.47,0.15-0.73c0.05-0.21,0.09-0.41,0.16-0.61
			c0.6-1.85,1.72-3.54,3.51-4.32c2.45-1.06,5.05-1.83,7.63-2.55c2.04-0.57,3.86-1.45,5.41-2.87c0.01-0.01,0.02-0.02,0.03-0.03
			c0.07-0.04,0.14-0.07,0.21-0.11c0.74-0.4,1.25-0.95,1.19-1.87C264.55,65.67,264.56,65.25,264.1,65.05z M241.78,89.15
			c-0.54-0.38-1.15-0.51-1.71-0.44c0.93-0.32,1.73,0.34,2.49,0.7c0.25,0.12,0.48,0.34,0.72,0.62
			C242.77,89.73,242.25,89.48,241.78,89.15z M194.43,134.83c0.03-0.02,0.05-0.04,0.07-0.05c-0.78,0.78-1.57,1.54-2.41,2.25
			C192.44,135.85,193.52,135.38,194.43,134.83z M211.44,141.22c-0.13,0.1-0.22,0.2-0.31,0.29c-0.11-0.11-0.22-0.22-0.33-0.34
			c0.3-0.12,0.43-0.22,0.52-0.19c0.08,0.02,0.17,0.05,0.25,0.07C211.54,141.11,211.51,141.17,211.44,141.22z M222.17,145.18
			c-0.86-0.29-1.61-0.75-2.33-1.29C220.66,144.25,221.44,144.68,222.17,145.18z M247.06,95.53c0.24-0.09,0.46-0.21,0.66-0.34
			c-0.24,0.32-0.48,0.64-0.71,0.97c-0.12-0.04-0.23-0.08-0.35-0.13C246.69,95.83,246.78,95.64,247.06,95.53z M260.8,65.05
			c-0.02,0-0.04,0-0.05-0.01c0.02,0,0.04,0,0.07,0C260.81,65.05,260.8,65.05,260.8,65.05z M259.07,65.05
			C259.07,65.05,259.06,65.05,259.07,65.05c-0.41,0.08-0.81,0.14-1.21,0.23c-1.07,0.25-1.91,1.25-3.06,1.23
			c2.12-1.23,4.46-1.9,7.07-1.91c0.41,0,0.74,0.11,0.99,0.28C261.59,64.77,260.31,64.61,259.07,65.05z"/>
	</g>
</g>
</svg>
