<?xml version="1.0" encoding="utf-8"?>
<!-- Generator: Adobe Illustrator 24.3.2, SVG Export Plug-In . SVG Version: 6.00 Build 0)  -->
<svg version="1.1" id="Calque_1" xmlns="http://www.w3.org/2000/svg" xmlns:xlink="http://www.w3.org/1999/xlink" x="0px" y="0px"
	 viewBox="0 0 179.57 160.13" style="enable-background:new 0 0 179.57 160.13;" xml:space="preserve">
<style type="text/css">
	.st0{fill:#97928F;stroke:#97928F;stroke-miterlimit:10;}
</style>
<g>
	<path class="st0" d="M177.71,65.52c-0.66-3.29-1.66-6.75-3.1-10.26c-1.47-3.5-3.35-7.06-5.77-10.48c-1.07-1.54-2.25-3.06-3.51-4.55
		c-0.12-0.24-0.24-0.48-0.36-0.73c-0.43-0.79-0.87-1.58-1.3-2.37c-1.79-3.15-3.75-6.28-6.02-9.24l-0.84-1.13l-0.89-1.09
		c-0.61-0.72-1.19-1.46-1.82-2.17c-0.64-0.7-1.28-1.4-1.93-2.1c-0.63-0.71-1.36-1.35-2.03-2.03c-2.77-2.66-5.77-5.17-9.09-7.3
		c-0.41-0.27-0.81-0.56-1.23-0.82l-1.28-0.75c-0.86-0.49-1.7-1.03-2.59-1.47c-1.76-0.93-3.59-1.76-5.46-2.52
		c-7.47-3.03-15.6-4.71-23.89-5.54c-4.15-0.39-8.36-0.6-12.6-0.43c-2.12,0.06-4.24,0.26-6.36,0.51c-2.11,0.3-4.23,0.63-6.31,1.16
		c-0.53,0.11-1.04,0.25-1.56,0.4c-0.52,0.15-1.04,0.28-1.55,0.44c-1.02,0.35-2.06,0.65-3.06,1.07c-2.03,0.75-3.98,1.71-5.89,2.75
		c-3.79,2.13-7.26,4.85-10.39,7.9c-1.32,1.29-2.58,2.65-3.8,4.04c-3.02,2.08-5.75,4.29-8.18,6.56c-7.06,6.58-11.6,13.54-14.28,19.35
		c-1.33,2.92-2.16,5.58-2.73,7.82c-0.24,1.13-0.44,2.15-0.59,3.05c-0.1,0.91-0.18,1.7-0.25,2.37c-0.06,2.68-0.05,3.35-0.02,1.76
		c0.01-0.4,0.02-0.94,0.03-1.62c0.07-0.68,0.16-1.51,0.27-2.48c0.34-1.93,0.81-4.47,1.95-7.46c1.2-3.26,2.77-6.37,4.58-9.34
		c1.85-2.94,3.95-5.71,6.21-8.34c2.3-2.6,4.8-5.01,7.42-7.27c0.66-0.56,1.35-1.08,2.03-1.63l1.02-0.81l1.05-0.76l1.14-0.81
		c-1.54,1.79-3.01,3.65-4.41,5.57c-2.59,3.56-4.96,7.29-7.09,11.17c-0.83,1.51-1.61,3.06-2.36,4.62c-0.11,0.16-0.23,0.31-0.34,0.47
		c-3.48,5.04-6.7,10.65-9.33,16.81c-2.64,6.15-4.75,12.85-5.92,19.97c-1.18,7.11-1.42,14.63-0.39,22.21
		c1.02,7.57,3.26,15.22,6.96,22.34c1.84,3.56,4.07,6.97,6.63,10.16c0.3,0.42,0.64,0.8,0.98,1.18l1.02,1.15l1.02,1.16
		c0.34,0.39,0.72,0.73,1.08,1.1c0.73,0.72,1.47,1.45,2.21,2.18c0.78,0.68,1.57,1.36,2.35,2.04c3.21,2.64,6.61,5.12,10.3,7.18
		c3.67,2.08,7.5,3.95,11.52,5.42c15.99,6.01,34.21,7.45,51.38,3.28c2.16-0.47,4.25-1.18,6.37-1.8c1.71-0.64,3.43-1.23,5.11-1.95
		c3.36-1.17,6.57-2.62,9.59-4.29c6.32-3.51,11.82-7.95,16.43-12.82c4.63-4.87,8.29-10.25,11.2-15.64
		c2.88-5.42,5.01-10.89,6.51-16.17c1.53-5.28,2.43-10.38,2.97-15.13C179.58,79.91,179,71.74,177.71,65.52z M60.7,13.49
		c2.38-2.16,4.96-4.11,7.73-5.78c2.78-1.64,5.75-2.99,8.83-4.02c6.18-2.06,12.75-2.88,19.31-2.92c6.57-0.03,13.17,0.65,19.68,1.87
		c3.25,0.64,6.48,1.45,9.64,2.47c3.16,1.04,6.27,2.27,9.24,3.78c5.97,3,11.37,7.11,16.11,11.87c2.33,2.42,4.57,4.95,6.55,7.67
		c1.04,1.33,1.95,2.75,2.9,4.14c0.48,0.69,0.89,1.43,1.34,2.15c0.43,0.73,0.9,1.43,1.29,2.18c0.5,0.88,0.97,1.77,1.44,2.66
		c-3.45-3.96-7.57-7.67-12.24-10.97c-4.93-5.27-10.6-9.67-16.62-13.07c-6.66-3.82-13.85-6.1-20.87-7.71
		C108,6.24,100.98,5.64,94.26,5.89c-6.71,0.26-13.12,1.39-19,3.19c-5.88,1.79-11.24,4.24-15.99,7.05c-1.1,0.65-2.16,1.32-3.19,2.01
		C57.55,16.52,59.08,14.96,60.7,13.49z M48.37,28.12c2.27-3.34,4.71-6.6,7.42-9.64l2.1-1.33C69.61,9.79,83.42,5.92,97.14,6.02
		c6.86,0.01,13.69,0.94,20.3,2.61l2.48,0.63l2.44,0.76l2.44,0.76c0.81,0.27,1.6,0.59,2.39,0.88c3.16,1.24,6.25,2.67,9.18,4.38
		c5.62,3.24,10.74,7.28,15.21,11.91c-0.81-0.56-1.64-1.1-2.49-1.63c-8.23-5.18-17.91-9.04-28.28-11.73
		c-5.19-1.32-10.56-2.44-16.09-3.1c-5.52-0.68-11.2-0.87-16.9-0.38c-0.3,0.03-0.65,0.07-0.95,0.1c-3.15,0.33-6.73,0.94-10.59,2.08
		c-3.85,1.15-7.97,2.84-12.11,5.25c-4.13,2.42-8.32,5.5-12.31,9.27c-2,1.88-3.94,3.94-5.86,6.14c-1.37,1.62-2.72,3.31-4.02,5.08
		C43.87,35.29,46.03,31.65,48.37,28.12z M123.23,156.12c-5.82,1.65-11.77,2.62-17.69,2.98c-11.85,0.71-23.59-1.01-34.32-4.73
		c-10.73-3.73-20.49-9.58-28.09-17.27c-0.47-0.48-0.98-0.93-1.41-1.44l-1.33-1.51c-0.44-0.51-0.9-1-1.32-1.52l-1.21-1.59l-1.21-1.59
		l-1.11-1.64l-0.55-0.82l-0.51-0.85c-0.34-0.57-0.69-1.12-1.02-1.69c-2.58-4.57-4.6-9.37-6-14.28c-1.44-4.89-2.24-9.87-2.61-14.79
		c-0.34-4.92-0.15-9.79,0.43-14.52c0.62-4.72,1.64-9.31,2.97-13.7c1.35-4.39,3.02-8.58,4.92-12.55c1.89-3.98,4.04-7.73,6.36-11.25
		c0.05-0.07,0.1-0.14,0.15-0.22c-2.52,5.64-4.52,11.54-5.86,17.59c-0.95,4.33-1.57,8.75-1.8,13.18c-0.23,4.43-0.06,8.87,0.44,13.27
		c1.03,8.79,3.35,17.36,6.58,25.47c3.24,8.09,7.63,15.77,13.57,21.99c5.93,6.24,13.25,10.83,20.83,14.24
		c3.81,1.68,7.7,3.11,11.62,4.26c3.92,1.16,7.88,2.08,11.84,2.74c7.91,1.3,15.86,1.52,23.45,0.42c2.2-0.32,4.37-0.76,6.49-1.3
		C125.64,155.39,124.44,155.77,123.23,156.12z M132.12,152.95l-0.87,0.29c-0.58,0.19-1.16,0.38-1.74,0.58
		c-2.36,0.67-4.75,1.31-7.21,1.72c-4.91,0.9-10.01,1.16-15.15,0.98c-2.57-0.13-5.16-0.32-7.75-0.7c-1.3-0.15-2.59-0.4-3.89-0.61
		c-1.29-0.26-2.6-0.48-3.88-0.8c-5.17-1.17-10.34-2.74-15.39-4.8c-5.04-2.06-9.99-4.58-14.57-7.79c-4.58-3.19-8.8-7.04-12.31-11.56
		c-3.54-4.5-6.4-9.58-8.77-14.91c-2.35-5.35-4.25-10.97-5.69-16.75c-1.42-5.79-2.35-11.77-2.57-17.83
		c-0.02-0.76-0.05-1.52-0.05-2.28l-0.01-1.14l0.03-1.14l0.07-2.29l0.17-2.29l0.09-1.15l0.13-1.14l0.27-2.29l0.37-2.28
		c0.12-0.76,0.25-1.52,0.41-2.27l0.47-2.27c0.17-0.75,0.37-1.5,0.56-2.25c0.35-1.51,0.83-2.99,1.26-4.48
		c0.96-2.96,1.99-5.91,3.25-8.78c0.44-1.05,0.91-2.09,1.39-3.12c1.97-2.85,4.06-5.55,6.26-8.06c5.3-6.03,11.22-10.99,17.44-14.6
		c6.23-3.6,12.73-5.79,18.95-6.79c3.91-0.63,8.07-0.91,12.39-0.84c4.32,0.1,8.81,0.53,13.41,1.29c4.59,0.76,9.3,1.81,14.06,3.13
		c4.76,1.35,9.58,2.98,14.34,5.07c4.76,2.08,9.47,4.6,13.93,7.67c0.55,0.38,1.1,0.76,1.64,1.16c4.18,4.63,7.73,9.79,10.5,15.31
		c2.96,5.96,5.09,12.31,6.29,18.79c1.23,6.48,1.72,13.06,1.53,19.58c-0.19,6.52-0.91,12.99-2.19,19.31
		c-1.24,6.32-2.91,12.54-5.29,18.43c-1.19,2.94-2.59,5.79-4.18,8.51c-0.42,0.67-0.81,1.35-1.25,2l-0.65,0.98l-0.7,0.94
		c-0.96,1.24-1.83,2.55-2.91,3.68c-4.09,4.73-8.98,8.67-14.27,11.81c-2.43,1.44-4.95,2.71-7.52,3.82L132.12,152.95z M177.89,90.73
		c-0.91,7.27-2.72,14.88-5.8,22.44c-3.1,7.54-7.48,15.04-13.46,21.68c-5.27,5.86-11.75,11.1-19.28,14.95
		c1.73-1.04,3.48-2.05,5.09-3.27c0.91-0.64,1.82-1.26,2.66-1.99c0.85-0.71,1.72-1.39,2.56-2.12l2.4-2.3l0.6-0.58l0.55-0.62l1.1-1.24
		l1.1-1.24c0.36-0.42,0.67-0.88,1.01-1.32c0.65-0.89,1.34-1.76,1.97-2.67c1.24-1.83,2.36-3.74,3.37-5.71
		c4.05-7.87,6.39-16.44,8.03-24.99c1.57-8.57,2.35-17.25,1.9-25.8c-0.38-8.55-2.04-16.94-4.96-24.74c-1.52-3.88-3.32-7.61-5.44-11.1
		c-2.11-3.48-4.51-6.73-7.13-9.74c3.49,2.63,6.8,5.61,9.78,8.96c0.63,0.7,1.24,1.43,1.84,2.17c2.23,4.51,4.12,9.2,5.62,14.03
		c2.06,6.46,3.46,13.15,4.21,19.91c0.75,6.76,0.75,13.62-0.08,20.39c-0.42,3.38-1.04,6.74-1.9,10.05c-0.87,3.3-1.97,6.54-3.29,9.69
		c-2.64,6.29-6.17,12.23-10.6,17.44c-0.26,0.31-0.51,0.6-0.75,0.89c-0.26,0.28-0.51,0.55-0.75,0.82c-0.49,0.52-0.93,1.04-1.39,1.49
		c-0.92,0.89-1.69,1.72-2.44,2.36c-1.43,1.33-2.5,2.17-3.11,2.66c-1.21,0.99-0.66,0.55,1.45-1.16c2.05-1.77,5.62-4.94,9.49-10.13
		c3.85-5.17,8.02-12.39,10.81-21.68c2.79-9.26,4.03-20.56,2.7-32.85c-0.65-6.14-1.93-12.52-3.89-18.97c-0.25-0.8-0.5-1.61-0.75-2.43
		c-0.27-0.81-0.56-1.61-0.85-2.42c-0.54-1.63-1.24-3.22-1.87-4.86c-0.35-0.8-0.71-1.6-1.07-2.41l-0.54-1.21l-0.47-0.95
		c2.73,3.44,5.14,7.21,7.01,11.28c2.43,5.2,3.95,10.88,4.7,16.68C178.84,76.5,178.8,83.46,177.89,90.73z"/>
	<g>
		<path class="st0" d="M43.45,68.61c-0.07-1.48-0.3-2.95-0.64-4.39c-0.7-2.99-1.84-5.86-2.97-8.72c-0.06-0.16-0.15-0.34-0.32-0.38
			c-0.13-0.02-0.26,0.05-0.37,0.12c-4.07,2.7-9.24,6.22-10.78,11.08c-1.56,4.95-1.82,10.29-0.71,15.36c-1.77-2.8-4.5-4.98-7.62-6.1
			c-2.91-1.04-6.09-1.16-9.17-0.83c-3.3,0.36-6.35,1.6-9.58,2.13c-2.03,0.34,0.45,2.96,0.97,3.7c1.63,2.35,3.13,4.91,5.12,6.97
			c0.49,0.44,1.08,0.74,1.67,1.03c4.65,2.25,9.87,3.44,15.01,2.95c2.59-0.25,5.43-0.85,7.6,0.59c0.35,0.23,0.99,0.86,1.45,0.81
			c1.3-0.14-0.55-2.06-0.76-2.51c-0.26-0.57-1.71-1.01-1.97-1.58c-0.3-0.63,0.42-1.24,0.9-1.99c0.36-0.57,1.97-1.21,2.57-1.62
			c4.31-2.95,8.05-6.58,9.23-11.87C43.42,71.8,43.53,70.21,43.45,68.61z"/>
	</g>
</g>
</svg>
