<?xml version="1.0" encoding="utf-8"?>
<!-- Generator: Adobe Illustrator 24.3.2, SVG Export Plug-In . SVG Version: 6.00 Build 0)  -->
<svg version="1.1" xmlns="http://www.w3.org/2000/svg" xmlns:xlink="http://www.w3.org/1999/xlink" x="0px" y="0px"
	 viewBox="0 0 263.51 179.83" style="enable-background:new 0 0 263.51 179.83;" xml:space="preserve">
<style type="text/css">
	.st0{fill:#FFFFFF;}
	.st1{fill:#DDCB88;}
</style>
<g id="Calque_2">
	<path class="st0" d="M47.3,1.32c0,0,4.99,0.76,14,1c7.65,0.2,10.3-1.29,18-2c8.65-0.8,14.42,0.23,21,1c16.32,1.91,31.88,1.27,63,0
		c13.83-0.56,16.64-1.08,27-1c13.57,0.1,31,2,31,2s1.88,50.68,1,93c-0.74,35.33-3,79-3,79s-8.26,0.15-51,1
		c-29.91,0.6-42.54,3.45-73,4c-34.8,0.63-50-4-50-4l1-138L47.3,1.32z"/>
</g>
<g id="Calque_1">
	<g>
		<g>
			<path class="st1" d="M46.35,1.09c1.05-0.26,2.01-0.26,2.96-0.27C55.77,0.75,62.23,1.1,68.67,0.6c6.37-0.49,12.74-0.46,19.12-0.53
				c3.97-0.04,7.9,0.36,11.84,0.63c6.71,0.45,13.43,0.26,20.14,0.27c10.37,0.02,20.75,0.08,31.11-0.09
				c11.64-0.19,23.29,0.2,34.91-0.43c7.91-0.43,15.81-0.4,23.72-0.46c3.27-0.02,6.44,0.72,9.66,1.02c0.99,0.09,1.45,0.67,1.64,1.55
				c0.09,0.4,0.13,0.81,0.16,1.22c0.62,7.41,0.66,14.83,0.57,22.25c-0.09,7.02,0.7,14,0.93,21.01c0.32,9.84,0.7,19.68,0.56,29.54
				c0,0.26-0.02,0.53-0.08,0.78c-0.06,0.27-0.24,0.48-0.56,0.44c-0.26-0.03-0.38-0.23-0.4-0.47c-0.02-0.3-0.01-0.6-0.02-0.89
				c-0.02-5.6,0.1-11.2-0.1-16.79c-0.24-6.75-0.21-13.52-0.79-20.23c-0.73-8.58-0.27-17.15-0.47-25.72
				c-0.08-3.43-0.57-6.84-0.36-10.28c0.06-1.03-0.54-1.26-1.43-1.42c-9-1.57-18.06-1.12-27.12-0.79
				c-10.18,0.37-20.35,0.62-30.54,0.68c-18.17,0.12-36.34,0.1-54.51,0.14c-4.23,0.01-8.41-0.54-12.62-0.72
				C84.7,0.9,75.35,1.08,66,1.7c-3.54,0.23-7.09,0.1-10.63,0.05c-2.72-0.04-5.44-0.21-8.16-0.32C46.96,1.41,46.68,1.48,46.35,1.09z"
				/>
			<path class="st1" d="M45.52,106.05c0.39,0.98,0.46,1.97,0.48,2.95c0.31,10.93,0.42,21.85,0.41,32.79c-0.01,10.97,0,21.94,0,32.9
				c0,1.79,0.08,1.93,1.8,1.83c4.62-0.27,9.13,0.57,13.68,1.14c6.11,0.77,12.26,1.07,18.42,1.11c7.28,0.05,14.54-0.25,21.8-0.69
				c6.59-0.4,13.19-0.41,19.79-0.8c8.41-0.49,16.82-1.11,25.23-1.61c7.16-0.43,14.32-0.32,21.48-0.35c0.41,0,1.1-0.19,1.12,0.38
				c0.02,0.62-0.68,0.57-1.15,0.56c-5.52-0.06-11.04,0.1-16.56,0.24c-7.65,0.19-15.27,0.87-22.89,1.38
				c-11.24,0.74-22.51,0.87-33.76,1.57c-7.5,0.47-14.99,0.51-22.48,0.18c-6.22-0.28-12.4-1.02-18.56-1.98
				c-2.25-0.35-4.54-0.07-6.82-0.08c-1.91-0.01-2.07-0.14-2.07-2.01c-0.02-18.02-0.02-36.04-0.05-54.06
				c-0.01-4.81-0.07-9.62-0.1-14.43C45.29,106.74,45.17,106.39,45.52,106.05z"/>
			<path class="st1" d="M45.8,4.84c0.38,0.48,0.29,0.86,0.29,1.22c0.03,5.03,0.16,10.07,0.04,15.1c-0.1,4.06-0.57,8.1-0.55,12.17
				c0,0.33,0.02,0.8-0.43,0.77c-0.63-0.05-0.53-0.63-0.5-1.06c0.14-2.6,0.2-5.22,0.48-7.81c0.47-4.35,0.32-8.71,0.37-13.07
				C45.53,9.77,45.58,7.39,45.8,4.84z"/>
			<path class="st1" d="M220.13,166.31c0,2.42,0,4.85,0,7.27c0,0.44,0.04,0.9-0.25,1.29c-0.17,0.23-0.41,0.33-0.69,0.27
				c-0.28-0.07-0.25-0.29-0.23-0.53c0.39-4.8,0.03-9.61,0.25-14.41c0.02-0.52-0.01-1.05,0.04-1.56c0.03-0.37-0.12-0.98,0.45-0.96
				c0.46,0.01,0.36,0.57,0.37,0.92c0.03,1.49,0.04,2.98,0.05,4.47c0.01,1.08,0,2.16,0,3.24
				C220.12,166.31,220.13,166.31,220.13,166.31z"/>
		</g>
		<g>
			<path class="st1" d="M219.28,174.59c-1.78-1.21-3.54-2.46-5.42-3.5c-1.15-0.64-2-1.72-3.58-1.78c-2.13-0.08-4.24-0.65-6.36-0.93
				c-0.46-0.06-0.75-0.13-0.92-0.27c0.39-0.1,0.65-0.31,0.34-0.83c-0.1-0.16-0.17-0.33-0.23-0.5c0.6-1.68,0.53-3.32-0.35-4.92
				c-0.41-0.75-0.84-1.49-1.27-2.24c-1.61-2.78-4.06-4.36-7.17-5.02c-0.82-0.17-1.42-0.04-1.4,0.92c-0.15,0.33-0.21,0.67-0.12,1.04
				c0,0,0,0,0,0c0.07,0.3,0.15,0.6,0.22,0.9c0.05,0.77,0.11,1.54,0.23,2.31c0.35,2.26,1.98,3.78,3.32,5.46
				c0.33,0.41,0.67,0.53,1.05,0.42c0.79,0.71,1.53,1.48,2.26,2.26c-0.33,0.01-0.65,0.03-0.96,0.05c-0.4,0.03-0.8,0.16-1.2,0.16
				c-2.89,0.02-5.79,0.03-8.68,0.01c-0.79,0-1.71,0.14-2.34-0.2c-1.08-0.57-2.07-1.29-3.03-1.97c0.05-0.51-0.13-1.07-0.59-1.28
				c-0.51-0.23-0.92-0.57-1.31-0.94c-0.9-0.97-1.8-1.94-2.69-2.91c-0.04,0.04-0.08,0.08-0.12,0.11c-0.2-0.12-0.42-0.2-0.65-0.25
				c-0.01-0.26-0.21-0.47-0.64-0.65c-1.71-0.72-3.45-0.5-5.13,0.15c-0.58,0.23-0.64,0.7-0.32,1.29c0.06,0.12,0.13,0.24,0.19,0.36
				c0.03,0.23,0.16,0.47,0.33,0.74c0.19,0.28,0.39,0.56,0.59,0.83c0.28,0.43,0.57,0.84,0.9,1.22c0.19,0.73,0.73,1.03,1.3,1.29
				c0.36,0.29,0.74,0.57,1.17,0.8c0.33,0.18,0.54,0.56,0.96,1.02c-2.64,1.11-4.03,3.26-5.73,5.05c-0.84,0.89-0.76,1.54,0.32,2.09
				c0.74,0.37,1.48,0.77,2.24,1.1c0.09,0.39,0.41,0.61,0.75,0.63c0.62,0.04,1.25,0.12,1.88,0.13c0.01,0,0.02,0,0.03,0
				c0.19,0,0.38-0.01,0.57-0.02c0.65-0.04,1.32-0.16,1.96-0.26c0.68-0.11,1.31-0.52,1.97-0.76c2.6-0.95,4.37-2.6,4.93-5.43
				c0.09-0.44,0.7-1.05,1.12-1.09c1.37-0.15,2.75-0.08,4.13-0.06c0.24,0,0.48,0.16,0.88,0.3c-0.3,0.23-0.4,0.34-0.53,0.39
				c-2.02,0.73-3.07,2.31-3.67,4.19c-0.02,0.02-0.04,0.04-0.06,0.06c-0.6,0.66-1.14,1.46-0.89,2.4c0.1,0.38,0.35,0.72,0.67,1.01
				c0.14,0.92,0.81,1.72,1.85,1.25c0.18-0.08,0.36-0.16,0.54-0.25c0.73,0.07,1.43-0.05,1.9-0.44c0.64-0.52,1.21-1.1,1.77-1.7
				c0.05-0.04,0.1-0.07,0.15-0.12c0.55-0.5,1.02-1.06,1.45-1.66c0.48-0.54,0.95-1.08,1.46-1.59c0.66-0.67,1.01-1.35,0.79-2.28
				c0.02-0.17,0.02-0.33,0-0.49c0.24-0.34,0.66-0.65,1.03-0.83c1.76-0.87,3.59-0.29,5.4-0.16c1.43,0.11,2.51,1.22,4.11,1.18
				c1.39-0.03,2.9,0.62,4.19,1.29c2.03,1.05,3.91,2.38,5.87,3.56c0.26,0.15,0.62,0.13,0.94,0.19
				C219.57,175.14,219.5,174.74,219.28,174.59z M193.47,157.21C193.47,157.21,193.47,157.21,193.47,157.21
				c-0.01-0.02-0.01-0.03-0.01-0.05C193.54,157.15,193.46,157.33,193.47,157.21z M173.2,161c0-0.05-0.01-0.09-0.01-0.14
				c-0.01-0.08,0.11-0.18,0.21-0.34c0.09,0.07,0.16,0.12,0.24,0.19C173.5,160.84,173.36,160.95,173.2,161z M174.69,160.6
				c-0.05-0.04-0.1-0.07-0.15-0.09c0.33-0.3,0.62-0.37,1.17-0.14C175.37,160.39,175.03,160.49,174.69,160.6z M176.58,173.58
				c0-0.04,0-0.07,0-0.11c0.04,0.04,0.06,0.07,0.11,0.11C176.66,173.58,176.62,173.58,176.58,173.58z M182.72,174.34
				c0.02-0.02,0.04-0.05,0.07-0.07l0.06,0C182.81,174.3,182.76,174.32,182.72,174.34z M184.68,172.58c0.03-0.09,0.08-0.16,0.1-0.26
				c0.26-0.52,0.54-1.03,0.77-1.56C185.4,171.44,185.09,172.04,184.68,172.58z M185.63,168.44c-0.09-0.17-0.21-0.33-0.36-0.48
				c0.2,0.09,0.39,0.19,0.54,0.31C185.75,168.34,185.69,168.38,185.63,168.44z M202.44,164.62c-0.07-0.17-0.14-0.34-0.21-0.51l0,0
				c0.02-0.41-0.01-0.79-0.05-1.17c0.17,0.51,0.32,1.04,0.41,1.58c0.04,0.22,0.04,0.45,0.03,0.68
				C202.58,165,202.52,164.81,202.44,164.62z"/>
			<path class="st1" d="M211.7,168.4c0.83-0.01,1.45-0.86,1.44-2.01c0-1.01-0.82-2.12-1.57-2.14c-0.83-0.03-1.45,0.92-1.49,2.25
				C210.06,167.47,210.85,168.4,211.7,168.4z M211.34,164.98c0.9,0.36,1.07,1.05,1.04,1.81c-0.01,0.18-0.16,0.46-0.31,0.51
				c-0.14,0.06-0.45-0.06-0.55-0.2C211.02,166.48,210.65,165.81,211.34,164.98z"/>
			<path class="st1" d="M205.99,170.02c-2.84,0.79-3.61,1.5-3.01,2.57c0.37-0.33,0.71-0.73,1.13-0.97c0.28-0.16,0.7-0.17,1.04-0.13
				c0.1,0.01,0.27,0.54,0.18,0.66c-0.22,0.3-0.54,0.58-0.89,0.73c-0.34,0.15-0.75,0.12-1.33,0.2c1.03,0.88,1.75,0.36,2.44-0.1
				C206.79,172.14,205.74,171.1,205.99,170.02z"/>
		</g>
		<g>
			<path class="st1" d="M53.74,44.44c0.01-0.01,0.01-0.01,0.02-0.02l0,0C53.76,44.42,53.74,44.44,53.74,44.44z"/>
			<path class="st1" d="M72.77,46.87c-0.41-0.36-1.13-0.42-1.73-0.5c-2.26-0.31-4.33,0.18-6.19,1.72c0.03,0.01,0.06,0.02,0.09,0.04
				c-0.28,0.1-0.54,0.23-0.75,0.45c-0.08-0.09-0.15-0.19-0.23-0.28c-0.8,0.67-1.6,1.34-2.41,2.02c0.03,0.04,0.06,0.07,0.09,0.11
				c-0.29,0.23-0.58,0.45-0.88,0.67c-0.21,0.16-0.33,0.32-0.4,0.51c-0.01,0.01-0.03,0.02-0.04,0.03c-1.6,1.63-3.54,2.69-5.72,3.31
				c-0.34,0.1-0.85,0.05-1.11-0.15c-0.16-0.12-0.05-0.67,0.02-1.01c0.12-0.62,0.38-1.22,0.42-1.84c0.09-1.41,0.87-2.25,2.06-2.81
				c2.83-1.34,3.52-4.15,4.57-6.7c0.08-0.19-0.2-0.68-0.42-0.78c-0.21-0.1-0.77,0.07-0.82,0.23c-0.15,0.48-0.12,1.01-0.17,1.52
				c-0.04,0.35-0.04,0.72-0.17,1.03c-0.05,0.11-0.44,0.12-0.67,0.11c-0.38-0.02-0.76-0.1-1.15-0.15c-0.05,0.46-0.27,0.99-0.11,1.36
				c0.27,0.65,0.68,1.23-0.05,1.77c-0.56,0.41-1.16,0.82-1.8,1.05c-0.27,0.1-0.81-0.18-1.03-0.45c-0.13-0.16,0.07-0.66,0.21-0.96
				c0.42-0.86,0.95-1.68,1.32-2.56c0.34-0.81,0.55-1.68,0.76-2.54c0.08-0.34,0.16-0.86-0.02-1.05c-0.23-0.24-0.84-0.42-1.07-0.27
				c-0.29,0.18-0.6,0.83-0.48,1.08c0.64,1.37-0.36,1.92-1.15,2.6c0.06,0.71,1.05,1.33,0.22,2.14c-0.91,0.89-1.73,1.83-1.66,3.31
				c-0.48-0.65-0.74-1.35-1.09-2c-0.28-0.52-0.57-1.16-1.04-1.44c-0.65-0.38-0.86-0.83-0.91-1.51c-0.05-0.72,0.39-0.88,0.91-1.19
				c0.44-0.26,0.9-0.9,0.89-1.37C51.08,42,50.32,41.3,50,41.35c-0.52,0.1-1.17,0.6-1.37,1.09c-0.26,0.61-0.13,1.38-0.14,2.08
				c-0.01,0.34,0.03,0.68,0.07,1.34c-0.78-0.5-1.3-0.82-1.81-1.17c-0.93-0.64-1.65-1.35-1.88-2.61c-0.26-1.4,0.44-1.95,1.41-2.63
				c0.37-0.26,0.29-1.16,0.42-1.77c-0.59-0.08-1.25-0.37-1.76-0.21c-0.83,0.27-0.72,1.05-0.6,1.8c0.11,0.66,0.02,1.36,0.02,2.04
				c-0.16,0.02-0.32,0.03-0.47,0.05c-0.18-0.49-0.26-1.06-0.57-1.46c-0.31-0.4-0.81-0.78-1.28-0.87c-0.22-0.04-0.83,0.67-0.8,0.99
				c0.05,0.45,0.47,0.91,0.84,1.26c0.36,0.35,0.94,0.48,1.26,0.85c1.45,1.63,2.85,3.3,4.79,4.4c0.24,0.14,0.36,0.49,0.54,0.74
				c-0.05,0.12-0.09,0.24-0.14,0.37c-1.3-0.14-2.59-0.28-3.89-0.44c-0.1-0.01-0.26-0.22-0.24-0.31c0.02-0.15,0.13-0.35,0.26-0.42
				c0.2-0.1,0.45-0.1,0.81-0.17c-0.2-0.26-0.3-0.5-0.42-0.51c-0.35-0.01-0.86-0.06-1.01,0.13c-0.24,0.31-0.43,0.9-0.28,1.2
				c0.21,0.44,0.73,1,1.14,1.02c1.44,0.06,2.9-0.13,4.34-0.12c0.42,0,0.99,0.24,1.24,0.56c0.65,0.85,1.12,1.84,1.75,2.72
				c0.73,1.03,0.84,2.03,0.21,3.13c-0.22,0.39-0.41,0.79-0.57,1.21c-0.28,0.7-0.69,0.72-1.19,0.25c-0.67-0.63-0.94-1.37-0.76-2.3
				c0.01,0,0.01,0,0.02,0c0.28-0.03,0.76,0.09,0.64-0.54c-0.19-0.96-1.66-1.8-2.57-1.48c-0.45,0.15-0.67,0.51-0.64,0.94
				c0.01,0.2,0.07,0.39,0.18,0.54c-0.07,0.12-0.14,0.23-0.18,0.31c0.96,1.03,1.79,1.99,2.71,2.88c0.63,0.61,0.82,1.3,0.45,2.02
				c-0.84,1.64-1.78,3.23-2.72,4.91c-0.23-0.18-0.42-0.26-0.5-0.4c-0.78-1.35-1.97-2.21-3.35-2.84c-1.39-0.63-2.8-1.21-4.15-1.91
				c-1.32-0.68-2.62-1.41-3.84-2.26c-0.83-0.58-0.7-1.04,0.08-1.66c0.6-0.48,1.27-0.98,1.65-1.62c0.45-0.75,0.91-1.49,1.33-2.26
				c0.29-0.25,0.59-0.49,0.93-0.68c0.37-0.21,0.44-0.67,0.38-1.1c0.23-0.8,0.25-1.6,0.07-2.4c0.07-0.77,0.05-1.5-0.07-2.2
				c0-0.77-0.16-1.52-0.35-2.23c-0.34-1.28-0.75-2.66-2.35-3.04c-0.1-0.07-0.2-0.15-0.29-0.22c-1.53-1.48-3.49-2.38-5.43-3.26
				c-0.34-0.22-0.67-0.34-0.98-0.35c-1.51-0.37-2.42,0.38-2.71,2.17c-0.24,1.45-0.43,2.9-0.63,4.36c-0.08,0.59-0.29,1.19-0.21,1.76
				c0.43,3.25,1.57,6.25,3.4,8.97c0.29,0.43,0.61,0.91,1.04,1.14c1.35,0.7,2.58,1.45,3.25,2.91c0.15,0.34,0.57,0.6,0.93,0.78
				c1.84,0.96,3.71,1.87,5.56,2.83c1.35,0.7,2.85,1.24,3.97,2.22c1.65,1.45,1.99,2.4,0.86,4.37c-0.84,1.47-1.46,3.05-2.15,4.6
				c-0.45,1-0.85,2.01-1.36,3.21c-0.59-0.82-1.09-1.53-1.26-2.33c0.03-0.07,0.06-0.15,0.08-0.23l0,0c0.29-0.45,0.19-0.85-0.01-1.24
				c0.2-0.94-0.19-1.75-0.96-2.29c-0.78-0.55-1.62-1.19-2.52-1.35c-0.24-0.04-0.49-0.06-0.75-0.07c-0.54-0.09-1.09-0.06-1.57,0.26
				c-0.17,0.06-0.34,0.12-0.49,0.2c-0.81,0.44-0.78,2.99-0.22,3.81c0.74,1.07,1.73,1.41,2.81,1.5c0.53,0.16,1.07,0.31,1.62,0.41
				c0.54,0.1,0.97,0.05,1.31-0.14c0.53,0.31,0.79,0.88,0.75,1.79c-0.06,1.62-0.35,3.23-0.62,4.84c-0.26,1.53-0.74,3.03-0.93,4.57
				c-0.14,1.13,0.06,2.3,0.07,3.45c0,0.25-0.19,0.51-0.29,0.76c-0.25-0.11-0.53-0.18-0.75-0.34c-1.21-0.91-2.4-1.87-3.62-2.77
				c-2.27-1.68-2.91-2.01-2.92-3.31c0.06-0.07,0.11-0.13,0.16-0.19c0.63-0.89,1.05-1.83,0.94-3c-0.1-0.99-0.47-1.9-0.79-2.82
				c-0.19-1.56-0.68-3.06-1.63-4.44c-1.44-2.09-2.98-4.13-5.49-4.49c-0.29-0.13-0.56-0.14-0.83-0.05c-0.39,0-0.79,0.04-1.22,0.12
				c-0.07,0.01-0.15-0.01-0.22-0.02c-2.37-0.19-4.32,1.86-3.79,4.18c0.16,0.72,0.41,1.41,0.68,2.11c0.06,0.33,0.14,0.64,0.35,0.91
				c0.21,0.53,0.41,1.06,0.58,1.6c1.12,3.53,3.9,5.31,7.01,6.74c0.46,0.21,1.04,0.38,1.51,0.28c0.98-0.21,1.63,0.25,2.34,0.77
				c1.62,1.19,3.25,2.36,4.89,3.52c1.66,1.18,2.69,2.64,2.86,4.79c0.31,3.9,1.12,7.71,2.86,11.26c0.77,1.57,1.44,3.18,2.19,4.75
				c0.2,0.42,0.54,0.76,0.82,1.14c0.1-0.06,0.2-0.12,0.31-0.18c-0.11-0.33-0.24-0.65-0.34-0.98c-0.15-0.5-0.33-0.99-0.41-1.5
				c-0.09-0.63-0.08-1.27-0.13-1.91c-0.15-2.04-0.11-4.11,1.34-5.68c0.82-0.89,1.87-1.6,2.91-2.27c0,0,0.01-0.01,0.01-0.01
				c0.2-0.13,0.41-0.26,0.61-0.39c1.47-0.93,3.1-1.63,4.55-2.59c1.83-1.22,3.22-2.87,3.88-5.03c0.26-0.85,0.26-1.66-0.54-2.34
				c-0.73-0.63-1.43-0.89-2.33-0.4c-0.29,0.16-0.63,0.27-0.96,0.28c-4.02,0.23-8.3,4.75-7.4,9.2c0.15,0.76-0.16,1.29-0.74,1.85
				c-1.49,1.43-2.58,3.09-2.34,5.32c0.04,0.38-0.13,0.78-0.25,1.4c-2.18-3.58-2.55-7.37-2.93-11.06c-0.29-2.93,0.1-5.93,0.13-8.89
				c0.03-2.44,0.83-4.46,3.22-5.36c1.82-0.68,3.83-1.6,5.63-1.39c2.32,0.26,4.44,0.02,6.58-0.59c1.08-0.31,2.09-0.95,3.05-1.58
				c2.62-1.73,4.06-4.43,5.47-7.09c0.49-0.93,0.62-2.14,0.64-3.23c0.02-1.24-1.29-2.14-2.49-1.85c-4.16,1.01-7.15,3.66-9.66,6.95
				c-0.56,0.73-1.1,1.49-1.68,2.21c-0.38,0.26-0.81,0.53-0.87,1.03c-0.4,0.42-0.81,0.82-1.2,1.24c-0.54,0.13-0.67,0.62-0.87,1.04
				c0,0.01-0.01,0.01-0.01,0.02c-0.66,0.95-1.53,1.32-2.53,1.67c-1.05,0.36-2.05,0.86-3.08,1.29c-0.31,0.13-0.63,0.24-0.95,0.37
				c-0.01-0.42-0.11-0.87-0.02-1.26c0.14-0.6,0.39-1.18,0.65-1.75c0.53-1.19,0.61-2.82,2.59-2.64c0.2,0.02,0.5-0.39,0.62-0.65
				c0.04-0.08-0.33-0.51-0.53-0.53c-1-0.07-0.88-0.61-0.57-1.23c1.53-3.01,3.08-6.01,4.65-9c0.15-0.28,0.52-0.44,0.78-0.65
				c0.19,0.29,0.46,0.56,0.55,0.88c0.4,1.32,1.24,1.92,2.61,1.97c0.61,0.02,1.15-0.06,1.65-0.25c0.34-0.06,0.6-0.22,0.8-0.44
				c0.27-0.21,0.53-0.46,0.76-0.77c0.23-0.32,0.56-0.98,0.49-1.03c-0.43-0.33-0.96-0.54-1.45-0.79c-0.05,0.09-0.09,0.19-0.14,0.28
				c-0.08-0.04-0.17-0.08-0.26-0.11c-0.83-0.34-1.61-0.64-2.39-0.44c-0.31-0.24-0.68-0.37-1.2-0.32c-0.56,0.06-1.14-0.18-0.83-0.92
				c0.39-0.92,0.87-1.81,1.39-2.66c0.12-0.2,0.56-0.24,0.86-0.3c1.26-0.27,2.69-0.24,3.75-0.84c0.77-0.44,1.54-0.73,2.3-0.92
				c0.3,0.17,0.71,0.06,1.05,0.06c1.25,0.02,2.5,0.01,3.75,0c0.62,0.14,1.24,0.3,1.86,0.5c1.96,0.62,3.89,0.69,5.85,0.56
				c1.57-0.11,2.72-1.15,3.66-2.36c0.19-0.24,0.29-0.63,0.27-0.93C75.75,49.59,74.28,48.19,72.77,46.87z M37.83,46.86
				c0.01,0,0.03,0,0.05,0c-0.02,0.01-0.03,0.02-0.05,0.03C37.83,46.87,37.83,46.87,37.83,46.86z M37.07,42.64
				c-0.03,0-0.05,0.01-0.08,0.01c0-0.02-0.01-0.03-0.01-0.05C37.01,42.61,37.04,42.62,37.07,42.64z M28.4,38.21
				c-0.04-0.05-0.08-0.08-0.13-0.13c0.06-0.01,0.11-0.01,0.17-0.02C28.43,38.11,28.41,38.16,28.4,38.21z M30.98,50.52
				c0.17,0.41,0.34,0.83,0.53,1.23C31.26,51.41,31.08,51,30.98,50.52z M34.29,45.24c0-0.01,0.01-0.01,0.01-0.02
				c0,0.05,0.01,0.1,0.01,0.15C34.3,45.32,34.3,45.28,34.29,45.24z M35.45,69.71C35.45,69.71,35.45,69.71,35.45,69.71
				c0.16,0.39,0.29,0.79,0.45,1.18C35.56,70.64,35.32,70.29,35.45,69.71z M23.01,67.72c-0.01,0-0.02,0.01-0.03,0.01
				c-0.01-0.01-0.01-0.01-0.02-0.02C22.98,67.71,22.99,67.72,23.01,67.72z M23.03,74.04c-0.02-0.04-0.04-0.07-0.07-0.11
				c0.03,0,0.05-0.02,0.08-0.03C23.04,73.95,23.04,73.99,23.03,74.04z M23.99,74.62C23.99,74.62,23.99,74.62,23.99,74.62
				C24,74.62,24,74.62,23.99,74.62C24,74.62,23.99,74.62,23.99,74.62z M24.67,77.09C24.67,77.09,24.67,77.09,24.67,77.09
				L24.67,77.09L24.67,77.09C24.67,77.08,24.67,77.08,24.67,77.09C24.67,77.08,24.67,77.08,24.67,77.09
				C24.67,77.09,24.67,77.09,24.67,77.09z M25.56,75.51C25.56,75.51,25.56,75.51,25.56,75.51C25.56,75.51,25.56,75.51,25.56,75.51
				L25.56,75.51z M25.85,75.34c-0.02-0.02-0.04-0.03-0.06-0.05c0.04,0,0.08,0,0.12,0C25.89,75.31,25.87,75.33,25.85,75.34z
				 M54.78,92.38c0,0.03-0.01,0.06-0.01,0.09c-0.03,0.01-0.06,0.02-0.09,0.03C54.71,92.46,54.75,92.42,54.78,92.38z M48.16,92.93
				c-0.08,0.44-0.13,0.88-0.17,1.33c0-0.15,0.01-0.31,0.01-0.46c-0.08-0.04-0.15-0.09-0.23-0.13
				C47.91,93.42,48.04,93.17,48.16,92.93z M64.03,63.26c0.1,0.02,0.2,0.06,0.29,0.11c-0.51-0.04-1.02-0.08-1.53-0.06
				C63.22,63.21,63.65,63.18,64.03,63.26z M62.37,70.58c0.14-0.26,0.28-0.49,0.45-0.7c-0.33,0.55-0.65,1.11-1.04,1.6
				C61.99,71.19,62.19,70.9,62.37,70.58z M56.72,61.09c-0.02,0.04-0.03,0.08-0.05,0.12c-0.02-0.08-0.06-0.15-0.1-0.22
				C56.62,61.02,56.67,61.06,56.72,61.09z M66.09,51.78c-0.02-0.01-0.05-0.02-0.08-0.03c0.03,0,0.05,0,0.08-0.01
				C66.09,51.76,66.09,51.77,66.09,51.78z M67.84,47.29C67.84,47.29,67.84,47.29,67.84,47.29c-0.04,0-0.07,0.01-0.11,0.01
				c0.08-0.04,0.15-0.08,0.23-0.12c0.93-0.4,1.9-0.4,3.04-0.07C69.95,47.12,68.88,46.94,67.84,47.29z"/>
			<path class="st1" d="M36.77,91.34c-1.32,0.22-2.64,0.42-3.96,0.56c-0.33,0.04-0.88-0.06-1.01-0.28
				c-0.25-0.43-0.48-0.88-0.71-1.33c0.16-0.44,0.04-0.86-0.24-1.23c-0.86-1.13-1.71-2.26-2.61-3.35c-0.54-0.65-1.26-1.06-2.15-1.02
				c-0.2,0.01-0.38,0.05-0.54,0.11c-0.55-0.18-0.79,0.21-0.76,0.75c-0.08,0.2-0.11,0.43-0.09,0.67c0.15,1.64,3.29,4.97,5.16,4.75
				c0.04,0.01,0.07,0,0.11,0c0.26,0.17,0.53,0.37,0.87,0.58c-2.26,0.9-3.94,0.02-5.67-0.6c-1.2-0.43-1.79-1.14-2-2.47
				c-0.04-0.27-0.11-0.53-0.17-0.8c0.14-0.44,0.13-0.93,0.1-1.43h0c0.06-0.46-0.11-0.87-0.3-1.28c-0.66-1.46-1.43-2.79-2.9-3.66
				c-0.33-0.19-0.62-0.38-0.92-0.49c-0.49-0.37-1.01-0.71-1.53-1.05c-1.99-1.27-3.9-2.51-6.42-1.84c-0.14,0.04-0.29-0.01-0.44-0.03
				c-1.81-0.2-3.57-0.01-5.28,0.45c-0.13,0-0.25,0.01-0.38,0c-0.9-0.02-1.72,0.03-2.1,0.92c-0.85,0.46-1.65,1.07-2.42,1.66
				c-0.3,0.23-0.5,0.98-0.37,1.35c0.28,0.75,0.66,1.45,1.07,2.12c0,0.04,0.01,0.07,0.01,0.11c0,0.19,0.06,0.35,0.23,0.46
				c0,0,0,0,0,0c0.86,1.54,2.2,2.47,3.63,3.29c0.72,0.47,1.46,0.92,2.12,1.46c1.54,1.26,3.33,1.48,5.12,1.48
				c1.15,0.1,2.32,0.08,3.48,0c0.32-0.02,0.76-0.08,0.93-0.29c0.01-0.01,0.02-0.02,0.04-0.04c1.39-0.19,2.78-0.43,4.18-0.59
				c0.35-0.04,0.74,0.06,1.07,0.19c1.21,0.48,2.37,1.07,3.61,1.47c1.09,0.35,2.24,0.7,3.37,0.7c3.16,0.03,6.31-0.12,9.47-0.21
				c0.25-0.01,0.51-0.14,0.85-0.24C38.54,91.16,37.69,91.19,36.77,91.34z M13.89,86.75c-0.01-0.01-0.01-0.02-0.02-0.04
				c0.02,0,0.04,0,0.06,0C13.91,86.72,13.9,86.73,13.89,86.75z M13.92,86.49L13.92,86.49L13.92,86.49L13.92,86.49z M21.77,86.02
				L21.77,86.02L21.77,86.02L21.77,86.02C21.77,86.02,21.77,86.02,21.77,86.02L21.77,86.02z"/>
			<path class="st1" d="M55.34,37.86c-0.12-0.26-0.69-0.51-1-0.45c-0.23,0.04-0.46,0.58-0.51,0.92c-0.09,0.64-0.06,1.31-0.08,1.96
				c0.54-0.36,1.17-0.64,1.57-1.12C55.55,38.9,55.51,38.24,55.34,37.86z"/>
			<path class="st1" d="M42.96,91.42c-0.39,0.37-0.65,0.87-1.01,1.39c0.64-0.12,1.12-0.13,1.54-0.3c0.26-0.1,0.48-0.41,0.61-0.68
				c0.06-0.12-0.13-0.52-0.24-0.53C43.56,91.26,43.14,91.25,42.96,91.42z"/>
			<path class="st1" d="M53.75,40.33c0-0.01,0-0.02,0-0.03c-0.01,0-0.01,0.01-0.02,0.01c0,0.02,0,0.04,0,0.05
				C53.74,40.35,53.75,40.34,53.75,40.33L53.75,40.33z"/>
			<path class="st1" d="M53.74,44.44c0,0,0.02-0.02,0.02-0.02c-0.01-0.01-0.01-0.02-0.02-0.03C53.74,44.41,53.74,44.43,53.74,44.44z
				"/>
			<path class="st1" d="M53.74,44.4c0-1.35-0.01-2.69-0.01-4.03C52.92,41.31,52.92,43.47,53.74,44.4z"/>
		</g>
		<g>
			<path class="st1" d="M224.03,139.04c-0.27-0.12-0.53-0.6-0.54-0.92c-0.05-2.34,0.07-4.67-0.85-6.92c-0.58-1.4-0.91-2.89-1.46-4.3
				c-0.57-1.45-1.32-2.83-1.92-4.27c-0.32-0.78-0.39-1.68-0.76-2.43c-0.53-1.1-1.23-2.12-1.86-3.17c-0.57-0.94-0.73-1.84,0-2.8
				c0.17-0.22,0.06-0.64,0.08-0.97c-0.22,0.2-0.44,0.4-0.67,0.59c-0.22,0.18-0.42,0.44-0.67,0.49c-0.14,0.03-0.41-0.25-0.52-0.44
				c-0.56-0.96-1.02-1.98-1.62-2.91c-1.29-2-1.05-2.96,0.78-4.56c0.62-0.54,0.87-1.57,1.14-2.42c0.07-0.21-0.42-0.59-0.65-0.89
				c-0.21,0.22-0.41,0.44-0.62,0.65c-0.12,0.12-0.29,0.32-0.39,0.3c-0.69-0.19-0.6,0.32-0.49,0.62c0.32,0.9,0.3,1.64-0.42,2.41
				c-0.59,0.63-0.97,0.77-1.37,0.02c-0.93-1.72-1.46-3.45-0.01-5.21c0.16-0.2,0.09-0.58,0.13-0.88c-0.21,0.19-0.42,0.39-0.64,0.57
				c-0.24,0.19-0.52,0.53-0.73,0.5c-0.24-0.04-0.5-0.38-0.63-0.65c-0.12-0.25-0.08-0.58-0.12-0.88c-0.08-0.59-0.33-0.9-0.98-0.63
				c-0.87,0.36-1.49-0.04-2.07-0.66c-0.56-0.6-0.67-1.21-0.28-1.93c0.09-0.16,0.19-0.38,0.15-0.53c-0.11-0.37-0.29-0.72-0.45-1.07
				c-0.26,0.11-0.51,0.27-0.77,0.33c-0.24,0.05-0.69,0.04-0.71-0.04c-0.12-0.41-0.1-0.86-0.18-1.29c-0.09-0.48-0.14-1-0.38-1.41
				c-0.08-0.14-0.93-0.09-0.97,0.03c-0.14,0.41-0.24,0.97-0.07,1.34c0.6,1.28,1.28,2.52,2,3.74c0.64,1.08,1.54,1.89,2.78,2.3
				c0.91,0.3,1.45,1,1.69,1.94c0.24,0.97,0.49,1.95,0.77,2.91c0.2,0.69,0.04,1.08-0.72,0.85c-1.1-0.32-2.17-0.72-3.25-1.1
				c-2.58-0.9-3.24-2.05-2.94-4.68c0.25-2.18-0.2-4.22-1.66-5.97c-1.25-1.5-3.33-1.56-4.66-0.21c-0.19,0.11-0.38,0.27-0.55,0.49
				c0,0,0,0,0,0c-0.16,0.14-0.29,0.28-0.41,0.43c-1.72,0.99-2.09,2.39-1.3,4.26c0.74,1.77,1.85,3.19,3.26,4.45
				c0.89,0.79,1.83,1.37,3.03,1.41c0.26,0.39,0.55,0.73,1.1,0.56c0.67-0.2,0.62-0.8,0.61-1.35c0.06,0.05,0.11,0.11,0.17,0.15
				c0.32,0.27,0.71,0.46,1.09,0.62c0.43,0.17,0.92,0.21,1.34,0.39c1.43,0.63,2.86,1.46,4.46,1.16c0.93-0.18,1.33,0.14,1.68,0.82
				c0.35,0.7,0.68,1.41,1,2.11c0.22,0.47,0.12,0.8-0.44,0.89c-0.26,0.04-0.57-0.04-0.77,0.09c-0.32,0.21-0.57,0.54-0.85,0.81
				c0.38,0.22,0.73,0.49,1.14,0.62c0.2,0.07,0.53-0.07,0.73-0.22c0.95-0.71,1.39-0.15,1.78,0.65c0.75,1.49,1.5,2.98,2.28,4.46
				c0.74,1.42,1.5,2.82,2.25,4.23c0.28,0.52,0.31,0.97-0.32,1.31c-0.26,0.14-0.44,0.44-0.66,0.67c0.34,0.15,0.67,0.32,1.02,0.46
				c0.41,0.17,1.07,0.2,1.21,0.49c0.69,1.4,1.26,2.85,1.83,4.31c0.09,0.22,0,0.6-0.15,0.78c-0.1,0.11-0.56,0.09-0.7-0.04
				c-1.26-1.12-2.84-1.39-4.39-1.79c-0.27-0.07-0.57-0.24-0.76-0.44c-0.14-0.15-0.28-0.3-0.42-0.45c0.07-0.09,0.13-0.2,0.17-0.32
				c0.24-0.7-0.38-1.11-1.04-1.3v0c-0.86-1.01-1.84-1.86-2.9-2.63c-0.06-0.07-0.12-0.14-0.17-0.21c-1.37-1.82-2.73-3.63-4.52-5.06
				c-0.6-0.48-1.31-0.83-1.99-1.2c-1.2-0.65-2.38-1.34-3.63-1.87c-0.93-0.39-1.97-0.23-2.69,0.51c-0.68,0.7-0.7,1.61-0.49,2.61
				c0.55,2.6,2.17,4.57,3.74,6.54c2.21,2.76,4.99,4.18,8.21,4.42c0.63,0.1,1.27,0.16,1.92,0.18c0.39,0.02,0.87,0,1.17-0.28
				c0,0,0,0,0,0c0.55-0.08,1.14-0.26,1.66-0.15c1.92,0.43,3.82,0.85,5.58,1.85c0.91,0.52,1.66,1.09,1.89,2.06
				c0.46,1.9,0.8,3.83,1.14,5.76c0.11,0.61,0.11,1.25,0.1,1.88c-0.02,1.18-0.07,2.36-0.16,3.54c-0.04,0.54-0.18,1.07-0.29,1.6
				c-0.08,0.42-0.27,0.85-0.26,1.27c0.06,2.77-0.8,5.35-1.6,7.94c-0.06,0.18-0.29,0.3-0.43,0.45c-0.16-0.18-0.36-0.33-0.48-0.53
				c-0.09-0.15-0.1-0.36-0.1-0.54c-0.04-2.15-0.99-3.83-2.51-5.31c-0.19-0.19-0.33-0.46-0.44-0.75c0.32-0.35,0.29-0.9,0.03-1
				c-0.11-0.04-0.2-0.1-0.28-0.15c-0.07-0.84,0.22-1.77-0.07-2.5c-1.1-2.81-2.65-5.28-5.9-6.03c-0.79-0.18-1.58-0.37-2.37-0.54
				c-0.3-0.1-0.6-0.18-0.92-0.2c-1-0.06-1.57,0.32-1.65,1.04c-0.06-0.06-0.12-0.12-0.18-0.18c-0.13,0.36-0.39,0.74-0.36,1.09
				c0.1,1.16,0.49,2.16,1.08,3.05c0.03,0.14,0.09,0.28,0.24,0.41c0.06,0.05,0.12,0.11,0.18,0.16c0.37,0.46,0.79,0.9,1.27,1.3
				c0.84,0.71,1.75,1.3,2.68,1.84c1.02,0.8,2.1,1.49,3.28,2.06c0.29,0.16,0.59,0.2,0.89,0.16c2.08,1.14,3.71,2.73,3.91,5.36
				c0.07,0.96,0.31,1.91,0.52,2.86c0.06,0.25,0.32,0.45,0.48,0.67c0.22-0.18,0.49-0.32,0.64-0.54c0.26-0.4,0.45-0.85,0.67-1.28
				c1.38-2.6,1.79-5.5,2.54-8.29c0.02-0.07,0-0.15,0.01-0.22c0.35-2.11,0.69-4.21,1.08-6.31
				C224.49,139.54,224.58,139.27,224.03,139.04z M194.5,97.92c-0.06-0.11,0.11-0.48,0.14-0.48c0.05,0,0.09,0.02,0.14,0.02
				c0.01,0.59,0.15,1.2,0.41,1.8c0.28,0.64,0.6,1.26,0.94,1.87C195.37,100.22,195.06,98.98,194.5,97.92z M197.7,95.25
				c0-0.01-0.01-0.03-0.01-0.04c0.02,0,0.03,0.01,0.05,0.01C197.73,95.23,197.71,95.24,197.7,95.25z M199.29,94.55
				c0.02-0.02,0.05-0.05,0.07-0.06c0.13-0.07,0.45,0.05,0.59,0.19C199.76,94.61,199.53,94.56,199.29,94.55z M201.55,115.36
				c-0.02-0.01-0.04-0.02-0.06-0.04c0.08,0.03,0.15,0.06,0.23,0.1C201.66,115.4,201.61,115.38,201.55,115.36z M206.92,122.53
				C206.92,122.53,206.92,122.53,206.92,122.53C206.92,122.53,206.92,122.53,206.92,122.53L206.92,122.53z M204.71,117.16
				c0.13,0.02,0.26,0.08,0.38,0.18c1.03,1,2.27,1.87,2.95,3.11C206.9,119.39,205.89,118.17,204.71,117.16z"/>
			<path class="st1" d="M263.16,131.75c-0.92-1.26-2.27-1.82-3.67-2.19c-1.24-0.32-2.5-0.56-3.77-0.7
				c-0.13-0.09-0.26-0.17-0.39-0.26c-0.15-0.11-0.33-0.18-0.5-0.25c-0.85-0.34-1.67-0.41-2.39,0.28c-0.03,0.03-0.05,0.04-0.08,0.06
				c-1.63,0.02-3.18-0.02-4.64,0.97c-0.34,0.23-0.55,0.4-0.6,0.64c-0.15,0.12-0.29,0.26-0.41,0.43c-0.13,0.17-0.32,0.39-0.51,0.42
				c-0.37,0.07-0.66,0.21-0.91,0.39c0-0.04-0.01-0.09,0-0.13c-0.26,0.12-0.54,0.22-0.79,0.36c-0.15,0.09-0.25,0.27-0.4,0.38
				c-1.75,1.33-2.75,3.1-3.16,5.26c-0.2,1.09-0.48,2.17-0.8,3.23c-0.11,0.37-0.37,0.88-0.68,0.98c-1.79,0.58-3.61,1.08-5.44,1.56
				c-0.19,0.05-0.66-0.21-0.66-0.33c0-0.11,0.04-0.22,0.07-0.33c0.11-0.07,0.21-0.16,0.3-0.29c0.12-0.12,0.24-0.24,0.37-0.37
				c0.12-0.02,0.24-0.04,0.32-0.11c0.31-0.3,0.76-0.7,0.75-1.05c0-0.02-0.01-0.04-0.01-0.06c0.2-0.22,0.39-0.44,0.59-0.66
				c0.57-0.29,0.93-0.82,1.38-1.24c0.1-0.1,0.2-0.2,0.29-0.31c-0.03,0.12-0.05,0.24-0.11,0.37c-0.09,0.21,0.06,0.53,0.11,0.8
				c0.2-0.2,0.51-0.37,0.6-0.61c0.28-0.76,0.48-1.56,0.75-2.47c-0.18-0.21-0.37-0.63-0.57-0.64c-0.45-0.01-0.92,0.15-1.35,0.32
				c-0.04,0.01-0.02,0.35,0.06,0.59c-0.25,0.01-0.52,0.1-0.77,0.21c-0.04-0.07-0.08-0.15-0.11-0.22c-0.07,0.1-0.14,0.21-0.22,0.31
				c-0.19,0.02-0.38,0.04-0.52,0.2l0,0c-1.44,0.35-1.81,1.76-2.64,2.71c-0.74,0.61-1.51,1.19-2.01,2.25
				c0.64-0.07,1.18-0.45,1.58-0.12c-0.01,0.01-0.01,0.03-0.02,0.04c-0.22,0.38-0.71,0.89-1.06,0.88c-1.32-0.03-2.63-0.26-3.95-0.41
				c-0.44-0.05-0.9-0.19-1.31-0.1c-0.37,0.08-0.67,0.43-1,0.66c0.33,0.15,0.66,0.42,1,0.43c2.53,0.07,5.06-0.04,7.58,0.15
				c2.93,0.23,5.39-1.14,7.96-2.11c0.62-0.23,1.16-0.38,1.77-0.31c2.13,0.26,4.25,0.53,5.75,0.71c3.1-0.01,5.44-0.13,7.66-1.59
				c1.79-1.18,3.48-2.39,4.81-3.95c0.04-0.02,0.08-0.05,0.11-0.06c0.28-0.14,0.41-0.37,0.44-0.63c0.52-0.71,0.98-1.48,1.34-2.35
				C263.6,132.85,263.59,132.34,263.16,131.75z M242.09,136.64L242.09,136.64C242.09,136.63,242.09,136.63,242.09,136.64
				C242.09,136.63,242.09,136.63,242.09,136.64z M242.09,136.21c-0.07,0.06-0.1,0.12-0.11,0.19c-0.11,0.18-0.21,0.36-0.29,0.55
				c0.24-1.03,0.65-1.99,1.67-2.7c0.01,0,0.01-0.01,0.02-0.01C242.92,134.87,242.4,135.47,242.09,136.21z M257.3,129.77
				c0.86,0.1,1.71,0.43,2.54,0.73C258.94,130.41,258.09,130.15,257.3,129.77z"/>
			<path class="st1" d="M225.39,103.84c0.33,0.47,0.8,0.9,1.3,1.2c0.16,0.1,0.3,0.19,0.43,0.3c0.1,0.13,0.22,0.25,0.35,0.36
				c0.22,0.29,0.31,0.65,0.21,1.13c-0.03,0.17,0.13,0.37,0.21,0.56c0.16-0.12,0.36-0.22,0.48-0.38c0.17-0.22,0.33-0.44,0.5-0.66
				c0.61,0.13,1.23,0.1,1.68-0.19c1.27-0.83,2.36-1.86,3.2-3.17c0.58-0.9,0.51-1.5-0.21-2.03c0.58-1.42,1.2-2.82,1.63-4.28
				c0.29-0.97,0.43-2.04,0.36-3.06c0.39-1.88,0.43-3.77-0.18-5.68c-0.2-0.64-0.51-1.15-1.15-1.23c-0.4-0.63-1.01-0.92-1.73-0.89
				c-0.08-0.01-0.16,0-0.25,0.01c-0.01,0-0.02,0-0.04,0c-0.01,0-0.02,0-0.03,0c-1.48,0.29-2.88,0.75-3.94,1.8
				c-0.17,0.09-0.35,0.18-0.52,0.28c-0.67,0.42-1.17,1.11-1.74,1.69c-0.42,0.27-0.91,0.46-1.23,0.81c-1.34,1.45-1.58,3.42-2.25,5.18
				c-0.1,0.26-0.09,0.59-0.06,0.88C222.7,99.21,223.83,101.62,225.39,103.84z M229.53,93.88C229.53,93.88,229.53,93.88,229.53,93.88
				C229.52,93.88,229.52,93.88,229.53,93.88C229.53,93.88,229.53,93.88,229.53,93.88z M229.09,96.45c0.03,0,0.07,0,0.1-0.01
				c-0.04,0.04-0.07,0.07-0.11,0.12C229.09,96.53,229.09,96.49,229.09,96.45z M227.74,92.75c-0.01,0.03-0.03,0.04-0.05,0.07
				c-0.01-0.02-0.01-0.04-0.02-0.07C227.69,92.75,227.72,92.75,227.74,92.75z M225.95,89.63c0.08-0.01,0.15-0.01,0.23-0.02
				c-0.1,0.08-0.19,0.16-0.28,0.24C225.92,89.78,225.94,89.71,225.95,89.63z"/>
			<path class="st1" d="M231.76,122.54c-0.37,0.03-0.67,0.19-0.66,0.89c0.03,0.14,0.02,0.28,0.03,0.42
				c-0.24,0.68-0.38,1.41-0.31,2.25c0,0.07-0.01,0.13-0.01,0.2c-0.13,0.34-0.2,0.69-0.27,1.04c-0.05,0.17-0.09,0.33-0.11,0.49
				c-0.06,0.19-0.13,0.37-0.23,0.55c-0.36,0.62-0.24,1.11,0.35,1.45c0.04,0.24,0.08,0.48,0.12,0.71c-0.21,0.39-0.44,0.8-0.09,1.02
				c0.31,0.19,0.58,0.47,0.87,0.71c-0.62,0.57-0.76,1.4-1.13,2.1c-0.09,0.17,0.04,0.47,0.07,0.71c0.22-0.1,0.45-0.18,0.65-0.31
				c0.58-0.36,1.14-0.74,1.71-1.11c0.03-0.02,0.07-0.03,0.11-0.02c1.49,0.17,2.71-0.4,3.93-1.21c1.52-1.01,3.29-1.85,4.11-3.49
				c0.69-1.37,1.27-2.81,1.79-4.26c0.11-0.11,0.2-0.23,0.32-0.33c0.35-0.31,0.61-0.79,0.19-1.18c0.14-0.43,0.27-0.85,0.4-1.28
				c0.5-1.73-1.1-3.92-2.64-4.07c-0.82-0.08-1.64-0.11-2.85-0.19c-1.35-0.01-2.72,0.79-3.87,2
				C233.36,120.57,232.43,121.49,231.76,122.54z M237.53,131.09c-0.01,0-0.01,0.01-0.01,0.01c-0.01,0.01-0.02,0.01-0.03,0.02
				C237.5,131.12,237.51,131.11,237.53,131.09z M234.37,132.76c-0.1,0.05-0.27,0.02-0.43-0.04c0.38-0.07,0.76-0.17,1.12-0.3
				C234.83,132.54,234.6,132.66,234.37,132.76z"/>
			<path class="st1" d="M211.44,93.06c0.19,0.15,0.21,0.52,0.36,0.91c-0.27-0.07-0.4-0.13-0.53-0.13c-0.34,0-0.84-0.1-0.98,0.08
				c-0.17,0.22-0.17,0.75-0.02,1.01c0.27,0.46,0.65,1,1.1,1.18c0.95,0.37,1.01,0.93,0.78,1.76c-0.19,0.67-0.34,1.37-0.41,2.07
				c-0.03,0.26,0.23,0.55,0.36,0.83c0.15-0.24,0.3-0.47,0.45-0.71c0.16-0.25,0.28-0.52,0.47-0.75c0.71-0.86,1.47-1.67,2.13-2.56
				c0.16-0.22,0.08-0.67,0.01-0.99c-0.02-0.1-0.52-0.21-0.54-0.18c-0.15,0.26-0.23,0.56-0.33,0.86c-0.02,0.07,0.03,0.16,0,0.22
				c-0.22,0.37-0.43,0.74-0.69,1.07c-0.04,0.05-0.44-0.06-0.46-0.13c-0.08-0.39-0.13-0.79-0.1-1.18c0.01-0.19,0.21-0.37,0.32-0.57
				c0.24-0.45,0.55-0.88,0.68-1.36c0.25-0.92,0-1.22-0.94-1.31c-1.22-0.11-1.6-0.89-1.09-1.96c0.29-0.61,0.47-1.35,0.43-2.02
				c-0.02-0.3-0.71-0.53-1.03-0.86c-0.26-0.25-0.39-0.62-0.64-0.88c-0.24-0.25-0.55-0.43-0.83-0.65c-0.2,0.28-0.54,0.54-0.57,0.83
				c-0.05,0.53-0.02,1.12,0.17,1.61C210.04,90.58,210.22,92.07,211.44,93.06z"/>
			<path class="st1" d="M218.03,112.98c0.9-0.55,1.77-1.16,2.7-1.64c1.76-0.9,3.57-1.72,5.34-2.59c0.36-0.18,0.69-0.43,0.98-0.71
				c0.11-0.11,0.03-0.4,0.04-0.61c-0.2,0.02-0.43-0.03-0.58,0.06c-0.99,0.56-1.95,1.2-2.96,1.71c-1.65,0.83-3.35,1.55-5,2.37
				c-0.42,0.21-0.78,0.56-1.1,0.92c-0.12,0.13-0.02,0.45-0.02,0.85C217.78,113.13,217.91,113.05,218.03,112.98z"/>
			<path class="st1" d="M209.05,99.37c0.11,0.2,0.53,0.22,0.8,0.32c-0.07-0.26-0.12-0.53-0.21-0.78c-0.32-0.84-0.69-1.66-0.99-2.51
				c-0.17-0.48-0.19-1.03-0.39-1.5c-0.13-0.3-0.46-0.51-0.69-0.77c-0.12,0-0.25,0-0.37,0c-0.1,0.37-0.4,0.84-0.28,1.11
				C207.56,96.66,208.29,98.03,209.05,99.37z"/>
			<path class="st1" d="M228.29,135.86c-0.94,0.67-1.92,1.3-2.84,1.99c-0.16,0.12-0.2,0.45-0.23,0.69c-0.01,0.09,0.24,0.3,0.27,0.28
				c0.2-0.11,0.39-0.28,0.57-0.43c0.26-0.22,0.5-0.48,0.78-0.67c0.9-0.58,1.83-1.11,2.7-1.72c0.19-0.13,0.24-0.49,0.31-0.76
				c0.02-0.07-0.18-0.19-0.34-0.33C229.09,135.25,228.7,135.57,228.29,135.86z"/>
			<path class="st1" d="M208.45,91.96c0.21,0.09,0.73-0.49,1.1-0.77c-0.44-0.43-0.88-0.85-1.46-1.41c-0.47,0.45-0.75,0.71-1.03,0.98
				C207.52,91.18,207.91,91.72,208.45,91.96z"/>
			<path class="st1" d="M218.87,118.88c-0.04,0.06,0.51,0.7,0.57,0.67c0.49-0.26,0.92-0.62,1.54-1.07c-0.47-0.38-0.9-0.82-0.97-0.77
				C219.58,118.04,219.19,118.44,218.87,118.88z"/>
			<path class="st1" d="M221.16,143.43c-0.36-0.32-0.69-0.67-1.09-0.91c-0.08-0.05-0.42,0.35-0.89,0.76
				c0.65,0.3,1.05,0.54,1.48,0.66C220.78,143.96,221,143.61,221.16,143.43z"/>
		</g>
	</g>
	<g>
		<g>
			<path class="st1" d="M46.35,1.09c1.05-0.26,2.01-0.26,2.96-0.27C55.77,0.75,62.23,1.1,68.67,0.6c6.37-0.49,12.74-0.46,19.12-0.53
				c3.97-0.04,7.9,0.36,11.84,0.63c6.71,0.45,13.43,0.26,20.14,0.27c10.37,0.02,20.75,0.08,31.11-0.09
				c11.64-0.19,23.29,0.2,34.91-0.43c7.91-0.43,15.81-0.4,23.72-0.46c3.27-0.02,6.44,0.72,9.66,1.02c0.99,0.09,1.45,0.67,1.64,1.55
				c0.09,0.4,0.13,0.81,0.16,1.22c0.62,7.41,0.66,14.83,0.57,22.25c-0.09,7.02,0.7,14,0.93,21.01c0.32,9.84,0.7,19.68,0.56,29.54
				c0,0.26-0.02,0.53-0.08,0.78c-0.06,0.27-0.24,0.48-0.56,0.44c-0.26-0.03-0.38-0.23-0.4-0.47c-0.02-0.3-0.01-0.6-0.02-0.89
				c-0.02-5.6,0.1-11.2-0.1-16.79c-0.24-6.75-0.21-13.52-0.79-20.23c-0.73-8.58-0.27-17.15-0.47-25.72
				c-0.08-3.43-0.57-6.84-0.36-10.28c0.06-1.03-0.54-1.26-1.43-1.42c-9-1.57-18.06-1.12-27.12-0.79
				c-10.18,0.37-20.35,0.62-30.54,0.68c-18.17,0.12-36.34,0.1-54.51,0.14c-4.23,0.01-8.41-0.54-12.62-0.72
				C84.7,0.9,75.35,1.08,66,1.7c-3.54,0.23-7.09,0.1-10.63,0.05c-2.72-0.04-5.44-0.21-8.16-0.32C46.96,1.41,46.68,1.48,46.35,1.09z"
				/>
			<path class="st1" d="M45.52,106.05c0.39,0.98,0.46,1.97,0.48,2.95c0.31,10.93,0.42,21.85,0.41,32.79c-0.01,10.97,0,21.94,0,32.9
				c0,1.79,0.08,1.93,1.8,1.83c4.62-0.27,9.13,0.57,13.68,1.14c6.11,0.77,12.26,1.07,18.42,1.11c7.28,0.05,14.54-0.25,21.8-0.69
				c6.59-0.4,13.19-0.41,19.79-0.8c8.41-0.49,16.82-1.11,25.23-1.61c7.16-0.43,14.32-0.32,21.48-0.35c0.41,0,1.1-0.19,1.12,0.38
				c0.02,0.62-0.68,0.57-1.15,0.56c-5.52-0.06-11.04,0.1-16.56,0.24c-7.65,0.19-15.27,0.87-22.89,1.38
				c-11.24,0.74-22.51,0.87-33.76,1.57c-7.5,0.47-14.99,0.51-22.48,0.18c-6.22-0.28-12.4-1.02-18.56-1.98
				c-2.25-0.35-4.54-0.07-6.82-0.08c-1.91-0.01-2.07-0.14-2.07-2.01c-0.02-18.02-0.02-36.04-0.05-54.06
				c-0.01-4.81-0.07-9.62-0.1-14.43C45.29,106.74,45.17,106.39,45.52,106.05z"/>
			<path class="st1" d="M45.8,4.84c0.38,0.48,0.29,0.86,0.29,1.22c0.03,5.03,0.16,10.07,0.04,15.1c-0.1,4.06-0.57,8.1-0.55,12.17
				c0,0.33,0.02,0.8-0.43,0.77c-0.63-0.05-0.53-0.63-0.5-1.06c0.14-2.6,0.2-5.22,0.48-7.81c0.47-4.35,0.32-8.71,0.37-13.07
				C45.53,9.77,45.58,7.39,45.8,4.84z"/>
			<path class="st1" d="M220.13,166.31c0,2.42,0,4.85,0,7.27c0,0.44,0.04,0.9-0.25,1.29c-0.17,0.23-0.41,0.33-0.69,0.27
				c-0.28-0.07-0.25-0.29-0.23-0.53c0.39-4.8,0.03-9.61,0.25-14.41c0.02-0.52-0.01-1.05,0.04-1.56c0.03-0.37-0.12-0.98,0.45-0.96
				c0.46,0.01,0.36,0.57,0.37,0.92c0.03,1.49,0.04,2.98,0.05,4.47c0.01,1.08,0,2.16,0,3.24
				C220.12,166.31,220.13,166.31,220.13,166.31z"/>
		</g>
		<g>
			<path class="st1" d="M219.28,174.59c-1.78-1.21-3.54-2.46-5.42-3.5c-1.15-0.64-2-1.72-3.58-1.78c-2.13-0.08-4.24-0.65-6.36-0.93
				c-0.46-0.06-0.75-0.13-0.92-0.27c0.39-0.1,0.65-0.31,0.34-0.83c-0.1-0.16-0.17-0.33-0.23-0.5c0.6-1.68,0.53-3.32-0.35-4.92
				c-0.41-0.75-0.84-1.49-1.27-2.24c-1.61-2.78-4.06-4.36-7.17-5.02c-0.82-0.17-1.42-0.04-1.4,0.92c-0.15,0.33-0.21,0.67-0.12,1.04
				c0,0,0,0,0,0c0.07,0.3,0.15,0.6,0.22,0.9c0.05,0.77,0.11,1.54,0.23,2.31c0.35,2.26,1.98,3.78,3.32,5.46
				c0.33,0.41,0.67,0.53,1.05,0.42c0.79,0.71,1.53,1.48,2.26,2.26c-0.33,0.01-0.65,0.03-0.96,0.05c-0.4,0.03-0.8,0.16-1.2,0.16
				c-2.89,0.02-5.79,0.03-8.68,0.01c-0.79,0-1.71,0.14-2.34-0.2c-1.08-0.57-2.07-1.29-3.03-1.97c0.05-0.51-0.13-1.07-0.59-1.28
				c-0.51-0.23-0.92-0.57-1.31-0.94c-0.9-0.97-1.8-1.94-2.69-2.91c-0.04,0.04-0.08,0.08-0.12,0.11c-0.2-0.12-0.42-0.2-0.65-0.25
				c-0.01-0.26-0.21-0.47-0.64-0.65c-1.71-0.72-3.45-0.5-5.13,0.15c-0.58,0.23-0.64,0.7-0.32,1.29c0.06,0.12,0.13,0.24,0.19,0.36
				c0.03,0.23,0.16,0.47,0.33,0.74c0.19,0.28,0.39,0.56,0.59,0.83c0.28,0.43,0.57,0.84,0.9,1.22c0.19,0.73,0.73,1.03,1.3,1.29
				c0.36,0.29,0.74,0.57,1.17,0.8c0.33,0.18,0.54,0.56,0.96,1.02c-2.64,1.11-4.03,3.26-5.73,5.05c-0.84,0.89-0.76,1.54,0.32,2.09
				c0.74,0.37,1.48,0.77,2.24,1.1c0.09,0.39,0.41,0.61,0.75,0.63c0.62,0.04,1.25,0.12,1.88,0.13c0.01,0,0.02,0,0.03,0
				c0.19,0,0.38-0.01,0.57-0.02c0.65-0.04,1.32-0.16,1.96-0.26c0.68-0.11,1.31-0.52,1.97-0.76c2.6-0.95,4.37-2.6,4.93-5.43
				c0.09-0.44,0.7-1.05,1.12-1.09c1.37-0.15,2.75-0.08,4.13-0.06c0.24,0,0.48,0.16,0.88,0.3c-0.3,0.23-0.4,0.34-0.53,0.39
				c-2.02,0.73-3.07,2.31-3.67,4.19c-0.02,0.02-0.04,0.04-0.06,0.06c-0.6,0.66-1.14,1.46-0.89,2.4c0.1,0.38,0.35,0.72,0.67,1.01
				c0.14,0.92,0.81,1.72,1.85,1.25c0.18-0.08,0.36-0.16,0.54-0.25c0.73,0.07,1.43-0.05,1.9-0.44c0.64-0.52,1.21-1.1,1.77-1.7
				c0.05-0.04,0.1-0.07,0.15-0.12c0.55-0.5,1.02-1.06,1.45-1.66c0.48-0.54,0.95-1.08,1.46-1.59c0.66-0.67,1.01-1.35,0.79-2.28
				c0.02-0.17,0.02-0.33,0-0.49c0.24-0.34,0.66-0.65,1.03-0.83c1.76-0.87,3.59-0.29,5.4-0.16c1.43,0.11,2.51,1.22,4.11,1.18
				c1.39-0.03,2.9,0.62,4.19,1.29c2.03,1.05,3.91,2.38,5.87,3.56c0.26,0.15,0.62,0.13,0.94,0.19
				C219.57,175.14,219.5,174.74,219.28,174.59z M193.47,157.21C193.47,157.21,193.47,157.21,193.47,157.21
				c-0.01-0.02-0.01-0.03-0.01-0.05C193.54,157.15,193.46,157.33,193.47,157.21z M173.2,161c0-0.05-0.01-0.09-0.01-0.14
				c-0.01-0.08,0.11-0.18,0.21-0.34c0.09,0.07,0.16,0.12,0.24,0.19C173.5,160.84,173.36,160.95,173.2,161z M174.69,160.6
				c-0.05-0.04-0.1-0.07-0.15-0.09c0.33-0.3,0.62-0.37,1.17-0.14C175.37,160.39,175.03,160.49,174.69,160.6z M176.58,173.58
				c0-0.04,0-0.07,0-0.11c0.04,0.04,0.06,0.07,0.11,0.11C176.66,173.58,176.62,173.58,176.58,173.58z M182.72,174.34
				c0.02-0.02,0.04-0.05,0.07-0.07l0.06,0C182.81,174.3,182.76,174.32,182.72,174.34z M184.68,172.58c0.03-0.09,0.08-0.16,0.1-0.26
				c0.26-0.52,0.54-1.03,0.77-1.56C185.4,171.44,185.09,172.04,184.68,172.58z M185.63,168.44c-0.09-0.17-0.21-0.33-0.36-0.48
				c0.2,0.09,0.39,0.19,0.54,0.31C185.75,168.34,185.69,168.38,185.63,168.44z M202.44,164.62c-0.07-0.17-0.14-0.34-0.21-0.51l0,0
				c0.02-0.41-0.01-0.79-0.05-1.17c0.17,0.51,0.32,1.04,0.41,1.58c0.04,0.22,0.04,0.45,0.03,0.68
				C202.58,165,202.52,164.81,202.44,164.62z"/>
			<path class="st1" d="M211.7,168.4c0.83-0.01,1.45-0.86,1.44-2.01c0-1.01-0.82-2.12-1.57-2.14c-0.83-0.03-1.45,0.92-1.49,2.25
				C210.06,167.47,210.85,168.4,211.7,168.4z M211.34,164.98c0.9,0.36,1.07,1.05,1.04,1.81c-0.01,0.18-0.16,0.46-0.31,0.51
				c-0.14,0.06-0.45-0.06-0.55-0.2C211.02,166.48,210.65,165.81,211.34,164.98z"/>
			<path class="st1" d="M205.99,170.02c-2.84,0.79-3.61,1.5-3.01,2.57c0.37-0.33,0.71-0.73,1.13-0.97c0.28-0.16,0.7-0.17,1.04-0.13
				c0.1,0.01,0.27,0.54,0.18,0.66c-0.22,0.3-0.54,0.58-0.89,0.73c-0.34,0.15-0.75,0.12-1.33,0.2c1.03,0.88,1.75,0.36,2.44-0.1
				C206.79,172.14,205.74,171.1,205.99,170.02z"/>
		</g>
		<g>
			<path class="st1" d="M53.74,44.44c0.01-0.01,0.01-0.01,0.02-0.02l0,0C53.76,44.42,53.74,44.44,53.74,44.44z"/>
			<path class="st1" d="M72.77,46.87c-0.41-0.36-1.13-0.42-1.73-0.5c-2.26-0.31-4.33,0.18-6.19,1.72c0.03,0.01,0.06,0.02,0.09,0.04
				c-0.28,0.1-0.54,0.23-0.75,0.45c-0.08-0.09-0.15-0.19-0.23-0.28c-0.8,0.67-1.6,1.34-2.41,2.02c0.03,0.04,0.06,0.07,0.09,0.11
				c-0.29,0.23-0.58,0.45-0.88,0.67c-0.21,0.16-0.33,0.32-0.4,0.51c-0.01,0.01-0.03,0.02-0.04,0.03c-1.6,1.63-3.54,2.69-5.72,3.31
				c-0.34,0.1-0.85,0.05-1.11-0.15c-0.16-0.12-0.05-0.67,0.02-1.01c0.12-0.62,0.38-1.22,0.42-1.84c0.09-1.41,0.87-2.25,2.06-2.81
				c2.83-1.34,3.52-4.15,4.57-6.7c0.08-0.19-0.2-0.68-0.42-0.78c-0.21-0.1-0.77,0.07-0.82,0.23c-0.15,0.48-0.12,1.01-0.17,1.52
				c-0.04,0.35-0.04,0.72-0.17,1.03c-0.05,0.11-0.44,0.12-0.67,0.11c-0.38-0.02-0.76-0.1-1.15-0.15c-0.05,0.46-0.27,0.99-0.11,1.36
				c0.27,0.65,0.68,1.23-0.05,1.77c-0.56,0.41-1.16,0.82-1.8,1.05c-0.27,0.1-0.81-0.18-1.03-0.45c-0.13-0.16,0.07-0.66,0.21-0.96
				c0.42-0.86,0.95-1.68,1.32-2.56c0.34-0.81,0.55-1.68,0.76-2.54c0.08-0.34,0.16-0.86-0.02-1.05c-0.23-0.24-0.84-0.42-1.07-0.27
				c-0.29,0.18-0.6,0.83-0.48,1.08c0.64,1.37-0.36,1.92-1.15,2.6c0.06,0.71,1.05,1.33,0.22,2.14c-0.91,0.89-1.73,1.83-1.66,3.31
				c-0.48-0.65-0.74-1.35-1.09-2c-0.28-0.52-0.57-1.16-1.04-1.44c-0.65-0.38-0.86-0.83-0.91-1.51c-0.05-0.72,0.39-0.88,0.91-1.19
				c0.44-0.26,0.9-0.9,0.89-1.37C51.08,42,50.32,41.3,50,41.35c-0.52,0.1-1.17,0.6-1.37,1.09c-0.26,0.61-0.13,1.38-0.14,2.08
				c-0.01,0.34,0.03,0.68,0.07,1.34c-0.78-0.5-1.3-0.82-1.81-1.17c-0.93-0.64-1.65-1.35-1.88-2.61c-0.26-1.4,0.44-1.95,1.41-2.63
				c0.37-0.26,0.29-1.16,0.42-1.77c-0.59-0.08-1.25-0.37-1.76-0.21c-0.83,0.27-0.72,1.05-0.6,1.8c0.11,0.66,0.02,1.36,0.02,2.04
				c-0.16,0.02-0.32,0.03-0.47,0.05c-0.18-0.49-0.26-1.06-0.57-1.46c-0.31-0.4-0.81-0.78-1.28-0.87c-0.22-0.04-0.83,0.67-0.8,0.99
				c0.05,0.45,0.47,0.91,0.84,1.26c0.36,0.35,0.94,0.48,1.26,0.85c1.45,1.63,2.85,3.3,4.79,4.4c0.24,0.14,0.36,0.49,0.54,0.74
				c-0.05,0.12-0.09,0.24-0.14,0.37c-1.3-0.14-2.59-0.28-3.89-0.44c-0.1-0.01-0.26-0.22-0.24-0.31c0.02-0.15,0.13-0.35,0.26-0.42
				c0.2-0.1,0.45-0.1,0.81-0.17c-0.2-0.26-0.3-0.5-0.42-0.51c-0.35-0.01-0.86-0.06-1.01,0.13c-0.24,0.31-0.43,0.9-0.28,1.2
				c0.21,0.44,0.73,1,1.14,1.02c1.44,0.06,2.9-0.13,4.34-0.12c0.42,0,0.99,0.24,1.24,0.56c0.65,0.85,1.12,1.84,1.75,2.72
				c0.73,1.03,0.84,2.03,0.21,3.13c-0.22,0.39-0.41,0.79-0.57,1.21c-0.28,0.7-0.69,0.72-1.19,0.25c-0.67-0.63-0.94-1.37-0.76-2.3
				c0.01,0,0.01,0,0.02,0c0.28-0.03,0.76,0.09,0.64-0.54c-0.19-0.96-1.66-1.8-2.57-1.48c-0.45,0.15-0.67,0.51-0.64,0.94
				c0.01,0.2,0.07,0.39,0.18,0.54c-0.07,0.12-0.14,0.23-0.18,0.31c0.96,1.03,1.79,1.99,2.71,2.88c0.63,0.61,0.82,1.3,0.45,2.02
				c-0.84,1.64-1.78,3.23-2.72,4.91c-0.23-0.18-0.42-0.26-0.5-0.4c-0.78-1.35-1.97-2.21-3.35-2.84c-1.39-0.63-2.8-1.21-4.15-1.91
				c-1.32-0.68-2.62-1.41-3.84-2.26c-0.83-0.58-0.7-1.04,0.08-1.66c0.6-0.48,1.27-0.98,1.65-1.62c0.45-0.75,0.91-1.49,1.33-2.26
				c0.29-0.25,0.59-0.49,0.93-0.68c0.37-0.21,0.44-0.67,0.38-1.1c0.23-0.8,0.25-1.6,0.07-2.4c0.07-0.77,0.05-1.5-0.07-2.2
				c0-0.77-0.16-1.52-0.35-2.23c-0.34-1.28-0.75-2.66-2.35-3.04c-0.1-0.07-0.2-0.15-0.29-0.22c-1.53-1.48-3.49-2.38-5.43-3.26
				c-0.34-0.22-0.67-0.34-0.98-0.35c-1.51-0.37-2.42,0.38-2.71,2.17c-0.24,1.45-0.43,2.9-0.63,4.36c-0.08,0.59-0.29,1.19-0.21,1.76
				c0.43,3.25,1.57,6.25,3.4,8.97c0.29,0.43,0.61,0.91,1.04,1.14c1.35,0.7,2.58,1.45,3.25,2.91c0.15,0.34,0.57,0.6,0.93,0.78
				c1.84,0.96,3.71,1.87,5.56,2.83c1.35,0.7,2.85,1.24,3.97,2.22c1.65,1.45,1.99,2.4,0.86,4.37c-0.84,1.47-1.46,3.05-2.15,4.6
				c-0.45,1-0.85,2.01-1.36,3.21c-0.59-0.82-1.09-1.53-1.26-2.33c0.03-0.07,0.06-0.15,0.08-0.23l0,0c0.29-0.45,0.19-0.85-0.01-1.24
				c0.2-0.94-0.19-1.75-0.96-2.29c-0.78-0.55-1.62-1.19-2.52-1.35c-0.24-0.04-0.49-0.06-0.75-0.07c-0.54-0.09-1.09-0.06-1.57,0.26
				c-0.17,0.06-0.34,0.12-0.49,0.2c-0.81,0.44-0.78,2.99-0.22,3.81c0.74,1.07,1.73,1.41,2.81,1.5c0.53,0.16,1.07,0.31,1.62,0.41
				c0.54,0.1,0.97,0.05,1.31-0.14c0.53,0.31,0.79,0.88,0.75,1.79c-0.06,1.62-0.35,3.23-0.62,4.84c-0.26,1.53-0.74,3.03-0.93,4.57
				c-0.14,1.13,0.06,2.3,0.07,3.45c0,0.25-0.19,0.51-0.29,0.76c-0.25-0.11-0.53-0.18-0.75-0.34c-1.21-0.91-2.4-1.87-3.62-2.77
				c-2.27-1.68-2.91-2.01-2.92-3.31c0.06-0.07,0.11-0.13,0.16-0.19c0.63-0.89,1.05-1.83,0.94-3c-0.1-0.99-0.47-1.9-0.79-2.82
				c-0.19-1.56-0.68-3.06-1.63-4.44c-1.44-2.09-2.98-4.13-5.49-4.49c-0.29-0.13-0.56-0.14-0.83-0.05c-0.39,0-0.79,0.04-1.22,0.12
				c-0.07,0.01-0.15-0.01-0.22-0.02c-2.37-0.19-4.32,1.86-3.79,4.18c0.16,0.72,0.41,1.41,0.68,2.11c0.06,0.33,0.14,0.64,0.35,0.91
				c0.21,0.53,0.41,1.06,0.58,1.6c1.12,3.53,3.9,5.31,7.01,6.74c0.46,0.21,1.04,0.38,1.51,0.28c0.98-0.21,1.63,0.25,2.34,0.77
				c1.62,1.19,3.25,2.36,4.89,3.52c1.66,1.18,2.69,2.64,2.86,4.79c0.31,3.9,1.12,7.71,2.86,11.26c0.77,1.57,1.44,3.18,2.19,4.75
				c0.2,0.42,0.54,0.76,0.82,1.14c0.1-0.06,0.2-0.12,0.31-0.18c-0.11-0.33-0.24-0.65-0.34-0.98c-0.15-0.5-0.33-0.99-0.41-1.5
				c-0.09-0.63-0.08-1.27-0.13-1.91c-0.15-2.04-0.11-4.11,1.34-5.68c0.82-0.89,1.87-1.6,2.91-2.27c0,0,0.01-0.01,0.01-0.01
				c0.2-0.13,0.41-0.26,0.61-0.39c1.47-0.93,3.1-1.63,4.55-2.59c1.83-1.22,3.22-2.87,3.88-5.03c0.26-0.85,0.26-1.66-0.54-2.34
				c-0.73-0.63-1.43-0.89-2.33-0.4c-0.29,0.16-0.63,0.27-0.96,0.28c-4.02,0.23-8.3,4.75-7.4,9.2c0.15,0.76-0.16,1.29-0.74,1.85
				c-1.49,1.43-2.58,3.09-2.34,5.32c0.04,0.38-0.13,0.78-0.25,1.4c-2.18-3.58-2.55-7.37-2.93-11.06c-0.29-2.93,0.1-5.93,0.13-8.89
				c0.03-2.44,0.83-4.46,3.22-5.36c1.82-0.68,3.83-1.6,5.63-1.39c2.32,0.26,4.44,0.02,6.58-0.59c1.08-0.31,2.09-0.95,3.05-1.58
				c2.62-1.73,4.06-4.43,5.47-7.09c0.49-0.93,0.62-2.14,0.64-3.23c0.02-1.24-1.29-2.14-2.49-1.85c-4.16,1.01-7.15,3.66-9.66,6.95
				c-0.56,0.73-1.1,1.49-1.68,2.21c-0.38,0.26-0.81,0.53-0.87,1.03c-0.4,0.42-0.81,0.82-1.2,1.24c-0.54,0.13-0.67,0.62-0.87,1.04
				c0,0.01-0.01,0.01-0.01,0.02c-0.66,0.95-1.53,1.32-2.53,1.67c-1.05,0.36-2.05,0.86-3.08,1.29c-0.31,0.13-0.63,0.24-0.95,0.37
				c-0.01-0.42-0.11-0.87-0.02-1.26c0.14-0.6,0.39-1.18,0.65-1.75c0.53-1.19,0.61-2.82,2.59-2.64c0.2,0.02,0.5-0.39,0.62-0.65
				c0.04-0.08-0.33-0.51-0.53-0.53c-1-0.07-0.88-0.61-0.57-1.23c1.53-3.01,3.08-6.01,4.65-9c0.15-0.28,0.52-0.44,0.78-0.65
				c0.19,0.29,0.46,0.56,0.55,0.88c0.4,1.32,1.24,1.92,2.61,1.97c0.61,0.02,1.15-0.06,1.65-0.25c0.34-0.06,0.6-0.22,0.8-0.44
				c0.27-0.21,0.53-0.46,0.76-0.77c0.23-0.32,0.56-0.98,0.49-1.03c-0.43-0.33-0.96-0.54-1.45-0.79c-0.05,0.09-0.09,0.19-0.14,0.28
				c-0.08-0.04-0.17-0.08-0.26-0.11c-0.83-0.34-1.61-0.64-2.39-0.44c-0.31-0.24-0.68-0.37-1.2-0.32c-0.56,0.06-1.14-0.18-0.83-0.92
				c0.39-0.92,0.87-1.81,1.39-2.66c0.12-0.2,0.56-0.24,0.86-0.3c1.26-0.27,2.69-0.24,3.75-0.84c0.77-0.44,1.54-0.73,2.3-0.92
				c0.3,0.17,0.71,0.06,1.05,0.06c1.25,0.02,2.5,0.01,3.75,0c0.62,0.14,1.24,0.3,1.86,0.5c1.96,0.62,3.89,0.69,5.85,0.56
				c1.57-0.11,2.72-1.15,3.66-2.36c0.19-0.24,0.29-0.63,0.27-0.93C75.75,49.59,74.28,48.19,72.77,46.87z M37.83,46.86
				c0.01,0,0.03,0,0.05,0c-0.02,0.01-0.03,0.02-0.05,0.03C37.83,46.87,37.83,46.87,37.83,46.86z M37.07,42.64
				c-0.03,0-0.05,0.01-0.08,0.01c0-0.02-0.01-0.03-0.01-0.05C37.01,42.61,37.04,42.62,37.07,42.64z M28.4,38.21
				c-0.04-0.05-0.08-0.08-0.13-0.13c0.06-0.01,0.11-0.01,0.17-0.02C28.43,38.11,28.41,38.16,28.4,38.21z M30.98,50.52
				c0.17,0.41,0.34,0.83,0.53,1.23C31.26,51.41,31.08,51,30.98,50.52z M34.29,45.24c0-0.01,0.01-0.01,0.01-0.02
				c0,0.05,0.01,0.1,0.01,0.15C34.3,45.32,34.3,45.28,34.29,45.24z M35.45,69.71C35.45,69.71,35.45,69.71,35.45,69.71
				c0.16,0.39,0.29,0.79,0.45,1.18C35.56,70.64,35.32,70.29,35.45,69.71z M23.01,67.72c-0.01,0-0.02,0.01-0.03,0.01
				c-0.01-0.01-0.01-0.01-0.02-0.02C22.98,67.71,22.99,67.72,23.01,67.72z M23.03,74.04c-0.02-0.04-0.04-0.07-0.07-0.11
				c0.03,0,0.05-0.02,0.08-0.03C23.04,73.95,23.04,73.99,23.03,74.04z M23.99,74.62C23.99,74.62,23.99,74.62,23.99,74.62
				C24,74.62,24,74.62,23.99,74.62C24,74.62,23.99,74.62,23.99,74.62z M24.67,77.09C24.67,77.09,24.67,77.09,24.67,77.09
				L24.67,77.09L24.67,77.09C24.67,77.08,24.67,77.08,24.67,77.09C24.67,77.08,24.67,77.08,24.67,77.09
				C24.67,77.09,24.67,77.09,24.67,77.09z M25.56,75.51C25.56,75.51,25.56,75.51,25.56,75.51C25.56,75.51,25.56,75.51,25.56,75.51
				L25.56,75.51z M25.85,75.34c-0.02-0.02-0.04-0.03-0.06-0.05c0.04,0,0.08,0,0.12,0C25.89,75.31,25.87,75.33,25.85,75.34z
				 M54.78,92.38c0,0.03-0.01,0.06-0.01,0.09c-0.03,0.01-0.06,0.02-0.09,0.03C54.71,92.46,54.75,92.42,54.78,92.38z M48.16,92.93
				c-0.08,0.44-0.13,0.88-0.17,1.33c0-0.15,0.01-0.31,0.01-0.46c-0.08-0.04-0.15-0.09-0.23-0.13
				C47.91,93.42,48.04,93.17,48.16,92.93z M64.03,63.26c0.1,0.02,0.2,0.06,0.29,0.11c-0.51-0.04-1.02-0.08-1.53-0.06
				C63.22,63.21,63.65,63.18,64.03,63.26z M62.37,70.58c0.14-0.26,0.28-0.49,0.45-0.7c-0.33,0.55-0.65,1.11-1.04,1.6
				C61.99,71.19,62.19,70.9,62.37,70.58z M56.72,61.09c-0.02,0.04-0.03,0.08-0.05,0.12c-0.02-0.08-0.06-0.15-0.1-0.22
				C56.62,61.02,56.67,61.06,56.72,61.09z M66.09,51.78c-0.02-0.01-0.05-0.02-0.08-0.03c0.03,0,0.05,0,0.08-0.01
				C66.09,51.76,66.09,51.77,66.09,51.78z M67.84,47.29C67.84,47.29,67.84,47.29,67.84,47.29c-0.04,0-0.07,0.01-0.11,0.01
				c0.08-0.04,0.15-0.08,0.23-0.12c0.93-0.4,1.9-0.4,3.04-0.07C69.95,47.12,68.88,46.94,67.84,47.29z"/>
			<path class="st1" d="M36.77,91.34c-1.32,0.22-2.64,0.42-3.96,0.56c-0.33,0.04-0.88-0.06-1.01-0.28
				c-0.25-0.43-0.48-0.88-0.71-1.33c0.16-0.44,0.04-0.86-0.24-1.23c-0.86-1.13-1.71-2.26-2.61-3.35c-0.54-0.65-1.26-1.06-2.15-1.02
				c-0.2,0.01-0.38,0.05-0.54,0.11c-0.55-0.18-0.79,0.21-0.76,0.75c-0.08,0.2-0.11,0.43-0.09,0.67c0.15,1.64,3.29,4.97,5.16,4.75
				c0.04,0.01,0.07,0,0.11,0c0.26,0.17,0.53,0.37,0.87,0.58c-2.26,0.9-3.94,0.02-5.67-0.6c-1.2-0.43-1.79-1.14-2-2.47
				c-0.04-0.27-0.11-0.53-0.17-0.8c0.14-0.44,0.13-0.93,0.1-1.43h0c0.06-0.46-0.11-0.87-0.3-1.28c-0.66-1.46-1.43-2.79-2.9-3.66
				c-0.33-0.19-0.62-0.38-0.92-0.49c-0.49-0.37-1.01-0.71-1.53-1.05c-1.99-1.27-3.9-2.51-6.42-1.84c-0.14,0.04-0.29-0.01-0.44-0.03
				c-1.81-0.2-3.57-0.01-5.28,0.45c-0.13,0-0.25,0.01-0.38,0c-0.9-0.02-1.72,0.03-2.1,0.92c-0.85,0.46-1.65,1.07-2.42,1.66
				c-0.3,0.23-0.5,0.98-0.37,1.35c0.28,0.75,0.66,1.45,1.07,2.12c0,0.04,0.01,0.07,0.01,0.11c0,0.19,0.06,0.35,0.23,0.46
				c0,0,0,0,0,0c0.86,1.54,2.2,2.47,3.63,3.29c0.72,0.47,1.46,0.92,2.12,1.46c1.54,1.26,3.33,1.48,5.12,1.48
				c1.15,0.1,2.32,0.08,3.48,0c0.32-0.02,0.76-0.08,0.93-0.29c0.01-0.01,0.02-0.02,0.04-0.04c1.39-0.19,2.78-0.43,4.18-0.59
				c0.35-0.04,0.74,0.06,1.07,0.19c1.21,0.48,2.37,1.07,3.61,1.47c1.09,0.35,2.24,0.7,3.37,0.7c3.16,0.03,6.31-0.12,9.47-0.21
				c0.25-0.01,0.51-0.14,0.85-0.24C38.54,91.16,37.69,91.19,36.77,91.34z M13.89,86.75c-0.01-0.01-0.01-0.02-0.02-0.04
				c0.02,0,0.04,0,0.06,0C13.91,86.72,13.9,86.73,13.89,86.75z M13.92,86.49L13.92,86.49L13.92,86.49L13.92,86.49z M21.77,86.02
				L21.77,86.02L21.77,86.02L21.77,86.02C21.77,86.02,21.77,86.02,21.77,86.02L21.77,86.02z"/>
			<path class="st1" d="M55.34,37.86c-0.12-0.26-0.69-0.51-1-0.45c-0.23,0.04-0.46,0.58-0.51,0.92c-0.09,0.64-0.06,1.31-0.08,1.96
				c0.54-0.36,1.17-0.64,1.57-1.12C55.55,38.9,55.51,38.24,55.34,37.86z"/>
			<path class="st1" d="M42.96,91.42c-0.39,0.37-0.65,0.87-1.01,1.39c0.64-0.12,1.12-0.13,1.54-0.3c0.26-0.1,0.48-0.41,0.61-0.68
				c0.06-0.12-0.13-0.52-0.24-0.53C43.56,91.26,43.14,91.25,42.96,91.42z"/>
			<path class="st1" d="M53.75,40.33c0-0.01,0-0.02,0-0.03c-0.01,0-0.01,0.01-0.02,0.01c0,0.02,0,0.04,0,0.05
				C53.74,40.35,53.75,40.34,53.75,40.33L53.75,40.33z"/>
			<path class="st1" d="M53.74,44.44c0,0,0.02-0.02,0.02-0.02c-0.01-0.01-0.01-0.02-0.02-0.03C53.74,44.41,53.74,44.43,53.74,44.44z
				"/>
			<path class="st1" d="M53.74,44.4c0-1.35-0.01-2.69-0.01-4.03C52.92,41.31,52.92,43.47,53.74,44.4z"/>
		</g>
		<g>
			<path class="st1" d="M224.03,139.04c-0.27-0.12-0.53-0.6-0.54-0.92c-0.05-2.34,0.07-4.67-0.85-6.92c-0.58-1.4-0.91-2.89-1.46-4.3
				c-0.57-1.45-1.32-2.83-1.92-4.27c-0.32-0.78-0.39-1.68-0.76-2.43c-0.53-1.1-1.23-2.12-1.86-3.17c-0.57-0.94-0.73-1.84,0-2.8
				c0.17-0.22,0.06-0.64,0.08-0.97c-0.22,0.2-0.44,0.4-0.67,0.59c-0.22,0.18-0.42,0.44-0.67,0.49c-0.14,0.03-0.41-0.25-0.52-0.44
				c-0.56-0.96-1.02-1.98-1.62-2.91c-1.29-2-1.05-2.96,0.78-4.56c0.62-0.54,0.87-1.57,1.14-2.42c0.07-0.21-0.42-0.59-0.65-0.89
				c-0.21,0.22-0.41,0.44-0.62,0.65c-0.12,0.12-0.29,0.32-0.39,0.3c-0.69-0.19-0.6,0.32-0.49,0.62c0.32,0.9,0.3,1.64-0.42,2.41
				c-0.59,0.63-0.97,0.77-1.37,0.02c-0.93-1.72-1.46-3.45-0.01-5.21c0.16-0.2,0.09-0.58,0.13-0.88c-0.21,0.19-0.42,0.39-0.64,0.57
				c-0.24,0.19-0.52,0.53-0.73,0.5c-0.24-0.04-0.5-0.38-0.63-0.65c-0.12-0.25-0.08-0.58-0.12-0.88c-0.08-0.59-0.33-0.9-0.98-0.63
				c-0.87,0.36-1.49-0.04-2.07-0.66c-0.56-0.6-0.67-1.21-0.28-1.93c0.09-0.16,0.19-0.38,0.15-0.53c-0.11-0.37-0.29-0.72-0.45-1.07
				c-0.26,0.11-0.51,0.27-0.77,0.33c-0.24,0.05-0.69,0.04-0.71-0.04c-0.12-0.41-0.1-0.86-0.18-1.29c-0.09-0.48-0.14-1-0.38-1.41
				c-0.08-0.14-0.93-0.09-0.97,0.03c-0.14,0.41-0.24,0.97-0.07,1.34c0.6,1.28,1.28,2.52,2,3.74c0.64,1.08,1.54,1.89,2.78,2.3
				c0.91,0.3,1.45,1,1.69,1.94c0.24,0.97,0.49,1.95,0.77,2.91c0.2,0.69,0.04,1.08-0.72,0.85c-1.1-0.32-2.17-0.72-3.25-1.1
				c-2.58-0.9-3.24-2.05-2.94-4.68c0.25-2.18-0.2-4.22-1.66-5.97c-1.25-1.5-3.33-1.56-4.66-0.21c-0.19,0.11-0.38,0.27-0.55,0.49
				c0,0,0,0,0,0c-0.16,0.14-0.29,0.28-0.41,0.43c-1.72,0.99-2.09,2.39-1.3,4.26c0.74,1.77,1.85,3.19,3.26,4.45
				c0.89,0.79,1.83,1.37,3.03,1.41c0.26,0.39,0.55,0.73,1.1,0.56c0.67-0.2,0.62-0.8,0.61-1.35c0.06,0.05,0.11,0.11,0.17,0.15
				c0.32,0.27,0.71,0.46,1.09,0.62c0.43,0.17,0.92,0.21,1.34,0.39c1.43,0.63,2.86,1.46,4.46,1.16c0.93-0.18,1.33,0.14,1.68,0.82
				c0.35,0.7,0.68,1.41,1,2.11c0.22,0.47,0.12,0.8-0.44,0.89c-0.26,0.04-0.57-0.04-0.77,0.09c-0.32,0.21-0.57,0.54-0.85,0.81
				c0.38,0.22,0.73,0.49,1.14,0.62c0.2,0.07,0.53-0.07,0.73-0.22c0.95-0.71,1.39-0.15,1.78,0.65c0.75,1.49,1.5,2.98,2.28,4.46
				c0.74,1.42,1.5,2.82,2.25,4.23c0.28,0.52,0.31,0.97-0.32,1.31c-0.26,0.14-0.44,0.44-0.66,0.67c0.34,0.15,0.67,0.32,1.02,0.46
				c0.41,0.17,1.07,0.2,1.21,0.49c0.69,1.4,1.26,2.85,1.83,4.31c0.09,0.22,0,0.6-0.15,0.78c-0.1,0.11-0.56,0.09-0.7-0.04
				c-1.26-1.12-2.84-1.39-4.39-1.79c-0.27-0.07-0.57-0.24-0.76-0.44c-0.14-0.15-0.28-0.3-0.42-0.45c0.07-0.09,0.13-0.2,0.17-0.32
				c0.24-0.7-0.38-1.11-1.04-1.3v0c-0.86-1.01-1.84-1.86-2.9-2.63c-0.06-0.07-0.12-0.14-0.17-0.21c-1.37-1.82-2.73-3.63-4.52-5.06
				c-0.6-0.48-1.31-0.83-1.99-1.2c-1.2-0.65-2.38-1.34-3.63-1.87c-0.93-0.39-1.97-0.23-2.69,0.51c-0.68,0.7-0.7,1.61-0.49,2.61
				c0.55,2.6,2.17,4.57,3.74,6.54c2.21,2.76,4.99,4.18,8.21,4.42c0.63,0.1,1.27,0.16,1.92,0.18c0.39,0.02,0.87,0,1.17-0.28
				c0,0,0,0,0,0c0.55-0.08,1.14-0.26,1.66-0.15c1.92,0.43,3.82,0.85,5.58,1.85c0.91,0.52,1.66,1.09,1.89,2.06
				c0.46,1.9,0.8,3.83,1.14,5.76c0.11,0.61,0.11,1.25,0.1,1.88c-0.02,1.18-0.07,2.36-0.16,3.54c-0.04,0.54-0.18,1.07-0.29,1.6
				c-0.08,0.42-0.27,0.85-0.26,1.27c0.06,2.77-0.8,5.35-1.6,7.94c-0.06,0.18-0.29,0.3-0.43,0.45c-0.16-0.18-0.36-0.33-0.48-0.53
				c-0.09-0.15-0.1-0.36-0.1-0.54c-0.04-2.15-0.99-3.83-2.51-5.31c-0.19-0.19-0.33-0.46-0.44-0.75c0.32-0.35,0.29-0.9,0.03-1
				c-0.11-0.04-0.2-0.1-0.28-0.15c-0.07-0.84,0.22-1.77-0.07-2.5c-1.1-2.81-2.65-5.28-5.9-6.03c-0.79-0.18-1.58-0.37-2.37-0.54
				c-0.3-0.1-0.6-0.18-0.92-0.2c-1-0.06-1.57,0.32-1.65,1.04c-0.06-0.06-0.12-0.12-0.18-0.18c-0.13,0.36-0.39,0.74-0.36,1.09
				c0.1,1.16,0.49,2.16,1.08,3.05c0.03,0.14,0.09,0.28,0.24,0.41c0.06,0.05,0.12,0.11,0.18,0.16c0.37,0.46,0.79,0.9,1.27,1.3
				c0.84,0.71,1.75,1.3,2.68,1.84c1.02,0.8,2.1,1.49,3.28,2.06c0.29,0.16,0.59,0.2,0.89,0.16c2.08,1.14,3.71,2.73,3.91,5.36
				c0.07,0.96,0.31,1.91,0.52,2.86c0.06,0.25,0.32,0.45,0.48,0.67c0.22-0.18,0.49-0.32,0.64-0.54c0.26-0.4,0.45-0.85,0.67-1.28
				c1.38-2.6,1.79-5.5,2.54-8.29c0.02-0.07,0-0.15,0.01-0.22c0.35-2.11,0.69-4.21,1.08-6.31
				C224.49,139.54,224.58,139.27,224.03,139.04z M194.5,97.92c-0.06-0.11,0.11-0.48,0.14-0.48c0.05,0,0.09,0.02,0.14,0.02
				c0.01,0.59,0.15,1.2,0.41,1.8c0.28,0.64,0.6,1.26,0.94,1.87C195.37,100.22,195.06,98.98,194.5,97.92z M197.7,95.25
				c0-0.01-0.01-0.03-0.01-0.04c0.02,0,0.03,0.01,0.05,0.01C197.73,95.23,197.71,95.24,197.7,95.25z M199.29,94.55
				c0.02-0.02,0.05-0.05,0.07-0.06c0.13-0.07,0.45,0.05,0.59,0.19C199.76,94.61,199.53,94.56,199.29,94.55z M201.55,115.36
				c-0.02-0.01-0.04-0.02-0.06-0.04c0.08,0.03,0.15,0.06,0.23,0.1C201.66,115.4,201.61,115.38,201.55,115.36z M206.92,122.53
				C206.92,122.53,206.92,122.53,206.92,122.53C206.92,122.53,206.92,122.53,206.92,122.53L206.92,122.53z M204.71,117.16
				c0.13,0.02,0.26,0.08,0.38,0.18c1.03,1,2.27,1.87,2.95,3.11C206.9,119.39,205.89,118.17,204.71,117.16z"/>
			<path class="st1" d="M263.16,131.75c-0.92-1.26-2.27-1.82-3.67-2.19c-1.24-0.32-2.5-0.56-3.77-0.7
				c-0.13-0.09-0.26-0.17-0.39-0.26c-0.15-0.11-0.33-0.18-0.5-0.25c-0.85-0.34-1.67-0.41-2.39,0.28c-0.03,0.03-0.05,0.04-0.08,0.06
				c-1.63,0.02-3.18-0.02-4.64,0.97c-0.34,0.23-0.55,0.4-0.6,0.64c-0.15,0.12-0.29,0.26-0.41,0.43c-0.13,0.17-0.32,0.39-0.51,0.42
				c-0.37,0.07-0.66,0.21-0.91,0.39c0-0.04-0.01-0.09,0-0.13c-0.26,0.12-0.54,0.22-0.79,0.36c-0.15,0.09-0.25,0.27-0.4,0.38
				c-1.75,1.33-2.75,3.1-3.16,5.26c-0.2,1.09-0.48,2.17-0.8,3.23c-0.11,0.37-0.37,0.88-0.68,0.98c-1.79,0.58-3.61,1.08-5.44,1.56
				c-0.19,0.05-0.66-0.21-0.66-0.33c0-0.11,0.04-0.22,0.07-0.33c0.11-0.07,0.21-0.16,0.3-0.29c0.12-0.12,0.24-0.24,0.37-0.37
				c0.12-0.02,0.24-0.04,0.32-0.11c0.31-0.3,0.76-0.7,0.75-1.05c0-0.02-0.01-0.04-0.01-0.06c0.2-0.22,0.39-0.44,0.59-0.66
				c0.57-0.29,0.93-0.82,1.38-1.24c0.1-0.1,0.2-0.2,0.29-0.31c-0.03,0.12-0.05,0.24-0.11,0.37c-0.09,0.21,0.06,0.53,0.11,0.8
				c0.2-0.2,0.51-0.37,0.6-0.61c0.28-0.76,0.48-1.56,0.75-2.47c-0.18-0.21-0.37-0.63-0.57-0.64c-0.45-0.01-0.92,0.15-1.35,0.32
				c-0.04,0.01-0.02,0.35,0.06,0.59c-0.25,0.01-0.52,0.1-0.77,0.21c-0.04-0.07-0.08-0.15-0.11-0.22c-0.07,0.1-0.14,0.21-0.22,0.31
				c-0.19,0.02-0.38,0.04-0.52,0.2l0,0c-1.44,0.35-1.81,1.76-2.64,2.71c-0.74,0.61-1.51,1.19-2.01,2.25
				c0.64-0.07,1.18-0.45,1.58-0.12c-0.01,0.01-0.01,0.03-0.02,0.04c-0.22,0.38-0.71,0.89-1.06,0.88c-1.32-0.03-2.63-0.26-3.95-0.41
				c-0.44-0.05-0.9-0.19-1.31-0.1c-0.37,0.08-0.67,0.43-1,0.66c0.33,0.15,0.66,0.42,1,0.43c2.53,0.07,5.06-0.04,7.58,0.15
				c2.93,0.23,5.39-1.14,7.96-2.11c0.62-0.23,1.16-0.38,1.77-0.31c2.13,0.26,4.25,0.53,5.75,0.71c3.1-0.01,5.44-0.13,7.66-1.59
				c1.79-1.18,3.48-2.39,4.81-3.95c0.04-0.02,0.08-0.05,0.11-0.06c0.28-0.14,0.41-0.37,0.44-0.63c0.52-0.71,0.98-1.48,1.34-2.35
				C263.6,132.85,263.59,132.34,263.16,131.75z M242.09,136.64L242.09,136.64C242.09,136.63,242.09,136.63,242.09,136.64
				C242.09,136.63,242.09,136.63,242.09,136.64z M242.09,136.21c-0.07,0.06-0.1,0.12-0.11,0.19c-0.11,0.18-0.21,0.36-0.29,0.55
				c0.24-1.03,0.65-1.99,1.67-2.7c0.01,0,0.01-0.01,0.02-0.01C242.92,134.87,242.4,135.47,242.09,136.21z M257.3,129.77
				c0.86,0.1,1.71,0.43,2.54,0.73C258.94,130.41,258.09,130.15,257.3,129.77z"/>
			<path class="st1" d="M225.39,103.84c0.33,0.47,0.8,0.9,1.3,1.2c0.16,0.1,0.3,0.19,0.43,0.3c0.1,0.13,0.22,0.25,0.35,0.36
				c0.22,0.29,0.31,0.65,0.21,1.13c-0.03,0.17,0.13,0.37,0.21,0.56c0.16-0.12,0.36-0.22,0.48-0.38c0.17-0.22,0.33-0.44,0.5-0.66
				c0.61,0.13,1.23,0.1,1.68-0.19c1.27-0.83,2.36-1.86,3.2-3.17c0.58-0.9,0.51-1.5-0.21-2.03c0.58-1.42,1.2-2.82,1.63-4.28
				c0.29-0.97,0.43-2.04,0.36-3.06c0.39-1.88,0.43-3.77-0.18-5.68c-0.2-0.64-0.51-1.15-1.15-1.23c-0.4-0.63-1.01-0.92-1.73-0.89
				c-0.08-0.01-0.16,0-0.25,0.01c-0.01,0-0.02,0-0.04,0c-0.01,0-0.02,0-0.03,0c-1.48,0.29-2.88,0.75-3.94,1.8
				c-0.17,0.09-0.35,0.18-0.52,0.28c-0.67,0.42-1.17,1.11-1.74,1.69c-0.42,0.27-0.91,0.46-1.23,0.81c-1.34,1.45-1.58,3.42-2.25,5.18
				c-0.1,0.26-0.09,0.59-0.06,0.88C222.7,99.21,223.83,101.62,225.39,103.84z M229.53,93.88C229.53,93.88,229.53,93.88,229.53,93.88
				C229.52,93.88,229.52,93.88,229.53,93.88C229.53,93.88,229.53,93.88,229.53,93.88z M229.09,96.45c0.03,0,0.07,0,0.1-0.01
				c-0.04,0.04-0.07,0.07-0.11,0.12C229.09,96.53,229.09,96.49,229.09,96.45z M227.74,92.75c-0.01,0.03-0.03,0.04-0.05,0.07
				c-0.01-0.02-0.01-0.04-0.02-0.07C227.69,92.75,227.72,92.75,227.74,92.75z M225.95,89.63c0.08-0.01,0.15-0.01,0.23-0.02
				c-0.1,0.08-0.19,0.16-0.28,0.24C225.92,89.78,225.94,89.71,225.95,89.63z"/>
			<path class="st1" d="M231.76,122.54c-0.37,0.03-0.67,0.19-0.66,0.89c0.03,0.14,0.02,0.28,0.03,0.42
				c-0.24,0.68-0.38,1.41-0.31,2.25c0,0.07-0.01,0.13-0.01,0.2c-0.13,0.34-0.2,0.69-0.27,1.04c-0.05,0.17-0.09,0.33-0.11,0.49
				c-0.06,0.19-0.13,0.37-0.23,0.55c-0.36,0.62-0.24,1.11,0.35,1.45c0.04,0.24,0.08,0.48,0.12,0.71c-0.21,0.39-0.44,0.8-0.09,1.02
				c0.31,0.19,0.58,0.47,0.87,0.71c-0.62,0.57-0.76,1.4-1.13,2.1c-0.09,0.17,0.04,0.47,0.07,0.71c0.22-0.1,0.45-0.18,0.65-0.31
				c0.58-0.36,1.14-0.74,1.71-1.11c0.03-0.02,0.07-0.03,0.11-0.02c1.49,0.17,2.71-0.4,3.93-1.21c1.52-1.01,3.29-1.85,4.11-3.49
				c0.69-1.37,1.27-2.81,1.79-4.26c0.11-0.11,0.2-0.23,0.32-0.33c0.35-0.31,0.61-0.79,0.19-1.18c0.14-0.43,0.27-0.85,0.4-1.28
				c0.5-1.73-1.1-3.92-2.64-4.07c-0.82-0.08-1.64-0.11-2.85-0.19c-1.35-0.01-2.72,0.79-3.87,2
				C233.36,120.57,232.43,121.49,231.76,122.54z M237.53,131.09c-0.01,0-0.01,0.01-0.01,0.01c-0.01,0.01-0.02,0.01-0.03,0.02
				C237.5,131.12,237.51,131.11,237.53,131.09z M234.37,132.76c-0.1,0.05-0.27,0.02-0.43-0.04c0.38-0.07,0.76-0.17,1.12-0.3
				C234.83,132.54,234.6,132.66,234.37,132.76z"/>
			<path class="st1" d="M211.44,93.06c0.19,0.15,0.21,0.52,0.36,0.91c-0.27-0.07-0.4-0.13-0.53-0.13c-0.34,0-0.84-0.1-0.98,0.08
				c-0.17,0.22-0.17,0.75-0.02,1.01c0.27,0.46,0.65,1,1.1,1.18c0.95,0.37,1.01,0.93,0.78,1.76c-0.19,0.67-0.34,1.37-0.41,2.07
				c-0.03,0.26,0.23,0.55,0.36,0.83c0.15-0.24,0.3-0.47,0.45-0.71c0.16-0.25,0.28-0.52,0.47-0.75c0.71-0.86,1.47-1.67,2.13-2.56
				c0.16-0.22,0.08-0.67,0.01-0.99c-0.02-0.1-0.52-0.21-0.54-0.18c-0.15,0.26-0.23,0.56-0.33,0.86c-0.02,0.07,0.03,0.16,0,0.22
				c-0.22,0.37-0.43,0.74-0.69,1.07c-0.04,0.05-0.44-0.06-0.46-0.13c-0.08-0.39-0.13-0.79-0.1-1.18c0.01-0.19,0.21-0.37,0.32-0.57
				c0.24-0.45,0.55-0.88,0.68-1.36c0.25-0.92,0-1.22-0.94-1.31c-1.22-0.11-1.6-0.89-1.09-1.96c0.29-0.61,0.47-1.35,0.43-2.02
				c-0.02-0.3-0.71-0.53-1.03-0.86c-0.26-0.25-0.39-0.62-0.64-0.88c-0.24-0.25-0.55-0.43-0.83-0.65c-0.2,0.28-0.54,0.54-0.57,0.83
				c-0.05,0.53-0.02,1.12,0.17,1.61C210.04,90.58,210.22,92.07,211.44,93.06z"/>
			<path class="st1" d="M218.03,112.98c0.9-0.55,1.77-1.16,2.7-1.64c1.76-0.9,3.57-1.72,5.34-2.59c0.36-0.18,0.69-0.43,0.98-0.71
				c0.11-0.11,0.03-0.4,0.04-0.61c-0.2,0.02-0.43-0.03-0.58,0.06c-0.99,0.56-1.95,1.2-2.96,1.71c-1.65,0.83-3.35,1.55-5,2.37
				c-0.42,0.21-0.78,0.56-1.1,0.92c-0.12,0.13-0.02,0.45-0.02,0.85C217.78,113.13,217.91,113.05,218.03,112.98z"/>
			<path class="st1" d="M209.05,99.37c0.11,0.2,0.53,0.22,0.8,0.32c-0.07-0.26-0.12-0.53-0.21-0.78c-0.32-0.84-0.69-1.66-0.99-2.51
				c-0.17-0.48-0.19-1.03-0.39-1.5c-0.13-0.3-0.46-0.51-0.69-0.77c-0.12,0-0.25,0-0.37,0c-0.1,0.37-0.4,0.84-0.28,1.11
				C207.56,96.66,208.29,98.03,209.05,99.37z"/>
			<path class="st1" d="M228.29,135.86c-0.94,0.67-1.92,1.3-2.84,1.99c-0.16,0.12-0.2,0.45-0.23,0.69c-0.01,0.09,0.24,0.3,0.27,0.28
				c0.2-0.11,0.39-0.28,0.57-0.43c0.26-0.22,0.5-0.48,0.78-0.67c0.9-0.58,1.83-1.11,2.7-1.72c0.19-0.13,0.24-0.49,0.31-0.76
				c0.02-0.07-0.18-0.19-0.34-0.33C229.09,135.25,228.7,135.57,228.29,135.86z"/>
			<path class="st1" d="M208.45,91.96c0.21,0.09,0.73-0.49,1.1-0.77c-0.44-0.43-0.88-0.85-1.46-1.41c-0.47,0.45-0.75,0.71-1.03,0.98
				C207.52,91.18,207.91,91.72,208.45,91.96z"/>
			<path class="st1" d="M218.87,118.88c-0.04,0.06,0.51,0.7,0.57,0.67c0.49-0.26,0.92-0.62,1.54-1.07c-0.47-0.38-0.9-0.82-0.97-0.77
				C219.58,118.04,219.19,118.44,218.87,118.88z"/>
			<path class="st1" d="M221.16,143.43c-0.36-0.32-0.69-0.67-1.09-0.91c-0.08-0.05-0.42,0.35-0.89,0.76
				c0.65,0.3,1.05,0.54,1.48,0.66C220.78,143.96,221,143.61,221.16,143.43z"/>
		</g>
	</g>
	<g>
		<g>
			<path class="st1" d="M46.35,1.09c1.05-0.26,2.01-0.26,2.96-0.27C55.77,0.75,62.23,1.1,68.67,0.6c6.37-0.49,12.74-0.46,19.12-0.53
				c3.97-0.04,7.9,0.36,11.84,0.63c6.71,0.45,13.43,0.26,20.14,0.27c10.37,0.02,20.75,0.08,31.11-0.09
				c11.64-0.19,23.29,0.2,34.91-0.43c7.91-0.43,15.81-0.4,23.72-0.46c3.27-0.02,6.44,0.72,9.66,1.02c0.99,0.09,1.45,0.67,1.64,1.55
				c0.09,0.4,0.13,0.81,0.16,1.22c0.62,7.41,0.66,14.83,0.57,22.25c-0.09,7.02,0.7,14,0.93,21.01c0.32,9.84,0.7,19.68,0.56,29.54
				c0,0.26-0.02,0.53-0.08,0.78c-0.06,0.27-0.24,0.48-0.56,0.44c-0.26-0.03-0.38-0.23-0.4-0.47c-0.02-0.3-0.01-0.6-0.02-0.89
				c-0.02-5.6,0.1-11.2-0.1-16.79c-0.24-6.75-0.21-13.52-0.79-20.23c-0.73-8.58-0.27-17.15-0.47-25.72
				c-0.08-3.43-0.57-6.84-0.36-10.28c0.06-1.03-0.54-1.26-1.43-1.42c-9-1.57-18.06-1.12-27.12-0.79
				c-10.18,0.37-20.35,0.62-30.54,0.68c-18.17,0.12-36.34,0.1-54.51,0.14c-4.23,0.01-8.41-0.54-12.62-0.72
				C84.7,0.9,75.35,1.08,66,1.7c-3.54,0.23-7.09,0.1-10.63,0.05c-2.72-0.04-5.44-0.21-8.16-0.32C46.96,1.41,46.68,1.48,46.35,1.09z"
				/>
			<path class="st1" d="M45.52,106.05c0.39,0.98,0.46,1.97,0.48,2.95c0.31,10.93,0.42,21.85,0.41,32.79c-0.01,10.97,0,21.94,0,32.9
				c0,1.79,0.08,1.93,1.8,1.83c4.62-0.27,9.13,0.57,13.68,1.14c6.11,0.77,12.26,1.07,18.42,1.11c7.28,0.05,14.54-0.25,21.8-0.69
				c6.59-0.4,13.19-0.41,19.79-0.8c8.41-0.49,16.82-1.11,25.23-1.61c7.16-0.43,14.32-0.32,21.48-0.35c0.41,0,1.1-0.19,1.12,0.38
				c0.02,0.62-0.68,0.57-1.15,0.56c-5.52-0.06-11.04,0.1-16.56,0.24c-7.65,0.19-15.27,0.87-22.89,1.38
				c-11.24,0.74-22.51,0.87-33.76,1.57c-7.5,0.47-14.99,0.51-22.48,0.18c-6.22-0.28-12.4-1.02-18.56-1.98
				c-2.25-0.35-4.54-0.07-6.82-0.08c-1.91-0.01-2.07-0.14-2.07-2.01c-0.02-18.02-0.02-36.04-0.05-54.06
				c-0.01-4.81-0.07-9.62-0.1-14.43C45.29,106.74,45.17,106.39,45.52,106.05z"/>
			<path class="st1" d="M45.8,4.84c0.38,0.48,0.29,0.86,0.29,1.22c0.03,5.03,0.16,10.07,0.04,15.1c-0.1,4.06-0.57,8.1-0.55,12.17
				c0,0.33,0.02,0.8-0.43,0.77c-0.63-0.05-0.53-0.63-0.5-1.06c0.14-2.6,0.2-5.22,0.48-7.81c0.47-4.35,0.32-8.71,0.37-13.07
				C45.53,9.77,45.58,7.39,45.8,4.84z"/>
			<path class="st1" d="M220.13,166.31c0,2.42,0,4.85,0,7.27c0,0.44,0.04,0.9-0.25,1.29c-0.17,0.23-0.41,0.33-0.69,0.27
				c-0.28-0.07-0.25-0.29-0.23-0.53c0.39-4.8,0.03-9.61,0.25-14.41c0.02-0.52-0.01-1.05,0.04-1.56c0.03-0.37-0.12-0.98,0.45-0.96
				c0.46,0.01,0.36,0.57,0.37,0.92c0.03,1.49,0.04,2.98,0.05,4.47c0.01,1.08,0,2.16,0,3.24
				C220.12,166.31,220.13,166.31,220.13,166.31z"/>
		</g>
		<g>
			<path class="st1" d="M219.28,174.59c-1.78-1.21-3.54-2.46-5.42-3.5c-1.15-0.64-2-1.72-3.58-1.78c-2.13-0.08-4.24-0.65-6.36-0.93
				c-0.46-0.06-0.75-0.13-0.92-0.27c0.39-0.1,0.65-0.31,0.34-0.83c-0.1-0.16-0.17-0.33-0.23-0.5c0.6-1.68,0.53-3.32-0.35-4.92
				c-0.41-0.75-0.84-1.49-1.27-2.24c-1.61-2.78-4.06-4.36-7.17-5.02c-0.82-0.17-1.42-0.04-1.4,0.92c-0.15,0.33-0.21,0.67-0.12,1.04
				c0,0,0,0,0,0c0.07,0.3,0.15,0.6,0.22,0.9c0.05,0.77,0.11,1.54,0.23,2.31c0.35,2.26,1.98,3.78,3.32,5.46
				c0.33,0.41,0.67,0.53,1.05,0.42c0.79,0.71,1.53,1.48,2.26,2.26c-0.33,0.01-0.65,0.03-0.96,0.05c-0.4,0.03-0.8,0.16-1.2,0.16
				c-2.89,0.02-5.79,0.03-8.68,0.01c-0.79,0-1.71,0.14-2.34-0.2c-1.08-0.57-2.07-1.29-3.03-1.97c0.05-0.51-0.13-1.07-0.59-1.28
				c-0.51-0.23-0.92-0.57-1.31-0.94c-0.9-0.97-1.8-1.94-2.69-2.91c-0.04,0.04-0.08,0.08-0.12,0.11c-0.2-0.12-0.42-0.2-0.65-0.25
				c-0.01-0.26-0.21-0.47-0.64-0.65c-1.71-0.72-3.45-0.5-5.13,0.15c-0.58,0.23-0.64,0.7-0.32,1.29c0.06,0.12,0.13,0.24,0.19,0.36
				c0.03,0.23,0.16,0.47,0.33,0.74c0.19,0.28,0.39,0.56,0.59,0.83c0.28,0.43,0.57,0.84,0.9,1.22c0.19,0.73,0.73,1.03,1.3,1.29
				c0.36,0.29,0.74,0.57,1.17,0.8c0.33,0.18,0.54,0.56,0.96,1.02c-2.64,1.11-4.03,3.26-5.73,5.05c-0.84,0.89-0.76,1.54,0.32,2.09
				c0.74,0.37,1.48,0.77,2.24,1.1c0.09,0.39,0.41,0.61,0.75,0.63c0.62,0.04,1.25,0.12,1.88,0.13c0.01,0,0.02,0,0.03,0
				c0.19,0,0.38-0.01,0.57-0.02c0.65-0.04,1.32-0.16,1.96-0.26c0.68-0.11,1.31-0.52,1.97-0.76c2.6-0.95,4.37-2.6,4.93-5.43
				c0.09-0.44,0.7-1.05,1.12-1.09c1.37-0.15,2.75-0.08,4.13-0.06c0.24,0,0.48,0.16,0.88,0.3c-0.3,0.23-0.4,0.34-0.53,0.39
				c-2.02,0.73-3.07,2.31-3.67,4.19c-0.02,0.02-0.04,0.04-0.06,0.06c-0.6,0.66-1.14,1.46-0.89,2.4c0.1,0.38,0.35,0.72,0.67,1.01
				c0.14,0.92,0.81,1.72,1.85,1.25c0.18-0.08,0.36-0.16,0.54-0.25c0.73,0.07,1.43-0.05,1.9-0.44c0.64-0.52,1.21-1.1,1.77-1.7
				c0.05-0.04,0.1-0.07,0.15-0.12c0.55-0.5,1.02-1.06,1.45-1.66c0.48-0.54,0.95-1.08,1.46-1.59c0.66-0.67,1.01-1.35,0.79-2.28
				c0.02-0.17,0.02-0.33,0-0.49c0.24-0.34,0.66-0.65,1.03-0.83c1.76-0.87,3.59-0.29,5.4-0.16c1.43,0.11,2.51,1.22,4.11,1.18
				c1.39-0.03,2.9,0.62,4.19,1.29c2.03,1.05,3.91,2.38,5.87,3.56c0.26,0.15,0.62,0.13,0.94,0.19
				C219.57,175.14,219.5,174.74,219.28,174.59z M193.47,157.21C193.47,157.21,193.47,157.21,193.47,157.21
				c-0.01-0.02-0.01-0.03-0.01-0.05C193.54,157.15,193.46,157.33,193.47,157.21z M173.2,161c0-0.05-0.01-0.09-0.01-0.14
				c-0.01-0.08,0.11-0.18,0.21-0.34c0.09,0.07,0.16,0.12,0.24,0.19C173.5,160.84,173.36,160.95,173.2,161z M174.69,160.6
				c-0.05-0.04-0.1-0.07-0.15-0.09c0.33-0.3,0.62-0.37,1.17-0.14C175.37,160.39,175.03,160.49,174.69,160.6z M176.58,173.58
				c0-0.04,0-0.07,0-0.11c0.04,0.04,0.06,0.07,0.11,0.11C176.66,173.58,176.62,173.58,176.58,173.58z M182.72,174.34
				c0.02-0.02,0.04-0.05,0.07-0.07l0.06,0C182.81,174.3,182.76,174.32,182.72,174.34z M184.68,172.58c0.03-0.09,0.08-0.16,0.1-0.26
				c0.26-0.52,0.54-1.03,0.77-1.56C185.4,171.44,185.09,172.04,184.68,172.58z M185.63,168.44c-0.09-0.17-0.21-0.33-0.36-0.48
				c0.2,0.09,0.39,0.19,0.54,0.31C185.75,168.34,185.69,168.38,185.63,168.44z M202.44,164.62c-0.07-0.17-0.14-0.34-0.21-0.51l0,0
				c0.02-0.41-0.01-0.79-0.05-1.17c0.17,0.51,0.32,1.04,0.41,1.58c0.04,0.22,0.04,0.45,0.03,0.68
				C202.58,165,202.52,164.81,202.44,164.62z"/>
			<path class="st1" d="M211.7,168.4c0.83-0.01,1.45-0.86,1.44-2.01c0-1.01-0.82-2.12-1.57-2.14c-0.83-0.03-1.45,0.92-1.49,2.25
				C210.06,167.47,210.85,168.4,211.7,168.4z M211.34,164.98c0.9,0.36,1.07,1.05,1.04,1.81c-0.01,0.18-0.16,0.46-0.31,0.51
				c-0.14,0.06-0.45-0.06-0.55-0.2C211.02,166.48,210.65,165.81,211.34,164.98z"/>
			<path class="st1" d="M205.99,170.02c-2.84,0.79-3.61,1.5-3.01,2.57c0.37-0.33,0.71-0.73,1.13-0.97c0.28-0.16,0.7-0.17,1.04-0.13
				c0.1,0.01,0.27,0.54,0.18,0.66c-0.22,0.3-0.54,0.58-0.89,0.73c-0.34,0.15-0.75,0.12-1.33,0.2c1.03,0.88,1.75,0.36,2.44-0.1
				C206.79,172.14,205.74,171.1,205.99,170.02z"/>
		</g>
		<g>
			<path class="st1" d="M53.74,44.44c0.01-0.01,0.01-0.01,0.02-0.02l0,0C53.76,44.42,53.74,44.44,53.74,44.44z"/>
			<path class="st1" d="M72.77,46.87c-0.41-0.36-1.13-0.42-1.73-0.5c-2.26-0.31-4.33,0.18-6.19,1.72c0.03,0.01,0.06,0.02,0.09,0.04
				c-0.28,0.1-0.54,0.23-0.75,0.45c-0.08-0.09-0.15-0.19-0.23-0.28c-0.8,0.67-1.6,1.34-2.41,2.02c0.03,0.04,0.06,0.07,0.09,0.11
				c-0.29,0.23-0.58,0.45-0.88,0.67c-0.21,0.16-0.33,0.32-0.4,0.51c-0.01,0.01-0.03,0.02-0.04,0.03c-1.6,1.63-3.54,2.69-5.72,3.31
				c-0.34,0.1-0.85,0.05-1.11-0.15c-0.16-0.12-0.05-0.67,0.02-1.01c0.12-0.62,0.38-1.22,0.42-1.84c0.09-1.41,0.87-2.25,2.06-2.81
				c2.83-1.34,3.52-4.15,4.57-6.7c0.08-0.19-0.2-0.68-0.42-0.78c-0.21-0.1-0.77,0.07-0.82,0.23c-0.15,0.48-0.12,1.01-0.17,1.52
				c-0.04,0.35-0.04,0.72-0.17,1.03c-0.05,0.11-0.44,0.12-0.67,0.11c-0.38-0.02-0.76-0.1-1.15-0.15c-0.05,0.46-0.27,0.99-0.11,1.36
				c0.27,0.65,0.68,1.23-0.05,1.77c-0.56,0.41-1.16,0.82-1.8,1.05c-0.27,0.1-0.81-0.18-1.03-0.45c-0.13-0.16,0.07-0.66,0.21-0.96
				c0.42-0.86,0.95-1.68,1.32-2.56c0.34-0.81,0.55-1.68,0.76-2.54c0.08-0.34,0.16-0.86-0.02-1.05c-0.23-0.24-0.84-0.42-1.07-0.27
				c-0.29,0.18-0.6,0.83-0.48,1.08c0.64,1.37-0.36,1.92-1.15,2.6c0.06,0.71,1.05,1.33,0.22,2.14c-0.91,0.89-1.73,1.83-1.66,3.31
				c-0.48-0.65-0.74-1.35-1.09-2c-0.28-0.52-0.57-1.16-1.04-1.44c-0.65-0.38-0.86-0.83-0.91-1.51c-0.05-0.72,0.39-0.88,0.91-1.19
				c0.44-0.26,0.9-0.9,0.89-1.37C51.08,42,50.32,41.3,50,41.35c-0.52,0.1-1.17,0.6-1.37,1.09c-0.26,0.61-0.13,1.38-0.14,2.08
				c-0.01,0.34,0.03,0.68,0.07,1.34c-0.78-0.5-1.3-0.82-1.81-1.17c-0.93-0.64-1.65-1.35-1.88-2.61c-0.26-1.4,0.44-1.95,1.41-2.63
				c0.37-0.26,0.29-1.16,0.42-1.77c-0.59-0.08-1.25-0.37-1.76-0.21c-0.83,0.27-0.72,1.05-0.6,1.8c0.11,0.66,0.02,1.36,0.02,2.04
				c-0.16,0.02-0.32,0.03-0.47,0.05c-0.18-0.49-0.26-1.06-0.57-1.46c-0.31-0.4-0.81-0.78-1.28-0.87c-0.22-0.04-0.83,0.67-0.8,0.99
				c0.05,0.45,0.47,0.91,0.84,1.26c0.36,0.35,0.94,0.48,1.26,0.85c1.45,1.63,2.85,3.3,4.79,4.4c0.24,0.14,0.36,0.49,0.54,0.74
				c-0.05,0.12-0.09,0.24-0.14,0.37c-1.3-0.14-2.59-0.28-3.89-0.44c-0.1-0.01-0.26-0.22-0.24-0.31c0.02-0.15,0.13-0.35,0.26-0.42
				c0.2-0.1,0.45-0.1,0.81-0.17c-0.2-0.26-0.3-0.5-0.42-0.51c-0.35-0.01-0.86-0.06-1.01,0.13c-0.24,0.31-0.43,0.9-0.28,1.2
				c0.21,0.44,0.73,1,1.14,1.02c1.44,0.06,2.9-0.13,4.34-0.12c0.42,0,0.99,0.24,1.24,0.56c0.65,0.85,1.12,1.84,1.75,2.72
				c0.73,1.03,0.84,2.03,0.21,3.13c-0.22,0.39-0.41,0.79-0.57,1.21c-0.28,0.7-0.69,0.72-1.19,0.25c-0.67-0.63-0.94-1.37-0.76-2.3
				c0.01,0,0.01,0,0.02,0c0.28-0.03,0.76,0.09,0.64-0.54c-0.19-0.96-1.66-1.8-2.57-1.48c-0.45,0.15-0.67,0.51-0.64,0.94
				c0.01,0.2,0.07,0.39,0.18,0.54c-0.07,0.12-0.14,0.23-0.18,0.31c0.96,1.03,1.79,1.99,2.71,2.88c0.63,0.61,0.82,1.3,0.45,2.02
				c-0.84,1.64-1.78,3.23-2.72,4.91c-0.23-0.18-0.42-0.26-0.5-0.4c-0.78-1.35-1.97-2.21-3.35-2.84c-1.39-0.63-2.8-1.21-4.15-1.91
				c-1.32-0.68-2.62-1.41-3.84-2.26c-0.83-0.58-0.7-1.04,0.08-1.66c0.6-0.48,1.27-0.98,1.65-1.62c0.45-0.75,0.91-1.49,1.33-2.26
				c0.29-0.25,0.59-0.49,0.93-0.68c0.37-0.21,0.44-0.67,0.38-1.1c0.23-0.8,0.25-1.6,0.07-2.4c0.07-0.77,0.05-1.5-0.07-2.2
				c0-0.77-0.16-1.52-0.35-2.23c-0.34-1.28-0.75-2.66-2.35-3.04c-0.1-0.07-0.2-0.15-0.29-0.22c-1.53-1.48-3.49-2.38-5.43-3.26
				c-0.34-0.22-0.67-0.34-0.98-0.35c-1.51-0.37-2.42,0.38-2.71,2.17c-0.24,1.45-0.43,2.9-0.63,4.36c-0.08,0.59-0.29,1.19-0.21,1.76
				c0.43,3.25,1.57,6.25,3.4,8.97c0.29,0.43,0.61,0.91,1.04,1.14c1.35,0.7,2.58,1.45,3.25,2.91c0.15,0.34,0.57,0.6,0.93,0.78
				c1.84,0.96,3.71,1.87,5.56,2.83c1.35,0.7,2.85,1.24,3.97,2.22c1.65,1.45,1.99,2.4,0.86,4.37c-0.84,1.47-1.46,3.05-2.15,4.6
				c-0.45,1-0.85,2.01-1.36,3.21c-0.59-0.82-1.09-1.53-1.26-2.33c0.03-0.07,0.06-0.15,0.08-0.23l0,0c0.29-0.45,0.19-0.85-0.01-1.24
				c0.2-0.94-0.19-1.75-0.96-2.29c-0.78-0.55-1.62-1.19-2.52-1.35c-0.24-0.04-0.49-0.06-0.75-0.07c-0.54-0.09-1.09-0.06-1.57,0.26
				c-0.17,0.06-0.34,0.12-0.49,0.2c-0.81,0.44-0.78,2.99-0.22,3.81c0.74,1.07,1.73,1.41,2.81,1.5c0.53,0.16,1.07,0.31,1.62,0.41
				c0.54,0.1,0.97,0.05,1.31-0.14c0.53,0.31,0.79,0.88,0.75,1.79c-0.06,1.62-0.35,3.23-0.62,4.84c-0.26,1.53-0.74,3.03-0.93,4.57
				c-0.14,1.13,0.06,2.3,0.07,3.45c0,0.25-0.19,0.51-0.29,0.76c-0.25-0.11-0.53-0.18-0.75-0.34c-1.21-0.91-2.4-1.87-3.62-2.77
				c-2.27-1.68-2.91-2.01-2.92-3.31c0.06-0.07,0.11-0.13,0.16-0.19c0.63-0.89,1.05-1.83,0.94-3c-0.1-0.99-0.47-1.9-0.79-2.82
				c-0.19-1.56-0.68-3.06-1.63-4.44c-1.44-2.09-2.98-4.13-5.49-4.49c-0.29-0.13-0.56-0.14-0.83-0.05c-0.39,0-0.79,0.04-1.22,0.12
				c-0.07,0.01-0.15-0.01-0.22-0.02c-2.37-0.19-4.32,1.86-3.79,4.18c0.16,0.72,0.41,1.41,0.68,2.11c0.06,0.33,0.14,0.64,0.35,0.91
				c0.21,0.53,0.41,1.06,0.58,1.6c1.12,3.53,3.9,5.31,7.01,6.74c0.46,0.21,1.04,0.38,1.51,0.28c0.98-0.21,1.63,0.25,2.34,0.77
				c1.62,1.19,3.25,2.36,4.89,3.52c1.66,1.18,2.69,2.64,2.86,4.79c0.31,3.9,1.12,7.71,2.86,11.26c0.77,1.57,1.44,3.18,2.19,4.75
				c0.2,0.42,0.54,0.76,0.82,1.14c0.1-0.06,0.2-0.12,0.31-0.18c-0.11-0.33-0.24-0.65-0.34-0.98c-0.15-0.5-0.33-0.99-0.41-1.5
				c-0.09-0.63-0.08-1.27-0.13-1.91c-0.15-2.04-0.11-4.11,1.34-5.68c0.82-0.89,1.87-1.6,2.91-2.27c0,0,0.01-0.01,0.01-0.01
				c0.2-0.13,0.41-0.26,0.61-0.39c1.47-0.93,3.1-1.63,4.55-2.59c1.83-1.22,3.22-2.87,3.88-5.03c0.26-0.85,0.26-1.66-0.54-2.34
				c-0.73-0.63-1.43-0.89-2.33-0.4c-0.29,0.16-0.63,0.27-0.96,0.28c-4.02,0.23-8.3,4.75-7.4,9.2c0.15,0.76-0.16,1.29-0.74,1.85
				c-1.49,1.43-2.58,3.09-2.34,5.32c0.04,0.38-0.13,0.78-0.25,1.4c-2.18-3.58-2.55-7.37-2.93-11.06c-0.29-2.93,0.1-5.93,0.13-8.89
				c0.03-2.44,0.83-4.46,3.22-5.36c1.82-0.68,3.83-1.6,5.63-1.39c2.32,0.26,4.44,0.02,6.58-0.59c1.08-0.31,2.09-0.95,3.05-1.58
				c2.62-1.73,4.06-4.43,5.47-7.09c0.49-0.93,0.62-2.14,0.64-3.23c0.02-1.24-1.29-2.14-2.49-1.85c-4.16,1.01-7.15,3.66-9.66,6.95
				c-0.56,0.73-1.1,1.49-1.68,2.21c-0.38,0.26-0.81,0.53-0.87,1.03c-0.4,0.42-0.81,0.82-1.2,1.24c-0.54,0.13-0.67,0.62-0.87,1.04
				c0,0.01-0.01,0.01-0.01,0.02c-0.66,0.95-1.53,1.32-2.53,1.67c-1.05,0.36-2.05,0.86-3.08,1.29c-0.31,0.13-0.63,0.24-0.95,0.37
				c-0.01-0.42-0.11-0.87-0.02-1.26c0.14-0.6,0.39-1.18,0.65-1.75c0.53-1.19,0.61-2.82,2.59-2.64c0.2,0.02,0.5-0.39,0.62-0.65
				c0.04-0.08-0.33-0.51-0.53-0.53c-1-0.07-0.88-0.61-0.57-1.23c1.53-3.01,3.08-6.01,4.65-9c0.15-0.28,0.52-0.44,0.78-0.65
				c0.19,0.29,0.46,0.56,0.55,0.88c0.4,1.32,1.24,1.92,2.61,1.97c0.61,0.02,1.15-0.06,1.65-0.25c0.34-0.06,0.6-0.22,0.8-0.44
				c0.27-0.21,0.53-0.46,0.76-0.77c0.23-0.32,0.56-0.98,0.49-1.03c-0.43-0.33-0.96-0.54-1.45-0.79c-0.05,0.09-0.09,0.19-0.14,0.28
				c-0.08-0.04-0.17-0.08-0.26-0.11c-0.83-0.34-1.61-0.64-2.39-0.44c-0.31-0.24-0.68-0.37-1.2-0.32c-0.56,0.06-1.14-0.18-0.83-0.92
				c0.39-0.92,0.87-1.81,1.39-2.66c0.12-0.2,0.56-0.24,0.86-0.3c1.26-0.27,2.69-0.24,3.75-0.84c0.77-0.44,1.54-0.73,2.3-0.92
				c0.3,0.17,0.71,0.06,1.05,0.06c1.25,0.02,2.5,0.01,3.75,0c0.62,0.14,1.24,0.3,1.86,0.5c1.96,0.62,3.89,0.69,5.85,0.56
				c1.57-0.11,2.72-1.15,3.66-2.36c0.19-0.24,0.29-0.63,0.27-0.93C75.75,49.59,74.28,48.19,72.77,46.87z M37.83,46.86
				c0.01,0,0.03,0,0.05,0c-0.02,0.01-0.03,0.02-0.05,0.03C37.83,46.87,37.83,46.87,37.83,46.86z M37.07,42.64
				c-0.03,0-0.05,0.01-0.08,0.01c0-0.02-0.01-0.03-0.01-0.05C37.01,42.61,37.04,42.62,37.07,42.64z M28.4,38.21
				c-0.04-0.05-0.08-0.08-0.13-0.13c0.06-0.01,0.11-0.01,0.17-0.02C28.43,38.11,28.41,38.16,28.4,38.21z M30.98,50.52
				c0.17,0.41,0.34,0.83,0.53,1.23C31.26,51.41,31.08,51,30.98,50.52z M34.29,45.24c0-0.01,0.01-0.01,0.01-0.02
				c0,0.05,0.01,0.1,0.01,0.15C34.3,45.32,34.3,45.28,34.29,45.24z M35.45,69.71C35.45,69.71,35.45,69.71,35.45,69.71
				c0.16,0.39,0.29,0.79,0.45,1.18C35.56,70.64,35.32,70.29,35.45,69.71z M23.01,67.72c-0.01,0-0.02,0.01-0.03,0.01
				c-0.01-0.01-0.01-0.01-0.02-0.02C22.98,67.71,22.99,67.72,23.01,67.72z M23.03,74.04c-0.02-0.04-0.04-0.07-0.07-0.11
				c0.03,0,0.05-0.02,0.08-0.03C23.04,73.95,23.04,73.99,23.03,74.04z M23.99,74.62C23.99,74.62,23.99,74.62,23.99,74.62
				C24,74.62,24,74.62,23.99,74.62C24,74.62,23.99,74.62,23.99,74.62z M24.67,77.09C24.67,77.09,24.67,77.09,24.67,77.09
				L24.67,77.09L24.67,77.09C24.67,77.08,24.67,77.08,24.67,77.09C24.67,77.08,24.67,77.08,24.67,77.09
				C24.67,77.09,24.67,77.09,24.67,77.09z M25.56,75.51C25.56,75.51,25.56,75.51,25.56,75.51C25.56,75.51,25.56,75.51,25.56,75.51
				L25.56,75.51z M25.85,75.34c-0.02-0.02-0.04-0.03-0.06-0.05c0.04,0,0.08,0,0.12,0C25.89,75.31,25.87,75.33,25.85,75.34z
				 M54.78,92.38c0,0.03-0.01,0.06-0.01,0.09c-0.03,0.01-0.06,0.02-0.09,0.03C54.71,92.46,54.75,92.42,54.78,92.38z M48.16,92.93
				c-0.08,0.44-0.13,0.88-0.17,1.33c0-0.15,0.01-0.31,0.01-0.46c-0.08-0.04-0.15-0.09-0.23-0.13
				C47.91,93.42,48.04,93.17,48.16,92.93z M64.03,63.26c0.1,0.02,0.2,0.06,0.29,0.11c-0.51-0.04-1.02-0.08-1.53-0.06
				C63.22,63.21,63.65,63.18,64.03,63.26z M62.37,70.58c0.14-0.26,0.28-0.49,0.45-0.7c-0.33,0.55-0.65,1.11-1.04,1.6
				C61.99,71.19,62.19,70.9,62.37,70.58z M56.72,61.09c-0.02,0.04-0.03,0.08-0.05,0.12c-0.02-0.08-0.06-0.15-0.1-0.22
				C56.62,61.02,56.67,61.06,56.72,61.09z M66.09,51.78c-0.02-0.01-0.05-0.02-0.08-0.03c0.03,0,0.05,0,0.08-0.01
				C66.09,51.76,66.09,51.77,66.09,51.78z M67.84,47.29C67.84,47.29,67.84,47.29,67.84,47.29c-0.04,0-0.07,0.01-0.11,0.01
				c0.08-0.04,0.15-0.08,0.23-0.12c0.93-0.4,1.9-0.4,3.04-0.07C69.95,47.12,68.88,46.94,67.84,47.29z"/>
			<path class="st1" d="M36.77,91.34c-1.32,0.22-2.64,0.42-3.96,0.56c-0.33,0.04-0.88-0.06-1.01-0.28
				c-0.25-0.43-0.48-0.88-0.71-1.33c0.16-0.44,0.04-0.86-0.24-1.23c-0.86-1.13-1.71-2.26-2.61-3.35c-0.54-0.65-1.26-1.06-2.15-1.02
				c-0.2,0.01-0.38,0.05-0.54,0.11c-0.55-0.18-0.79,0.21-0.76,0.75c-0.08,0.2-0.11,0.43-0.09,0.67c0.15,1.64,3.29,4.97,5.16,4.75
				c0.04,0.01,0.07,0,0.11,0c0.26,0.17,0.53,0.37,0.87,0.58c-2.26,0.9-3.94,0.02-5.67-0.6c-1.2-0.43-1.79-1.14-2-2.47
				c-0.04-0.27-0.11-0.53-0.17-0.8c0.14-0.44,0.13-0.93,0.1-1.43h0c0.06-0.46-0.11-0.87-0.3-1.28c-0.66-1.46-1.43-2.79-2.9-3.66
				c-0.33-0.19-0.62-0.38-0.92-0.49c-0.49-0.37-1.01-0.71-1.53-1.05c-1.99-1.27-3.9-2.51-6.42-1.84c-0.14,0.04-0.29-0.01-0.44-0.03
				c-1.81-0.2-3.57-0.01-5.28,0.45c-0.13,0-0.25,0.01-0.38,0c-0.9-0.02-1.72,0.03-2.1,0.92c-0.85,0.46-1.65,1.07-2.42,1.66
				c-0.3,0.23-0.5,0.98-0.37,1.35c0.28,0.75,0.66,1.45,1.07,2.12c0,0.04,0.01,0.07,0.01,0.11c0,0.19,0.06,0.35,0.23,0.46
				c0,0,0,0,0,0c0.86,1.54,2.2,2.47,3.63,3.29c0.72,0.47,1.46,0.92,2.12,1.46c1.54,1.26,3.33,1.48,5.12,1.48
				c1.15,0.1,2.32,0.08,3.48,0c0.32-0.02,0.76-0.08,0.93-0.29c0.01-0.01,0.02-0.02,0.04-0.04c1.39-0.19,2.78-0.43,4.18-0.59
				c0.35-0.04,0.74,0.06,1.07,0.19c1.21,0.48,2.37,1.07,3.61,1.47c1.09,0.35,2.24,0.7,3.37,0.7c3.16,0.03,6.31-0.12,9.47-0.21
				c0.25-0.01,0.51-0.14,0.85-0.24C38.54,91.16,37.69,91.19,36.77,91.34z M13.89,86.75c-0.01-0.01-0.01-0.02-0.02-0.04
				c0.02,0,0.04,0,0.06,0C13.91,86.72,13.9,86.73,13.89,86.75z M13.92,86.49L13.92,86.49L13.92,86.49L13.92,86.49z M21.77,86.02
				L21.77,86.02L21.77,86.02L21.77,86.02C21.77,86.02,21.77,86.02,21.77,86.02L21.77,86.02z"/>
			<path class="st1" d="M55.34,37.86c-0.12-0.26-0.69-0.51-1-0.45c-0.23,0.04-0.46,0.58-0.51,0.92c-0.09,0.64-0.06,1.31-0.08,1.96
				c0.54-0.36,1.17-0.64,1.57-1.12C55.55,38.9,55.51,38.24,55.34,37.86z"/>
			<path class="st1" d="M42.96,91.42c-0.39,0.37-0.65,0.87-1.01,1.39c0.64-0.12,1.12-0.13,1.54-0.3c0.26-0.1,0.48-0.41,0.61-0.68
				c0.06-0.12-0.13-0.52-0.24-0.53C43.56,91.26,43.14,91.25,42.96,91.42z"/>
			<path class="st1" d="M53.75,40.33c0-0.01,0-0.02,0-0.03c-0.01,0-0.01,0.01-0.02,0.01c0,0.02,0,0.04,0,0.05
				C53.74,40.35,53.75,40.34,53.75,40.33L53.75,40.33z"/>
			<path class="st1" d="M53.74,44.44c0,0,0.02-0.02,0.02-0.02c-0.01-0.01-0.01-0.02-0.02-0.03C53.74,44.41,53.74,44.43,53.74,44.44z
				"/>
			<path class="st1" d="M53.74,44.4c0-1.35-0.01-2.69-0.01-4.03C52.92,41.31,52.92,43.47,53.74,44.4z"/>
		</g>
		<g>
			<path class="st1" d="M224.03,139.04c-0.27-0.12-0.53-0.6-0.54-0.92c-0.05-2.34,0.07-4.67-0.85-6.92c-0.58-1.4-0.91-2.89-1.46-4.3
				c-0.57-1.45-1.32-2.83-1.92-4.27c-0.32-0.78-0.39-1.68-0.76-2.43c-0.53-1.1-1.23-2.12-1.86-3.17c-0.57-0.94-0.73-1.84,0-2.8
				c0.17-0.22,0.06-0.64,0.08-0.97c-0.22,0.2-0.44,0.4-0.67,0.59c-0.22,0.18-0.42,0.44-0.67,0.49c-0.14,0.03-0.41-0.25-0.52-0.44
				c-0.56-0.96-1.02-1.98-1.62-2.91c-1.29-2-1.05-2.96,0.78-4.56c0.62-0.54,0.87-1.57,1.14-2.42c0.07-0.21-0.42-0.59-0.65-0.89
				c-0.21,0.22-0.41,0.44-0.62,0.65c-0.12,0.12-0.29,0.32-0.39,0.3c-0.69-0.19-0.6,0.32-0.49,0.62c0.32,0.9,0.3,1.64-0.42,2.41
				c-0.59,0.63-0.97,0.77-1.37,0.02c-0.93-1.72-1.46-3.45-0.01-5.21c0.16-0.2,0.09-0.58,0.13-0.88c-0.21,0.19-0.42,0.39-0.64,0.57
				c-0.24,0.19-0.52,0.53-0.73,0.5c-0.24-0.04-0.5-0.38-0.63-0.65c-0.12-0.25-0.08-0.58-0.12-0.88c-0.08-0.59-0.33-0.9-0.98-0.63
				c-0.87,0.36-1.49-0.04-2.07-0.66c-0.56-0.6-0.67-1.21-0.28-1.93c0.09-0.16,0.19-0.38,0.15-0.53c-0.11-0.37-0.29-0.72-0.45-1.07
				c-0.26,0.11-0.51,0.27-0.77,0.33c-0.24,0.05-0.69,0.04-0.71-0.04c-0.12-0.41-0.1-0.86-0.18-1.29c-0.09-0.48-0.14-1-0.38-1.41
				c-0.08-0.14-0.93-0.09-0.97,0.03c-0.14,0.41-0.24,0.97-0.07,1.34c0.6,1.28,1.28,2.52,2,3.74c0.64,1.08,1.54,1.89,2.78,2.3
				c0.91,0.3,1.45,1,1.69,1.94c0.24,0.97,0.49,1.95,0.77,2.91c0.2,0.69,0.04,1.08-0.72,0.85c-1.1-0.32-2.17-0.72-3.25-1.1
				c-2.58-0.9-3.24-2.05-2.94-4.68c0.25-2.18-0.2-4.22-1.66-5.97c-1.25-1.5-3.33-1.56-4.66-0.21c-0.19,0.11-0.38,0.27-0.55,0.49
				c0,0,0,0,0,0c-0.16,0.14-0.29,0.28-0.41,0.43c-1.72,0.99-2.09,2.39-1.3,4.26c0.74,1.77,1.85,3.19,3.26,4.45
				c0.89,0.79,1.83,1.37,3.03,1.41c0.26,0.39,0.55,0.73,1.1,0.56c0.67-0.2,0.62-0.8,0.61-1.35c0.06,0.05,0.11,0.11,0.17,0.15
				c0.32,0.27,0.71,0.46,1.09,0.62c0.43,0.17,0.92,0.21,1.34,0.39c1.43,0.63,2.86,1.46,4.46,1.16c0.93-0.18,1.33,0.14,1.68,0.82
				c0.35,0.7,0.68,1.41,1,2.11c0.22,0.47,0.12,0.8-0.44,0.89c-0.26,0.04-0.57-0.04-0.77,0.09c-0.32,0.21-0.57,0.54-0.85,0.81
				c0.38,0.22,0.73,0.49,1.14,0.62c0.2,0.07,0.53-0.07,0.73-0.22c0.95-0.71,1.39-0.15,1.78,0.65c0.75,1.49,1.5,2.98,2.28,4.46
				c0.74,1.42,1.5,2.82,2.25,4.23c0.28,0.52,0.31,0.97-0.32,1.31c-0.26,0.14-0.44,0.44-0.66,0.67c0.34,0.15,0.67,0.32,1.02,0.46
				c0.41,0.17,1.07,0.2,1.21,0.49c0.69,1.4,1.26,2.85,1.83,4.31c0.09,0.22,0,0.6-0.15,0.78c-0.1,0.11-0.56,0.09-0.7-0.04
				c-1.26-1.12-2.84-1.39-4.39-1.79c-0.27-0.07-0.57-0.24-0.76-0.44c-0.14-0.15-0.28-0.3-0.42-0.45c0.07-0.09,0.13-0.2,0.17-0.32
				c0.24-0.7-0.38-1.11-1.04-1.3v0c-0.86-1.01-1.84-1.86-2.9-2.63c-0.06-0.07-0.12-0.14-0.17-0.21c-1.37-1.82-2.73-3.63-4.52-5.06
				c-0.6-0.48-1.31-0.83-1.99-1.2c-1.2-0.65-2.38-1.34-3.63-1.87c-0.93-0.39-1.97-0.23-2.69,0.51c-0.68,0.7-0.7,1.61-0.49,2.61
				c0.55,2.6,2.17,4.57,3.74,6.54c2.21,2.76,4.99,4.18,8.21,4.42c0.63,0.1,1.27,0.16,1.92,0.18c0.39,0.02,0.87,0,1.17-0.28
				c0,0,0,0,0,0c0.55-0.08,1.14-0.26,1.66-0.15c1.92,0.43,3.82,0.85,5.58,1.85c0.91,0.52,1.66,1.09,1.89,2.06
				c0.46,1.9,0.8,3.83,1.14,5.76c0.11,0.61,0.11,1.25,0.1,1.88c-0.02,1.18-0.07,2.36-0.16,3.54c-0.04,0.54-0.18,1.07-0.29,1.6
				c-0.08,0.42-0.27,0.85-0.26,1.27c0.06,2.77-0.8,5.35-1.6,7.94c-0.06,0.18-0.29,0.3-0.43,0.45c-0.16-0.18-0.36-0.33-0.48-0.53
				c-0.09-0.15-0.1-0.36-0.1-0.54c-0.04-2.15-0.99-3.83-2.51-5.31c-0.19-0.19-0.33-0.46-0.44-0.75c0.32-0.35,0.29-0.9,0.03-1
				c-0.11-0.04-0.2-0.1-0.28-0.15c-0.07-0.84,0.22-1.77-0.07-2.5c-1.1-2.81-2.65-5.28-5.9-6.03c-0.79-0.18-1.58-0.37-2.37-0.54
				c-0.3-0.1-0.6-0.18-0.92-0.2c-1-0.06-1.57,0.32-1.65,1.04c-0.06-0.06-0.12-0.12-0.18-0.18c-0.13,0.36-0.39,0.74-0.36,1.09
				c0.1,1.16,0.49,2.16,1.08,3.05c0.03,0.14,0.09,0.28,0.24,0.41c0.06,0.05,0.12,0.11,0.18,0.16c0.37,0.46,0.79,0.9,1.27,1.3
				c0.84,0.71,1.75,1.3,2.68,1.84c1.02,0.8,2.1,1.49,3.28,2.06c0.29,0.16,0.59,0.2,0.89,0.16c2.08,1.14,3.71,2.73,3.91,5.36
				c0.07,0.96,0.31,1.91,0.52,2.86c0.06,0.25,0.32,0.45,0.48,0.67c0.22-0.18,0.49-0.32,0.64-0.54c0.26-0.4,0.45-0.85,0.67-1.28
				c1.38-2.6,1.79-5.5,2.54-8.29c0.02-0.07,0-0.15,0.01-0.22c0.35-2.11,0.69-4.21,1.08-6.31
				C224.49,139.54,224.58,139.27,224.03,139.04z M194.5,97.92c-0.06-0.11,0.11-0.48,0.14-0.48c0.05,0,0.09,0.02,0.14,0.02
				c0.01,0.59,0.15,1.2,0.41,1.8c0.28,0.64,0.6,1.26,0.94,1.87C195.37,100.22,195.06,98.98,194.5,97.92z M197.7,95.25
				c0-0.01-0.01-0.03-0.01-0.04c0.02,0,0.03,0.01,0.05,0.01C197.73,95.23,197.71,95.24,197.7,95.25z M199.29,94.55
				c0.02-0.02,0.05-0.05,0.07-0.06c0.13-0.07,0.45,0.05,0.59,0.19C199.76,94.61,199.53,94.56,199.29,94.55z M201.55,115.36
				c-0.02-0.01-0.04-0.02-0.06-0.04c0.08,0.03,0.15,0.06,0.23,0.1C201.66,115.4,201.61,115.38,201.55,115.36z M206.92,122.53
				C206.92,122.53,206.92,122.53,206.92,122.53C206.92,122.53,206.92,122.53,206.92,122.53L206.92,122.53z M204.71,117.16
				c0.13,0.02,0.26,0.08,0.38,0.18c1.03,1,2.27,1.87,2.95,3.11C206.9,119.39,205.89,118.17,204.71,117.16z"/>
			<path class="st1" d="M263.16,131.75c-0.92-1.26-2.27-1.82-3.67-2.19c-1.24-0.32-2.5-0.56-3.77-0.7
				c-0.13-0.09-0.26-0.17-0.39-0.26c-0.15-0.11-0.33-0.18-0.5-0.25c-0.85-0.34-1.67-0.41-2.39,0.28c-0.03,0.03-0.05,0.04-0.08,0.06
				c-1.63,0.02-3.18-0.02-4.64,0.97c-0.34,0.23-0.55,0.4-0.6,0.64c-0.15,0.12-0.29,0.26-0.41,0.43c-0.13,0.17-0.32,0.39-0.51,0.42
				c-0.37,0.07-0.66,0.21-0.91,0.39c0-0.04-0.01-0.09,0-0.13c-0.26,0.12-0.54,0.22-0.79,0.36c-0.15,0.09-0.25,0.27-0.4,0.38
				c-1.75,1.33-2.75,3.1-3.16,5.26c-0.2,1.09-0.48,2.17-0.8,3.23c-0.11,0.37-0.37,0.88-0.68,0.98c-1.79,0.58-3.61,1.08-5.44,1.56
				c-0.19,0.05-0.66-0.21-0.66-0.33c0-0.11,0.04-0.22,0.07-0.33c0.11-0.07,0.21-0.16,0.3-0.29c0.12-0.12,0.24-0.24,0.37-0.37
				c0.12-0.02,0.24-0.04,0.32-0.11c0.31-0.3,0.76-0.7,0.75-1.05c0-0.02-0.01-0.04-0.01-0.06c0.2-0.22,0.39-0.44,0.59-0.66
				c0.57-0.29,0.93-0.82,1.38-1.24c0.1-0.1,0.2-0.2,0.29-0.31c-0.03,0.12-0.05,0.24-0.11,0.37c-0.09,0.21,0.06,0.53,0.11,0.8
				c0.2-0.2,0.51-0.37,0.6-0.61c0.28-0.76,0.48-1.56,0.75-2.47c-0.18-0.21-0.37-0.63-0.57-0.64c-0.45-0.01-0.92,0.15-1.35,0.32
				c-0.04,0.01-0.02,0.35,0.06,0.59c-0.25,0.01-0.52,0.1-0.77,0.21c-0.04-0.07-0.08-0.15-0.11-0.22c-0.07,0.1-0.14,0.21-0.22,0.31
				c-0.19,0.02-0.38,0.04-0.52,0.2l0,0c-1.44,0.35-1.81,1.76-2.64,2.71c-0.74,0.61-1.51,1.19-2.01,2.25
				c0.64-0.07,1.18-0.45,1.58-0.12c-0.01,0.01-0.01,0.03-0.02,0.04c-0.22,0.38-0.71,0.89-1.06,0.88c-1.32-0.03-2.63-0.26-3.95-0.41
				c-0.44-0.05-0.9-0.19-1.31-0.1c-0.37,0.08-0.67,0.43-1,0.66c0.33,0.15,0.66,0.42,1,0.43c2.53,0.07,5.06-0.04,7.58,0.15
				c2.93,0.23,5.39-1.14,7.96-2.11c0.62-0.23,1.16-0.38,1.77-0.31c2.13,0.26,4.25,0.53,5.75,0.71c3.1-0.01,5.44-0.13,7.66-1.59
				c1.79-1.18,3.48-2.39,4.81-3.95c0.04-0.02,0.08-0.05,0.11-0.06c0.28-0.14,0.41-0.37,0.44-0.63c0.52-0.71,0.98-1.48,1.34-2.35
				C263.6,132.85,263.59,132.34,263.16,131.75z M242.09,136.64L242.09,136.64C242.09,136.63,242.09,136.63,242.09,136.64
				C242.09,136.63,242.09,136.63,242.09,136.64z M242.09,136.21c-0.07,0.06-0.1,0.12-0.11,0.19c-0.11,0.18-0.21,0.36-0.29,0.55
				c0.24-1.03,0.65-1.99,1.67-2.7c0.01,0,0.01-0.01,0.02-0.01C242.92,134.87,242.4,135.47,242.09,136.21z M257.3,129.77
				c0.86,0.1,1.71,0.43,2.54,0.73C258.94,130.41,258.09,130.15,257.3,129.77z"/>
			<path class="st1" d="M225.39,103.84c0.33,0.47,0.8,0.9,1.3,1.2c0.16,0.1,0.3,0.19,0.43,0.3c0.1,0.13,0.22,0.25,0.35,0.36
				c0.22,0.29,0.31,0.65,0.21,1.13c-0.03,0.17,0.13,0.37,0.21,0.56c0.16-0.12,0.36-0.22,0.48-0.38c0.17-0.22,0.33-0.44,0.5-0.66
				c0.61,0.13,1.23,0.1,1.68-0.19c1.27-0.83,2.36-1.86,3.2-3.17c0.58-0.9,0.51-1.5-0.21-2.03c0.58-1.42,1.2-2.82,1.63-4.28
				c0.29-0.97,0.43-2.04,0.36-3.06c0.39-1.88,0.43-3.77-0.18-5.68c-0.2-0.64-0.51-1.15-1.15-1.23c-0.4-0.63-1.01-0.92-1.73-0.89
				c-0.08-0.01-0.16,0-0.25,0.01c-0.01,0-0.02,0-0.04,0c-0.01,0-0.02,0-0.03,0c-1.48,0.29-2.88,0.75-3.94,1.8
				c-0.17,0.09-0.35,0.18-0.52,0.28c-0.67,0.42-1.17,1.11-1.74,1.69c-0.42,0.27-0.91,0.46-1.23,0.81c-1.34,1.45-1.58,3.42-2.25,5.18
				c-0.1,0.26-0.09,0.59-0.06,0.88C222.7,99.21,223.83,101.62,225.39,103.84z M229.53,93.88C229.53,93.88,229.53,93.88,229.53,93.88
				C229.52,93.88,229.52,93.88,229.53,93.88C229.53,93.88,229.53,93.88,229.53,93.88z M229.09,96.45c0.03,0,0.07,0,0.1-0.01
				c-0.04,0.04-0.07,0.07-0.11,0.12C229.09,96.53,229.09,96.49,229.09,96.45z M227.74,92.75c-0.01,0.03-0.03,0.04-0.05,0.07
				c-0.01-0.02-0.01-0.04-0.02-0.07C227.69,92.75,227.72,92.75,227.74,92.75z M225.95,89.63c0.08-0.01,0.15-0.01,0.23-0.02
				c-0.1,0.08-0.19,0.16-0.28,0.24C225.92,89.78,225.94,89.71,225.95,89.63z"/>
			<path class="st1" d="M231.76,122.54c-0.37,0.03-0.67,0.19-0.66,0.89c0.03,0.14,0.02,0.28,0.03,0.42
				c-0.24,0.68-0.38,1.41-0.31,2.25c0,0.07-0.01,0.13-0.01,0.2c-0.13,0.34-0.2,0.69-0.27,1.04c-0.05,0.17-0.09,0.33-0.11,0.49
				c-0.06,0.19-0.13,0.37-0.23,0.55c-0.36,0.62-0.24,1.11,0.35,1.45c0.04,0.24,0.08,0.48,0.12,0.71c-0.21,0.39-0.44,0.8-0.09,1.02
				c0.31,0.19,0.58,0.47,0.87,0.71c-0.62,0.57-0.76,1.4-1.13,2.1c-0.09,0.17,0.04,0.47,0.07,0.71c0.22-0.1,0.45-0.18,0.65-0.31
				c0.58-0.36,1.14-0.74,1.71-1.11c0.03-0.02,0.07-0.03,0.11-0.02c1.49,0.17,2.71-0.4,3.93-1.21c1.52-1.01,3.29-1.85,4.11-3.49
				c0.69-1.37,1.27-2.81,1.79-4.26c0.11-0.11,0.2-0.23,0.32-0.33c0.35-0.31,0.61-0.79,0.19-1.18c0.14-0.43,0.27-0.85,0.4-1.28
				c0.5-1.73-1.1-3.92-2.64-4.07c-0.82-0.08-1.64-0.11-2.85-0.19c-1.35-0.01-2.72,0.79-3.87,2
				C233.36,120.57,232.43,121.49,231.76,122.54z M237.53,131.09c-0.01,0-0.01,0.01-0.01,0.01c-0.01,0.01-0.02,0.01-0.03,0.02
				C237.5,131.12,237.51,131.11,237.53,131.09z M234.37,132.76c-0.1,0.05-0.27,0.02-0.43-0.04c0.38-0.07,0.76-0.17,1.12-0.3
				C234.83,132.54,234.6,132.66,234.37,132.76z"/>
			<path class="st1" d="M211.44,93.06c0.19,0.15,0.21,0.52,0.36,0.91c-0.27-0.07-0.4-0.13-0.53-0.13c-0.34,0-0.84-0.1-0.98,0.08
				c-0.17,0.22-0.17,0.75-0.02,1.01c0.27,0.46,0.65,1,1.1,1.18c0.95,0.37,1.01,0.93,0.78,1.76c-0.19,0.67-0.34,1.37-0.41,2.07
				c-0.03,0.26,0.23,0.55,0.36,0.83c0.15-0.24,0.3-0.47,0.45-0.71c0.16-0.25,0.28-0.52,0.47-0.75c0.71-0.86,1.47-1.67,2.13-2.56
				c0.16-0.22,0.08-0.67,0.01-0.99c-0.02-0.1-0.52-0.21-0.54-0.18c-0.15,0.26-0.23,0.56-0.33,0.86c-0.02,0.07,0.03,0.16,0,0.22
				c-0.22,0.37-0.43,0.74-0.69,1.07c-0.04,0.05-0.44-0.06-0.46-0.13c-0.08-0.39-0.13-0.79-0.1-1.18c0.01-0.19,0.21-0.37,0.32-0.57
				c0.24-0.45,0.55-0.88,0.68-1.36c0.25-0.92,0-1.22-0.94-1.31c-1.22-0.11-1.6-0.89-1.09-1.96c0.29-0.61,0.47-1.35,0.43-2.02
				c-0.02-0.3-0.71-0.53-1.03-0.86c-0.26-0.25-0.39-0.62-0.64-0.88c-0.24-0.25-0.55-0.43-0.83-0.65c-0.2,0.28-0.54,0.54-0.57,0.83
				c-0.05,0.53-0.02,1.12,0.17,1.61C210.04,90.58,210.22,92.07,211.44,93.06z"/>
			<path class="st1" d="M218.03,112.98c0.9-0.55,1.77-1.16,2.7-1.64c1.76-0.9,3.57-1.72,5.34-2.59c0.36-0.18,0.69-0.43,0.98-0.71
				c0.11-0.11,0.03-0.4,0.04-0.61c-0.2,0.02-0.43-0.03-0.58,0.06c-0.99,0.56-1.95,1.2-2.96,1.71c-1.65,0.83-3.35,1.55-5,2.37
				c-0.42,0.21-0.78,0.56-1.1,0.92c-0.12,0.13-0.02,0.45-0.02,0.85C217.78,113.13,217.91,113.05,218.03,112.98z"/>
			<path class="st1" d="M209.05,99.37c0.11,0.2,0.53,0.22,0.8,0.32c-0.07-0.26-0.12-0.53-0.21-0.78c-0.32-0.84-0.69-1.66-0.99-2.51
				c-0.17-0.48-0.19-1.03-0.39-1.5c-0.13-0.3-0.46-0.51-0.69-0.77c-0.12,0-0.25,0-0.37,0c-0.1,0.37-0.4,0.84-0.28,1.11
				C207.56,96.66,208.29,98.03,209.05,99.37z"/>
			<path class="st1" d="M228.29,135.86c-0.94,0.67-1.92,1.3-2.84,1.99c-0.16,0.12-0.2,0.45-0.23,0.69c-0.01,0.09,0.24,0.3,0.27,0.28
				c0.2-0.11,0.39-0.28,0.57-0.43c0.26-0.22,0.5-0.48,0.78-0.67c0.9-0.58,1.83-1.11,2.7-1.72c0.19-0.13,0.24-0.49,0.31-0.76
				c0.02-0.07-0.18-0.19-0.34-0.33C229.09,135.25,228.7,135.57,228.29,135.86z"/>
			<path class="st1" d="M208.45,91.96c0.21,0.09,0.73-0.49,1.1-0.77c-0.44-0.43-0.88-0.85-1.46-1.41c-0.47,0.45-0.75,0.71-1.03,0.98
				C207.52,91.18,207.91,91.72,208.45,91.96z"/>
			<path class="st1" d="M218.87,118.88c-0.04,0.06,0.51,0.7,0.57,0.67c0.49-0.26,0.92-0.62,1.54-1.07c-0.47-0.38-0.9-0.82-0.97-0.77
				C219.58,118.04,219.19,118.44,218.87,118.88z"/>
			<path class="st1" d="M221.16,143.43c-0.36-0.32-0.69-0.67-1.09-0.91c-0.08-0.05-0.42,0.35-0.89,0.76
				c0.65,0.3,1.05,0.54,1.48,0.66C220.78,143.96,221,143.61,221.16,143.43z"/>
		</g>
	</g>
</g>
<g id="Calque_3">
	<g>
		<path class="st1" d="M222.48,47.05c-0.23-7.01-1.02-13.98-0.93-21.01c0.1-7.42,0.06-14.84-0.57-22.25
			c-0.03-0.41-0.08-0.82-0.16-1.22c-0.19-0.88-0.65-1.46-1.64-1.55c-3.23-0.3-6.4-1.04-9.66-1.02c-7.91,0.06-15.81,0.03-23.72,0.46
			c-11.63,0.63-23.28,0.24-34.91,0.43c-10.37,0.17-20.74,0.11-31.11,0.09c-6.71-0.01-13.43,0.18-20.14-0.27
			c-3.94-0.26-7.88-0.67-11.84-0.63C81.42,0.14,75.04,0.11,68.67,0.6c-6.44,0.5-12.9,0.14-19.36,0.22
			c-0.95,0.01-1.91,0.01-2.96,0.27c0.33,0.39,0.6,0.32,0.85,0.33c2.72,0.11,5.44,0.28,8.16,0.32C58.91,1.8,62.45,1.93,66,1.7
			c9.35-0.62,18.7-0.8,28.07-0.39c4.21,0.19,8.4,0.73,12.62,0.72c18.17-0.04,36.34-0.03,54.51-0.14
			c10.19-0.07,20.36-0.31,30.54-0.68c9.06-0.33,18.12-0.78,27.12,0.79c0.9,0.16,1.5,0.39,1.43,1.42c-0.21,3.44,0.28,6.85,0.36,10.28
			c0.2,8.57-0.27,17.14,0.47,25.72c0.57,6.72,0.55,13.49,0.79,20.23c0.2,5.59,0.08,11.19,0.1,16.79c0,0.3-0.01,0.6,0.02,0.89
			c0.02,0.24,0.14,0.44,0.4,0.47c0.32,0.04,0.49-0.17,0.56-0.44c0.06-0.25,0.07-0.52,0.08-0.78
			C223.19,66.73,222.8,56.89,222.48,47.05z"/>
		<path class="st1" d="M168.61,175.32c-7.16,0.03-14.33-0.08-21.48,0.35c-8.41,0.5-16.82,1.12-25.23,1.61
			c-6.59,0.39-13.2,0.4-19.79,0.8c-7.26,0.44-14.53,0.74-21.8,0.69c-6.16-0.04-12.31-0.34-18.42-1.11
			c-4.55-0.57-9.06-1.41-13.68-1.14c-1.73,0.1-1.8-0.04-1.8-1.83c0-10.97-0.01-21.94,0-32.9c0.01-10.93-0.1-21.86-0.41-32.79
			c-0.03-0.98-0.09-1.97-0.48-2.95c-0.35,0.34-0.23,0.69-0.22,1c0.03,4.81,0.1,9.62,0.1,14.43c0.03,18.02,0.03,36.04,0.05,54.06
			c0,1.87,0.17,2,2.07,2.01c2.27,0.01,4.57-0.27,6.82,0.08c6.16,0.96,12.34,1.7,18.56,1.98c7.49,0.33,14.98,0.29,22.48-0.18
			c11.24-0.7,22.51-0.82,33.76-1.57c7.63-0.5,15.25-1.19,22.89-1.38c5.52-0.14,11.04-0.29,16.56-0.24c0.47,0.01,1.17,0.05,1.15-0.56
			C169.71,175.13,169.02,175.31,168.61,175.32z"/>
		<path class="st1" d="M45.58,33.33c-0.02-4.07,0.46-8.11,0.55-12.17c0.12-5.03-0.01-10.07-0.04-15.1c0-0.36,0.09-0.74-0.29-1.22
			c-0.22,2.55-0.27,4.93-0.3,7.31c-0.06,4.36,0.1,8.72-0.37,13.07c-0.28,2.59-0.34,5.2-0.48,7.81c-0.02,0.43-0.13,1.01,0.5,1.06
			C45.6,34.13,45.58,33.66,45.58,33.33z"/>
		<path class="st1" d="M220.12,166.31c0-1.08,0.01-2.16,0-3.24c-0.01-1.49-0.02-2.98-0.05-4.47c-0.01-0.35,0.09-0.91-0.37-0.92
			c-0.57-0.01-0.42,0.59-0.45,0.96c-0.04,0.52-0.01,1.04-0.04,1.56c-0.22,4.8,0.14,9.61-0.25,14.41c-0.02,0.24-0.06,0.46,0.23,0.53
			c0.28,0.07,0.52-0.04,0.69-0.27c0.29-0.39,0.25-0.85,0.25-1.29c0-2.42,0-4.85,0-7.27C220.13,166.31,220.12,166.31,220.12,166.31z"
			/>
	</g>
</g>
</svg>
