<svg width="257" height="29" viewBox="0 0 257 29" fill="none" xmlns="http://www.w3.org/2000/svg">
<g id="AA-Horizontal-Bleu">
<path id="Shape" fill-rule="evenodd" clip-rule="evenodd" d="M89.7931 20.9161V7.14941H98.8779C101.772 7.14941 104.06 8.50275 104.06 11.2001C104.06 13.5894 102.603 14.9614 100.213 15.5121L104.751 20.9161H101.763L97.6081 15.7081H92.202V20.9161H89.7931ZM98.9433 9.33341H92.202V13.6174H98.9433C100.559 13.6174 101.595 12.7214 101.595 11.4147C101.595 10.1081 100.605 9.33341 98.9433 9.33341Z" fill="#050033"/>
<path id="Shape_2" fill-rule="evenodd" clip-rule="evenodd" d="M0.783569 20.9161L7.88902 7.14941H10.3073L17.4314 20.9161H14.6303L13.1084 17.8454H5.02256L3.50997 20.9161H0.783569ZM12.0533 15.7081L9.06548 9.66008L6.07764 15.7081H12.0533Z" fill="#050033"/>
<path id="Path" d="M21.8385 13.9999C21.8385 17.8079 24.873 21.2519 30.1484 21.2519C32.883 21.4144 35.5214 20.2163 37.1978 18.0506L35.237 16.7999C34.0556 18.4032 32.1356 19.2906 30.1484 19.1519C26.6003 19.1519 24.3128 17.1546 24.3128 14.0746C24.3128 10.9946 26.6003 8.95992 30.1484 8.95992C32.1363 8.81764 34.0579 9.70584 35.237 11.3119L37.1978 10.0053C35.5271 7.84081 32.8979 6.63668 30.1671 6.78525C24.8917 6.78525 21.8571 10.2293 21.8571 14.0279" fill="#050033"/>
<path id="Path_2" d="M43.7337 13.9999C43.7337 17.8079 46.7682 21.2519 52.0436 21.2519C54.7771 21.4032 57.4088 20.1945 59.0744 18.0226L57.1043 16.7999C55.9228 18.4032 54.0028 19.2906 52.0156 19.1519C48.4676 19.1519 46.18 17.1546 46.18 14.0746C46.18 10.9946 48.4676 8.95993 52.0156 8.95993C54.0035 8.81765 55.9251 9.70585 57.1043 11.3119L59.0464 10.0053C57.3767 7.83951 54.7468 6.63506 52.0156 6.78526C46.7402 6.78526 43.7337 10.2666 43.7337 13.9999Z" fill="#050033"/>
<path id="Shape_3" fill-rule="evenodd" clip-rule="evenodd" d="M73.8922 21.2521C68.6168 21.2521 65.5823 17.8081 65.5823 14.0001C65.5823 10.2667 68.5701 6.7854 73.8922 6.7854C79.2143 6.7854 82.2021 10.1921 82.2021 14.0001C82.2021 17.8081 79.1676 21.2521 73.8922 21.2521ZM73.8548 8.90407C70.3068 8.90407 68.0099 10.9107 68.0099 14.0001C68.0099 17.1267 70.3068 19.0961 73.8548 19.0961C77.4029 19.0961 79.6904 17.0894 79.6904 14.0001C79.6904 10.9107 77.4029 8.90407 73.8548 8.90407Z" fill="#050033"/>
<path id="Shape_4" fill-rule="evenodd" clip-rule="evenodd" d="M175.385 20.9161V7.14941H184.451C187.346 7.14941 189.633 8.50275 189.633 11.2001C189.633 13.5894 188.177 14.9614 185.787 15.5121L190.324 20.9161H187.355L183.191 15.7081H177.794V20.9161H175.385ZM184.554 9.33341H177.813V13.6174H184.554C186.16 13.6174 187.206 12.7214 187.206 11.4147C187.206 10.1081 186.216 9.33341 184.554 9.33341Z" fill="#050033"/>
<path id="Shape_5" fill-rule="evenodd" clip-rule="evenodd" d="M152.668 20.9161L159.764 7.14941H162.192L169.307 20.9161H166.506L164.993 17.8454H156.907L155.385 20.9161H152.668ZM163.938 15.7081L160.95 9.66008L157.962 15.7081H163.938Z" fill="#050033"/>
<path id="Shape_6" fill-rule="evenodd" clip-rule="evenodd" d="M240.007 20.9161L247.112 7.14941H249.53L256.617 20.9161H253.816L252.331 17.8454H244.246L242.733 20.9161H240.007ZM251.276 15.7081L248.288 9.66008L245.301 15.7081H251.276Z" fill="#050033"/>
<path id="Path_3" d="M230.996 7.16797V18.0133L222.248 7.16797H221.529H219.344H219.092V20.8973H221.529V9.87464L230.417 20.8973H230.996H233.312H233.433V7.16797H230.996Z" fill="#050033"/>
<path id="Path_4" d="M211.697 9.28675V7.14941H198.083V7.17741H198.055V20.9067H198.083H211.697V18.7787H200.492V15.6801H208.373V13.5521H200.492V9.28675H211.697Z" fill="#050033"/>
<path id="Path_5" d="M141.921 27.636H135.488L130.754 17.78C128.168 19.18 126.693 22.4467 124.078 24.5747C122.646 25.7773 121.003 26.7044 119.233 27.3094C118.273 27.6321 117.29 27.8787 116.291 28.0467C116.058 28.0467 115.89 28.0467 115.853 27.9814C115.815 27.916 115.853 27.86 116.142 27.7387C116.908 27.4159 117.647 27.0352 118.355 26.6C119.085 26.2059 119.625 25.5323 119.849 24.7334C119.597 23.8 117.785 21.8494 119.634 18.2C120.297 16.8934 120.876 15.9507 121.287 15.008C121.771 13.8134 122.085 12.5567 122.22 11.2747C122.22 11.2094 122.22 11.2094 122.276 11.2747C123.21 12.208 126.674 15.7827 126.17 19.3574C127.628 18.6716 129.006 17.8265 130.278 16.8374C131.212 16.072 131.894 15.2787 132.939 15.26C133.985 15.2414 133.948 15.6894 134.685 15.7827C134.888 15.8072 135.093 15.7816 135.283 15.708C135.339 15.708 135.33 15.6147 135.283 15.596C134.265 15.3534 134.022 14.532 132.715 14.532C131.548 14.532 130.614 15.6147 129.914 16.0534L126.609 9.16537C125.227 6.28137 125.675 4.19071 128.691 0.074707L141.921 27.636Z" fill="url(#paint0_linear_59_467)"/>
</g>
<defs>
<linearGradient id="paint0_linear_59_467" x1="109.99" y1="22.2115" x2="132.266" y2="39.6399" gradientUnits="userSpaceOnUse">
<stop stop-color="#FFD280"/>
<stop stop-color="#FFD280"/>
<stop offset="0.3" stop-color="#D9AE6D"/>
<stop offset="0.57" stop-color="#BE955F"/>
<stop offset="0.81" stop-color="#AE8557"/>
<stop offset="1" stop-color="#A88054"/>
</linearGradient>
</defs>
</svg>
